<svg width="44" height="48" viewBox="0 0 44 48" fill="none" xmlns="http://www.w3.org/2000/svg">
    <g opacity="0.85">
        <rect width="44" height="48" rx="12" fill="#FBBF25" fill-opacity="0.16"/>
        <path d="M25.39 17.21L26.7999 20.03C26.9899 20.42 27.4999 20.79 27.9299 20.87L30.48 21.29C32.11 21.56 32.49 22.74 31.32 23.92L29.3299 25.91C28.9999 26.24 28.81 26.89 28.92 27.36L29.4899 29.82C29.9399 31.76 28.9 32.52 27.19 31.5L24.7999 30.08C24.3699 29.82 23.65 29.82 23.22 30.08L20.8299 31.5C19.1199 32.51 18.0799 31.76 18.5299 29.82L19.1 27.36C19.21 26.9 19.02 26.25 18.69 25.91L16.7 23.92C15.53 22.75 15.91 21.57 17.54 21.29L20.0899 20.87C20.5199 20.8 21.03 20.42 21.22 20.03L22.63 17.21C23.38 15.68 24.62 15.68 25.39 17.21Z" fill="#E3A300"/>
        <path opacity="0.4" d="M18 17.75H12C11.59 17.75 11.25 17.41 11.25 17C11.25 16.59 11.59 16.25 12 16.25H18C18.41 16.25 18.75 16.59 18.75 17C18.75 17.41 18.41 17.75 18 17.75Z" fill="#E3A300"/>
        <path opacity="0.4" d="M15 31.75H12C11.59 31.75 11.25 31.41 11.25 31C11.25 30.59 11.59 30.25 12 30.25H15C15.41 30.25 15.75 30.59 15.75 31C15.75 31.41 15.41 31.75 15 31.75Z" fill="#E3A300"/>
        <path opacity="0.4" d="M13 24.75H12C11.59 24.75 11.25 24.41 11.25 24C11.25 23.59 11.59 23.25 12 23.25H13C13.41 23.25 13.75 23.59 13.75 24C13.75 24.41 13.41 24.75 13 24.75Z" fill="#E3A300"/>
    </g>
</svg>
