<svg width="44" height="48" viewBox="0 0 44 48" fill="none" xmlns="http://www.w3.org/2000/svg">
    <rect width="44" height="48" rx="12" fill="#00B479" fill-opacity="0.16"/>
    <path d="M31.8098 15.9401C30.4998 19.2101 27.5098 23.4801 24.6598 26.2701C24.2498 23.6901 22.1898 21.6701 19.5898 21.3101C22.3898 18.4501 26.6898 15.4201 29.9698 14.1001C30.5498 13.8801 31.1298 14.0501 31.4898 14.4101C31.8698 14.7901 32.0498 15.3601 31.8098 15.9401Z" fill="#00B477"/>
    <path opacity="0.4" d="M24.66 26.2701C24.16 26.7601 23.66 27.2101 23.18 27.5901L21.21 29.1701C20.96 29.3501 20.71 29.5001 20.43 29.6201C20.43 29.4301 20.41 29.2401 20.39 29.0401C20.28 28.2101 19.9 27.4201 19.23 26.7501C18.54 26.0701 17.72 25.6801 16.87 25.5701C16.67 25.5501 16.46 25.5401 16.27 25.5501C16.38 25.2401 16.55 24.9501 16.76 24.7101L18.32 22.7401C18.69 22.2701 19.12 21.7901 19.59 21.3101C22.19 21.6701 24.25 23.6901 24.66 26.2701Z" fill="#00B477"/>
    <path d="M20.4298 29.6201C20.4298 30.7201 20.0098 31.7701 19.2098 32.5601C18.5998 33.1801 17.7798 33.6001 16.7798 33.7201L14.3298 33.9901C12.9898 34.1401 11.8398 32.9901 11.9898 31.6401L12.2598 29.1801C12.4998 26.9901 14.3298 25.5901 16.2698 25.5501C16.4598 25.5401 16.6698 25.5501 16.8698 25.5701C17.7198 25.6801 18.5398 26.0701 19.2298 26.7501C19.8998 27.4201 20.2798 28.2101 20.3898 29.0401C20.4098 29.2401 20.4298 29.4301 20.4298 29.6201Z" fill="#00B477"/>
</svg>
