<svg width="44" height="48" viewBox="0 0 44 48" fill="none" xmlns="http://www.w3.org/2000/svg">
    <rect width="44" height="48" rx="12" fill="#CA4E4C" fill-opacity="0.16"/>
    <path opacity="0.4" d="M17.37 34H26.62C29.31 34 31.49 31.82 31.49 29.13V20.37C31.49 17.68 29.31 15.5 26.62 15.5H17.37C14.68 15.5 12.5 17.68 12.5 20.37V29.12C12.5 31.82 14.68 34 17.37 34Z" fill="#CA4E4C"/>
    <path d="M18.29 18.29C17.87 18.29 17.54 17.95 17.54 17.54V14.75C17.54 14.34 17.87 14 18.29 14C18.71 14 19.04 14.34 19.04 14.75V17.53C19.04 17.95 18.71 18.29 18.29 18.29Z" fill="#CA4E4C"/>
    <path d="M25.71 18.29C25.29 18.29 24.96 17.95 24.96 17.54V14.75C24.96 14.33 25.3 14 25.71 14C26.13 14 26.46 14.34 26.46 14.75V17.53C26.46 17.95 26.13 18.29 25.71 18.29Z" fill="#CA4E4C"/>
    <path d="M24.7799 25.71H17.3599C16.9399 25.71 16.6099 25.37 16.6099 24.96C16.6099 24.55 16.9499 24.21 17.3599 24.21H24.7799C25.1999 24.21 25.5299 24.55 25.5299 24.96C25.5299 25.37 25.1999 25.71 24.7799 25.71Z" fill="#CA4E4C"/>
    <path d="M21.9999 29.4199H17.3599C16.9399 29.4199 16.6099 29.0799 16.6099 28.6699C16.6099 28.2499 16.9499 27.9199 17.3599 27.9199H21.9999C22.4199 27.9199 22.7499 28.2599 22.7499 28.6699C22.7499 29.0799 22.4199 29.4199 21.9999 29.4199Z" fill="#CA4E4C"/>
</svg>
