<svg width="316" height="407" viewBox="0 0 316 407" fill="none" xmlns="http://www.w3.org/2000/svg">
    <rect width="316" height="407" rx="40" fill="#F4F4F4"/>
    <path d="M31.88 42.952H28.016V49H24.944V31.456H31.88C35.408 31.456 37.688 33.76 37.688 37.192C37.688 40.576 35.384 42.952 31.88 42.952ZM31.28 34.192H28.016V40.216H31.232C33.344 40.216 34.472 39.088 34.472 37.168C34.472 35.248 33.32 34.192 31.28 34.192ZM42.8994 49.312C40.3794 49.312 38.8434 47.848 38.8434 45.616C38.8434 43.432 40.4274 42.064 43.2354 41.848L46.7874 41.584V41.32C46.7874 39.712 45.8274 39.064 44.3394 39.064C42.6114 39.064 41.6514 39.784 41.6514 41.032H39.1554C39.1554 38.464 41.2674 36.784 44.4834 36.784C47.6754 36.784 49.6434 38.512 49.6434 41.8V49H47.0754L46.8594 47.248C46.3554 48.472 44.7474 49.312 42.8994 49.312ZM43.8594 47.104C45.6594 47.104 46.8114 46.024 46.8114 44.2V43.576L44.3394 43.768C42.5154 43.936 41.8194 44.536 41.8194 45.496C41.8194 46.576 42.5394 47.104 43.8594 47.104ZM51.1597 54.496V52.048H52.9117C54.0637 52.048 54.7837 51.784 55.2877 50.392L55.6237 49.504L50.8477 37.144H53.9437L56.9917 45.784L60.2077 37.144H63.2317L57.4237 51.64C56.5357 53.848 55.2877 54.76 53.3437 54.76C52.5277 54.76 51.8077 54.664 51.1597 54.496ZM67.8228 49H64.8948V37.144H67.5828L67.8228 38.536C68.4228 37.552 69.6228 36.784 71.3268 36.784C73.1268 36.784 74.3748 37.672 74.9988 39.04C75.5988 37.672 76.9908 36.784 78.7908 36.784C81.6708 36.784 83.2548 38.512 83.2548 41.248V49H80.3508V42.016C80.3508 40.312 79.4388 39.424 78.0468 39.424C76.6308 39.424 75.5508 40.336 75.5508 42.28V49H72.6228V41.992C72.6228 40.336 71.7348 39.448 70.3428 39.448C68.9508 39.448 67.8228 40.36 67.8228 42.28V49ZM91.4332 49.312C87.9052 49.312 85.4332 46.744 85.4332 43.072C85.4332 39.352 87.8572 36.784 91.3372 36.784C94.8892 36.784 97.1452 39.16 97.1452 42.856V43.744L88.2172 43.768C88.4332 45.856 89.5372 46.912 91.4812 46.912C93.0892 46.912 94.1452 46.288 94.4812 45.16H97.1932C96.6892 47.752 94.5292 49.312 91.4332 49.312ZM91.3612 39.184C89.6332 39.184 88.5772 40.12 88.2892 41.896H94.2412C94.2412 40.264 93.1132 39.184 91.3612 39.184ZM102.417 49H99.4886V37.144H102.201L102.441 38.68C103.185 37.48 104.625 36.784 106.233 36.784C109.209 36.784 110.745 38.632 110.745 41.704V49H107.817V42.4C107.817 40.408 106.833 39.448 105.321 39.448C103.521 39.448 102.417 40.696 102.417 42.616V49ZM117.653 49H114.725V39.592H112.445V37.144H114.725V33.448H117.653V37.144H119.957V39.592H117.653V49ZM128.558 42.592V31.456H131.63V42.4C131.63 44.92 132.998 46.312 135.494 46.312C137.99 46.312 139.382 44.896 139.382 42.4V31.456H142.454V42.592C142.454 46.696 139.766 49.288 135.494 49.288C131.246 49.288 128.558 46.72 128.558 42.592ZM145.801 54.496V37.144H148.513L148.705 38.944C149.425 37.576 150.985 36.784 152.785 36.784C156.121 36.784 158.329 39.208 158.329 42.928C158.329 46.624 156.313 49.312 152.785 49.312C151.009 49.312 149.473 48.616 148.729 47.416V54.496H145.801ZM148.753 43.072C148.753 45.208 150.073 46.672 152.089 46.672C154.153 46.672 155.377 45.184 155.377 43.072C155.377 40.96 154.153 39.448 152.089 39.448C150.073 39.448 148.753 40.936 148.753 43.072ZM163.612 49H160.708V31.144H163.612V49ZM165.988 43.048C165.988 39.352 168.652 36.808 172.324 36.808C175.996 36.808 178.66 39.352 178.66 43.048C178.66 46.744 175.996 49.288 172.324 49.288C168.652 49.288 165.988 46.744 165.988 43.048ZM168.916 43.048C168.916 45.208 170.308 46.672 172.324 46.672C174.34 46.672 175.732 45.208 175.732 43.048C175.732 40.888 174.34 39.424 172.324 39.424C170.308 39.424 168.916 40.888 168.916 43.048ZM184.509 49.312C181.989 49.312 180.453 47.848 180.453 45.616C180.453 43.432 182.037 42.064 184.845 41.848L188.397 41.584V41.32C188.397 39.712 187.437 39.064 185.949 39.064C184.221 39.064 183.261 39.784 183.261 41.032H180.765C180.765 38.464 182.877 36.784 186.093 36.784C189.285 36.784 191.253 38.512 191.253 41.8V49H188.685L188.469 47.248C187.965 48.472 186.357 49.312 184.509 49.312ZM185.469 47.104C187.269 47.104 188.421 46.024 188.421 44.2V43.576L185.949 43.768C184.125 43.936 183.429 44.536 183.429 45.496C183.429 46.576 184.149 47.104 185.469 47.104ZM199.001 49.312C195.569 49.312 193.433 46.792 193.433 43.12C193.433 39.424 195.593 36.784 199.169 36.784C200.825 36.784 202.289 37.48 203.033 38.656V31.144H205.937V49H203.249L203.057 47.152C202.337 48.52 200.801 49.312 199.001 49.312ZM199.649 46.624C201.689 46.624 203.009 45.16 203.009 43.024C203.009 40.888 201.689 39.4 199.649 39.4C197.609 39.4 196.361 40.912 196.361 43.024C196.361 45.136 197.609 46.624 199.649 46.624ZM208.077 45.4H210.861C210.885 46.432 211.653 47.08 212.997 47.08C214.365 47.08 215.109 46.528 215.109 45.664C215.109 45.064 214.797 44.632 213.741 44.392L211.605 43.888C209.469 43.408 208.437 42.4 208.437 40.504C208.437 38.176 210.405 36.784 213.141 36.784C215.805 36.784 217.605 38.32 217.629 40.624H214.845C214.821 39.616 214.149 38.968 213.021 38.968C211.869 38.968 211.197 39.496 211.197 40.384C211.197 41.056 211.725 41.488 212.733 41.728L214.869 42.232C216.861 42.688 217.869 43.6 217.869 45.424C217.869 47.824 215.829 49.312 212.901 49.312C209.949 49.312 208.077 47.728 208.077 45.4Z" fill="#1D1D21"/>
    <path d="M32.288 79H24.566V66.112H32.27V67.3H25.862V71.944H31.676V73.114H25.862V77.812H32.288V79ZM37.1515 79.216C35.2975 79.216 34.1995 78.172 34.1995 76.642C34.1995 75.04 35.4235 74.032 37.4575 73.87L40.3375 73.636V73.348C40.3375 71.638 39.3115 71.098 38.0335 71.098C36.5215 71.098 35.6215 71.782 35.6215 72.952H34.4875C34.4875 71.188 35.9275 70.054 38.0695 70.054C40.0855 70.054 41.5615 71.062 41.5615 73.366V79H40.5175L40.3555 77.47C39.8155 78.568 38.6275 79.216 37.1515 79.216ZM37.4395 78.208C39.2755 78.208 40.3375 76.93 40.3375 75.04V74.572L37.7635 74.77C36.1255 74.914 35.4595 75.634 35.4595 76.606C35.4595 77.668 36.2515 78.208 37.4395 78.208ZM43.3158 76.552H44.5038C44.5038 77.56 45.2598 78.19 46.4838 78.19C47.8338 78.19 48.6258 77.614 48.6258 76.678C48.6258 75.958 48.2658 75.544 47.2398 75.292L45.7458 74.914C44.2338 74.536 43.4958 73.744 43.4958 72.556C43.4958 71.026 44.7738 70.054 46.6458 70.054C48.4818 70.054 49.6698 71.062 49.7238 72.682H48.5178C48.4818 71.674 47.7798 71.08 46.6098 71.08C45.3858 71.08 44.7018 71.602 44.7018 72.538C44.7018 73.204 45.1698 73.672 46.1238 73.906L47.6178 74.284C49.1298 74.662 49.8138 75.364 49.8138 76.624C49.8138 78.19 48.4818 79.216 46.5018 79.216C44.5398 79.216 43.3158 78.172 43.3158 76.552ZM52.4705 67.894C51.9665 67.894 51.5525 67.48 51.5525 66.976C51.5525 66.472 51.9665 66.04 52.4705 66.04C52.9745 66.04 53.4065 66.472 53.4065 66.976C53.4065 67.48 52.9745 67.894 52.4705 67.894ZM51.8585 79V70.288H53.1005V79H51.8585ZM56.9865 79H55.7445V65.878H56.9865V79ZM58.746 82.798V81.772H59.7C60.456 81.772 61.212 81.718 61.644 80.548L62.022 79.522L58.494 70.288H59.808L62.616 77.884L65.37 70.288H66.648L62.652 80.998C62.148 82.366 61.302 82.924 60.06 82.924C59.538 82.924 59.142 82.888 58.746 82.798ZM75.0909 79H73.8669V71.332H72.1209V70.288H73.8669V67.534H75.0909V70.288H76.8369V71.332H75.0909V79ZM83.0082 70.18V71.296H82.3242C80.7222 71.296 79.6962 72.376 79.6962 74.032V79H78.4542V70.288H79.6242L79.7142 71.638C80.0562 70.702 80.9742 70.09 82.1982 70.09C82.4682 70.09 82.7022 70.108 83.0082 70.18ZM86.8097 79.216C84.9557 79.216 83.8577 78.172 83.8577 76.642C83.8577 75.04 85.0817 74.032 87.1157 73.87L89.9957 73.636V73.348C89.9957 71.638 88.9697 71.098 87.6917 71.098C86.1797 71.098 85.2797 71.782 85.2797 72.952H84.1457C84.1457 71.188 85.5857 70.054 87.7277 70.054C89.7437 70.054 91.2197 71.062 91.2197 73.366V79H90.1757L90.0137 77.47C89.4737 78.568 88.2857 79.216 86.8097 79.216ZM87.0977 78.208C88.9337 78.208 89.9957 76.93 89.9957 75.04V74.572L87.4217 74.77C85.7837 74.914 85.1177 75.634 85.1177 76.606C85.1177 77.668 85.9097 78.208 87.0977 78.208ZM93.1 74.662C93.1 71.926 94.774 70.054 97.312 70.054C99.328 70.054 100.804 71.224 101.146 73.024H99.904C99.58 71.818 98.536 71.152 97.33 71.152C95.566 71.152 94.324 72.502 94.324 74.644C94.324 76.714 95.476 78.1 97.24 78.1C98.536 78.1 99.58 77.38 99.922 76.264H101.182C100.768 78.046 99.22 79.216 97.24 79.216C94.774 79.216 93.1 77.398 93.1 74.662ZM104.36 79H103.118V65.878H104.36V74.788L108.68 70.288H110.246L106.898 73.762L110.264 79H108.824L106.052 74.644L104.36 76.39V79ZM116.739 82.798V70.288H117.819L117.945 72.052C118.557 70.702 119.781 70.054 121.239 70.054C123.759 70.054 125.271 71.98 125.271 74.608C125.271 77.236 123.813 79.216 121.239 79.216C119.763 79.216 118.593 78.586 117.981 77.326V82.798H116.739ZM117.999 74.644C117.999 76.642 119.115 78.1 121.023 78.1C122.913 78.1 124.011 76.642 124.011 74.644C124.011 72.628 122.913 71.188 121.023 71.188C119.115 71.188 117.999 72.628 117.999 74.644ZM126.639 74.644C126.639 71.98 128.511 70.054 131.067 70.054C133.623 70.054 135.495 71.98 135.495 74.644C135.495 77.29 133.623 79.216 131.067 79.216C128.511 79.216 126.639 77.29 126.639 74.644ZM127.899 74.626C127.899 76.678 129.195 78.1 131.067 78.1C132.921 78.1 134.235 76.678 134.235 74.626C134.235 72.61 132.921 71.17 131.067 71.17C129.195 71.17 127.899 72.61 127.899 74.626ZM136.744 76.552H137.932C137.932 77.56 138.688 78.19 139.912 78.19C141.262 78.19 142.054 77.614 142.054 76.678C142.054 75.958 141.694 75.544 140.668 75.292L139.174 74.914C137.662 74.536 136.924 73.744 136.924 72.556C136.924 71.026 138.202 70.054 140.074 70.054C141.91 70.054 143.098 71.062 143.152 72.682H141.946C141.91 71.674 141.208 71.08 140.038 71.08C138.814 71.08 138.13 71.602 138.13 72.538C138.13 73.204 138.598 73.672 139.552 73.906L141.046 74.284C142.558 74.662 143.242 75.364 143.242 76.624C143.242 78.19 141.91 79.216 139.93 79.216C137.968 79.216 136.744 78.172 136.744 76.552ZM147.284 79H146.06V71.332H144.314V70.288H146.06V67.534H147.284V70.288H149.03V71.332H147.284V79ZM150.152 74.824V73.708H155.372V74.824H150.152ZM161.239 79.216C158.701 79.216 157.207 77.272 157.207 74.662C157.207 72.034 158.701 70.054 161.293 70.054C162.733 70.054 163.885 70.684 164.497 71.944V65.878H165.739V79H164.659L164.533 77.218C163.921 78.568 162.697 79.216 161.239 79.216ZM161.455 78.082C163.363 78.082 164.479 76.642 164.479 74.626C164.479 72.628 163.363 71.17 161.455 71.17C159.565 71.17 158.467 72.628 158.467 74.626C158.467 76.642 159.565 78.082 161.455 78.082ZM170.833 79.216C168.979 79.216 167.881 78.172 167.881 76.642C167.881 75.04 169.105 74.032 171.139 73.87L174.019 73.636V73.348C174.019 71.638 172.993 71.098 171.715 71.098C170.203 71.098 169.303 71.782 169.303 72.952H168.169C168.169 71.188 169.609 70.054 171.751 70.054C173.767 70.054 175.243 71.062 175.243 73.366V79H174.199L174.037 77.47C173.497 78.568 172.309 79.216 170.833 79.216ZM171.121 78.208C172.957 78.208 174.019 76.93 174.019 75.04V74.572L171.445 74.77C169.807 74.914 169.141 75.634 169.141 76.606C169.141 77.668 169.933 78.208 171.121 78.208ZM179.575 79H178.351V71.332H176.605V70.288H178.351V67.534H179.575V70.288H181.321V71.332H179.575V79ZM186.505 79.216C183.949 79.216 182.239 77.38 182.239 74.644C182.239 71.926 183.931 70.054 186.415 70.054C188.773 70.054 190.375 71.728 190.375 74.194V74.806H183.445C183.535 76.93 184.651 78.154 186.523 78.154C187.945 78.154 188.863 77.542 189.187 76.39H190.375C189.907 78.226 188.557 79.216 186.505 79.216ZM186.415 71.116C184.777 71.116 183.697 72.196 183.481 73.906H189.133C189.133 72.232 188.053 71.116 186.415 71.116ZM195.78 79.216C193.242 79.216 191.748 77.272 191.748 74.662C191.748 72.034 193.242 70.054 195.834 70.054C197.274 70.054 198.426 70.684 199.038 71.944V65.878H200.28V79H199.2L199.074 77.218C198.462 78.568 197.238 79.216 195.78 79.216ZM195.996 78.082C197.904 78.082 199.02 76.642 199.02 74.626C199.02 72.628 197.904 71.17 195.996 71.17C194.106 71.17 193.008 72.628 193.008 74.626C193.008 76.642 194.106 78.082 195.996 78.082ZM207.252 74.662C207.252 71.926 208.926 70.054 211.464 70.054C213.48 70.054 214.956 71.224 215.298 73.024H214.056C213.732 71.818 212.688 71.152 211.482 71.152C209.718 71.152 208.476 72.502 208.476 74.644C208.476 76.714 209.628 78.1 211.392 78.1C212.688 78.1 213.732 77.38 214.074 76.264H215.334C214.92 78.046 213.372 79.216 211.392 79.216C208.926 79.216 207.252 77.398 207.252 74.662ZM218.458 78.982H217.216V65.878H218.458V71.8C219.016 70.756 220.078 70.054 221.536 70.054C223.822 70.054 224.848 71.476 224.848 73.672V79H223.606V73.942C223.606 71.908 222.652 71.188 221.302 71.188C219.43 71.188 218.458 72.574 218.458 74.248V78.982ZM230.977 79.216C228.421 79.216 226.711 77.38 226.711 74.644C226.711 71.926 228.403 70.054 230.887 70.054C233.245 70.054 234.847 71.728 234.847 74.194V74.806H227.917C228.007 76.93 229.123 78.154 230.995 78.154C232.417 78.154 233.335 77.542 233.659 76.39H234.847C234.379 78.226 233.029 79.216 230.977 79.216ZM230.887 71.116C229.249 71.116 228.169 72.196 227.953 73.906H233.605C233.605 72.232 232.525 71.116 230.887 71.116ZM236.221 74.608C236.221 71.98 237.733 70.054 240.253 70.054C241.711 70.054 242.917 70.702 243.547 72.052L243.673 70.288H244.753V82.798H243.511V77.326C242.899 78.586 241.729 79.216 240.253 79.216C237.679 79.216 236.221 77.236 236.221 74.608ZM237.481 74.644C237.481 76.642 238.579 78.1 240.469 78.1C242.377 78.1 243.493 76.642 243.493 74.644C243.493 72.628 242.377 71.188 240.469 71.188C238.579 71.188 237.481 72.628 237.481 74.644ZM253.465 70.288H254.707V79H253.627L253.465 77.524C252.979 78.532 251.773 79.216 250.405 79.216C248.353 79.216 247.237 77.812 247.237 75.688V70.27H248.497V75.292C248.497 77.362 249.415 78.1 250.801 78.1C252.475 78.1 253.465 76.984 253.465 74.914V70.288ZM260.772 79.216C258.216 79.216 256.506 77.38 256.506 74.644C256.506 71.926 258.198 70.054 260.682 70.054C263.04 70.054 264.642 71.728 264.642 74.194V74.806H257.712C257.802 76.93 258.918 78.154 260.79 78.154C262.212 78.154 263.13 77.542 263.454 76.39H264.642C264.174 78.226 262.824 79.216 260.772 79.216ZM260.682 71.116C259.044 71.116 257.964 72.196 257.748 73.906H263.4C263.4 72.232 262.32 71.116 260.682 71.116ZM265.89 76.552H267.078C267.078 77.56 267.834 78.19 269.058 78.19C270.408 78.19 271.2 77.614 271.2 76.678C271.2 75.958 270.84 75.544 269.814 75.292L268.32 74.914C266.808 74.536 266.07 73.744 266.07 72.556C266.07 71.026 267.348 70.054 269.22 70.054C271.056 70.054 272.244 71.062 272.298 72.682H271.092C271.056 71.674 270.354 71.08 269.184 71.08C267.96 71.08 267.276 71.602 267.276 72.538C267.276 73.204 267.744 73.672 268.698 73.906L270.192 74.284C271.704 74.662 272.388 75.364 272.388 76.624C272.388 78.19 271.056 79.216 269.076 79.216C267.114 79.216 265.89 78.172 265.89 76.552ZM27.572 108.826H26.438C24.926 106.756 23.936 103.696 23.936 100.6C23.936 97.63 24.89 94.534 26.438 92.392H27.572C26.186 94.336 25.214 97.36 25.214 100.6C25.214 103.768 26.15 106.846 27.572 108.826ZM34.0503 101.266H30.4323V106H29.1363V93.112H34.0503C36.5343 93.112 38.1003 94.732 38.1003 97.162C38.1003 99.502 36.5163 101.266 34.0503 101.266ZM33.8703 94.282H30.4323V100.096H33.7983C35.6703 100.096 36.7503 98.908 36.7503 97.144C36.7503 95.362 35.6523 94.282 33.8703 94.282ZM44.117 106H40.193V93.112H44.081C47.969 93.112 50.561 95.704 50.561 99.556C50.561 103.408 47.987 106 44.117 106ZM44.027 94.3H41.489V104.812H44.063C47.213 104.812 49.229 102.76 49.229 99.556C49.229 96.334 47.213 94.3 44.027 94.3ZM58.1579 106.198C54.5579 106.198 52.1099 103.516 52.1099 99.556C52.1099 95.596 54.5939 92.896 58.2299 92.896C61.0019 92.896 63.1799 94.57 63.7019 97.126H62.3159C61.7759 95.272 60.1919 94.138 58.1759 94.138C55.3499 94.138 53.4599 96.298 53.4599 99.556C53.4599 102.796 55.3499 104.956 58.1759 104.956C60.2099 104.956 61.8299 103.858 62.3879 102.13H63.7739C63.1799 104.56 60.9299 106.198 58.1579 106.198ZM65.0072 103.552H66.1952C66.1952 104.56 66.9512 105.19 68.1752 105.19C69.5252 105.19 70.3172 104.614 70.3172 103.678C70.3172 102.958 69.9572 102.544 68.9312 102.292L67.4372 101.914C65.9252 101.536 65.1872 100.744 65.1872 99.556C65.1872 98.026 66.4652 97.054 68.3372 97.054C70.1732 97.054 71.3612 98.062 71.4152 99.682H70.2092C70.1732 98.674 69.4712 98.08 68.3012 98.08C67.0772 98.08 66.3932 98.602 66.3932 99.538C66.3932 100.204 66.8612 100.672 67.8152 100.906L69.3092 101.284C70.8212 101.662 71.5052 102.364 71.5052 103.624C71.5052 105.19 70.1732 106.216 68.1932 106.216C66.2312 106.216 65.0072 105.172 65.0072 103.552ZM73.3879 108.826H72.2539C73.6759 106.846 74.6299 103.768 74.6299 100.6C74.6299 97.36 73.6399 94.336 72.2539 92.392H73.3879C74.9539 94.534 75.8899 97.63 75.8899 100.6C75.8899 103.696 74.8999 106.756 73.3879 108.826ZM80.3162 105.388C80.3162 106.504 79.4522 107.476 78.3362 107.638V106.972C78.9842 106.864 79.4522 106.396 79.4522 105.892C79.3442 105.964 79.2002 106.018 78.9842 106.018C78.4802 106.018 78.0482 105.658 78.0482 105.046C78.0482 104.416 78.4802 103.966 79.1102 103.966C79.7582 103.966 80.3162 104.488 80.3162 105.388ZM90.2533 106L86.6893 97.288H88.0213L90.2713 102.904C90.5053 103.534 90.7393 104.128 90.9013 104.704C91.0633 104.11 91.2973 103.534 91.5493 102.904L93.8353 97.288H95.1133L91.4953 106H90.2533ZM99.8445 106.216C97.2885 106.216 95.5785 104.38 95.5785 101.644C95.5785 98.926 97.2705 97.054 99.7545 97.054C102.113 97.054 103.715 98.728 103.715 101.194V101.806H96.7845C96.8745 103.93 97.9905 105.154 99.8625 105.154C101.285 105.154 102.203 104.542 102.527 103.39H103.715C103.247 105.226 101.897 106.216 99.8445 106.216ZM99.7545 98.116C98.1165 98.116 97.0365 99.196 96.8205 100.906H102.473C102.473 99.232 101.393 98.116 99.7545 98.116ZM110.254 97.18V98.296H109.57C107.968 98.296 106.942 99.376 106.942 101.032V106H105.7V97.288H106.87L106.96 98.638C107.302 97.702 108.22 97.09 109.444 97.09C109.714 97.09 109.948 97.108 110.254 97.18ZM112.517 94.894C112.013 94.894 111.599 94.48 111.599 93.976C111.599 93.472 112.013 93.04 112.517 93.04C113.021 93.04 113.453 93.472 113.453 93.976C113.453 94.48 113.021 94.894 112.517 94.894ZM111.905 106V97.288H113.147V106H111.905ZM114.765 97.288H116.097V95.596C116.097 93.634 117.177 92.878 118.509 92.878C118.815 92.878 119.175 92.896 119.463 92.95V94.012H118.725C117.627 94.012 117.339 94.57 117.339 95.596V97.288H119.391V98.332H117.339V106H116.097V98.332H114.765V97.288ZM120.199 109.798V108.772H121.153C121.909 108.772 122.665 108.718 123.097 107.548L123.475 106.522L119.947 97.288H121.261L124.069 104.884L126.823 97.288H128.101L124.105 107.998C123.601 109.366 122.755 109.924 121.513 109.924C120.991 109.924 120.595 109.888 120.199 109.798ZM134.546 109.798V97.288H135.626L135.752 99.052C136.364 97.702 137.588 97.054 139.046 97.054C141.566 97.054 143.078 98.98 143.078 101.608C143.078 104.236 141.62 106.216 139.046 106.216C137.57 106.216 136.4 105.586 135.788 104.326V109.798H134.546ZM135.806 101.644C135.806 103.642 136.922 105.1 138.83 105.1C140.72 105.1 141.818 103.642 141.818 101.644C141.818 99.628 140.72 98.188 138.83 98.188C136.922 98.188 135.806 99.628 135.806 101.644ZM147.56 106.216C145.706 106.216 144.608 105.172 144.608 103.642C144.608 102.04 145.832 101.032 147.866 100.87L150.746 100.636V100.348C150.746 98.638 149.72 98.098 148.442 98.098C146.93 98.098 146.03 98.782 146.03 99.952H144.896C144.896 98.188 146.336 97.054 148.478 97.054C150.494 97.054 151.97 98.062 151.97 100.366V106H150.926L150.764 104.47C150.224 105.568 149.036 106.216 147.56 106.216ZM147.848 105.208C149.684 105.208 150.746 103.93 150.746 102.04V101.572L148.172 101.77C146.534 101.914 145.868 102.634 145.868 103.606C145.868 104.668 146.66 105.208 147.848 105.208ZM153.387 109.798V108.772H154.341C155.097 108.772 155.853 108.718 156.285 107.548L156.663 106.522L153.135 97.288H154.449L157.257 104.884L160.011 97.288H161.289L157.293 107.998C156.789 109.366 155.943 109.924 154.701 109.924C154.179 109.924 153.783 109.888 153.387 109.798ZM163.983 106H162.741V97.288H163.821L163.965 98.53C164.397 97.612 165.369 97.054 166.593 97.054C167.961 97.054 168.987 97.774 169.401 98.908C169.797 97.774 170.859 97.054 172.263 97.054C174.153 97.054 175.395 98.278 175.395 100.294V106H174.189V100.546C174.189 99.052 173.361 98.17 172.029 98.17C170.571 98.17 169.707 99.268 169.707 100.618V106H168.483V100.528C168.483 99.052 167.637 98.188 166.323 98.188C164.865 98.188 163.983 99.268 163.983 100.6V106ZM181.548 106.216C178.992 106.216 177.282 104.38 177.282 101.644C177.282 98.926 178.974 97.054 181.458 97.054C183.816 97.054 185.418 98.728 185.418 101.194V101.806H178.488C178.578 103.93 179.694 105.154 181.566 105.154C182.988 105.154 183.906 104.542 184.23 103.39H185.418C184.95 105.226 183.6 106.216 181.548 106.216ZM181.458 98.116C179.82 98.116 178.74 99.196 178.524 100.906H184.176C184.176 99.232 183.096 98.116 181.458 98.116ZM188.645 106H187.403V97.288H188.483L188.663 98.8C189.239 97.684 190.391 97.054 191.651 97.054C194.045 97.054 195.035 98.476 195.035 100.672V106H193.793V100.942C193.793 98.908 192.875 98.188 191.435 98.188C189.653 98.188 188.645 99.484 188.645 101.446V106ZM199.509 106H198.285V98.332H196.539V97.288H198.285V94.534H199.509V97.288H201.255V98.332H199.509V106ZM213.984 97.288H215.226V106H214.146L213.984 104.524C213.498 105.532 212.292 106.216 210.924 106.216C208.872 106.216 207.756 104.812 207.756 102.688V97.27H209.016V102.292C209.016 104.362 209.934 105.1 211.32 105.1C212.994 105.1 213.984 103.984 213.984 101.914V97.288ZM217.814 109.798V97.288H218.894L219.02 99.052C219.632 97.702 220.856 97.054 222.314 97.054C224.834 97.054 226.346 98.98 226.346 101.608C226.346 104.236 224.888 106.216 222.314 106.216C220.838 106.216 219.668 105.586 219.056 104.326V109.798H217.814ZM219.074 101.644C219.074 103.642 220.19 105.1 222.098 105.1C223.988 105.1 225.086 103.642 225.086 101.644C225.086 99.628 223.988 98.188 222.098 98.188C220.19 98.188 219.074 99.628 219.074 101.644ZM229.621 106H228.379V92.878H229.621V106ZM231.651 101.644C231.651 98.98 233.523 97.054 236.079 97.054C238.635 97.054 240.507 98.98 240.507 101.644C240.507 104.29 238.635 106.216 236.079 106.216C233.523 106.216 231.651 104.29 231.651 101.644ZM232.911 101.626C232.911 103.678 234.207 105.1 236.079 105.1C237.933 105.1 239.247 103.678 239.247 101.626C239.247 99.61 237.933 98.17 236.079 98.17C234.207 98.17 232.911 99.61 232.911 101.626ZM244.995 106.216C243.141 106.216 242.043 105.172 242.043 103.642C242.043 102.04 243.267 101.032 245.301 100.87L248.181 100.636V100.348C248.181 98.638 247.155 98.098 245.877 98.098C244.365 98.098 243.465 98.782 243.465 99.952H242.331C242.331 98.188 243.771 97.054 245.913 97.054C247.929 97.054 249.405 98.062 249.405 100.366V106H248.361L248.199 104.47C247.659 105.568 246.471 106.216 244.995 106.216ZM245.283 105.208C247.119 105.208 248.181 103.93 248.181 102.04V101.572L245.607 101.77C243.969 101.914 243.303 102.634 243.303 103.606C243.303 104.668 244.095 105.208 245.283 105.208ZM255.318 106.216C252.78 106.216 251.286 104.272 251.286 101.662C251.286 99.034 252.78 97.054 255.372 97.054C256.812 97.054 257.964 97.684 258.576 98.944V92.878H259.818V106H258.738L258.612 104.218C258 105.568 256.776 106.216 255.318 106.216ZM255.534 105.082C257.442 105.082 258.558 103.642 258.558 101.626C258.558 99.628 257.442 98.17 255.534 98.17C253.644 98.17 252.546 99.628 252.546 101.626C252.546 103.642 253.644 105.082 255.534 105.082ZM261.671 103.552H262.859C262.859 104.56 263.615 105.19 264.839 105.19C266.189 105.19 266.981 104.614 266.981 103.678C266.981 102.958 266.621 102.544 265.595 102.292L264.101 101.914C262.589 101.536 261.851 100.744 261.851 99.556C261.851 98.026 263.129 97.054 265.001 97.054C266.837 97.054 268.025 98.062 268.079 99.682H266.873C266.837 98.674 266.135 98.08 264.965 98.08C263.741 98.08 263.057 98.602 263.057 99.538C263.057 100.204 263.525 100.672 264.479 100.906L265.973 101.284C267.485 101.662 268.169 102.364 268.169 103.624C268.169 105.19 266.837 106.216 264.857 106.216C262.895 106.216 261.671 105.172 261.671 103.552ZM272.269 105.388C272.269 106.504 271.405 107.476 270.289 107.638V106.972C270.937 106.864 271.405 106.396 271.405 105.892C271.297 105.964 271.153 106.018 270.937 106.018C270.433 106.018 270.001 105.658 270.001 105.046C270.001 104.416 270.433 103.966 271.063 103.966C271.711 103.966 272.269 104.488 272.269 105.388ZM26.798 133.216C24.944 133.216 23.846 132.172 23.846 130.642C23.846 129.04 25.07 128.032 27.104 127.87L29.984 127.636V127.348C29.984 125.638 28.958 125.098 27.68 125.098C26.168 125.098 25.268 125.782 25.268 126.952H24.134C24.134 125.188 25.574 124.054 27.716 124.054C29.732 124.054 31.208 125.062 31.208 127.366V133H30.164L30.002 131.47C29.462 132.568 28.274 133.216 26.798 133.216ZM27.086 132.208C28.922 132.208 29.984 130.93 29.984 129.04V128.572L27.41 128.77C25.772 128.914 25.106 129.634 25.106 130.606C25.106 131.668 25.898 132.208 27.086 132.208ZM34.9423 133H33.7003V124.288H34.7803L34.9603 125.8C35.5363 124.684 36.6883 124.054 37.9483 124.054C40.3423 124.054 41.3323 125.476 41.3323 127.672V133H40.0903V127.942C40.0903 125.908 39.1723 125.188 37.7323 125.188C35.9503 125.188 34.9423 126.484 34.9423 128.446V133ZM47.2277 133.216C44.6897 133.216 43.1957 131.272 43.1957 128.662C43.1957 126.034 44.6897 124.054 47.2817 124.054C48.7217 124.054 49.8737 124.684 50.4857 125.944V119.878H51.7277V133H50.6477L50.5217 131.218C49.9097 132.568 48.6857 133.216 47.2277 133.216ZM47.4437 132.082C49.3517 132.082 50.4677 130.642 50.4677 128.626C50.4677 126.628 49.3517 125.17 47.4437 125.17C45.5537 125.17 44.4557 126.628 44.4557 128.626C44.4557 130.642 45.5537 132.082 47.4437 132.082ZM60.5536 133H59.3116V124.288H60.3916L60.5356 125.53C60.9676 124.612 61.9396 124.054 63.1636 124.054C64.5316 124.054 65.5576 124.774 65.9716 125.908C66.3676 124.774 67.4296 124.054 68.8336 124.054C70.7236 124.054 71.9656 125.278 71.9656 127.294V133H70.7596V127.546C70.7596 126.052 69.9316 125.17 68.5996 125.17C67.1416 125.17 66.2776 126.268 66.2776 127.618V133H65.0536V127.528C65.0536 126.052 64.2076 125.188 62.8936 125.188C61.4356 125.188 60.5536 126.268 60.5536 127.6V133ZM76.966 133.216C75.112 133.216 74.014 132.172 74.014 130.642C74.014 129.04 75.238 128.032 77.272 127.87L80.152 127.636V127.348C80.152 125.638 79.126 125.098 77.848 125.098C76.336 125.098 75.436 125.782 75.436 126.952H74.302C74.302 125.188 75.742 124.054 77.884 124.054C79.9 124.054 81.376 125.062 81.376 127.366V133H80.332L80.17 131.47C79.63 132.568 78.442 133.216 76.966 133.216ZM77.254 132.208C79.09 132.208 80.152 130.93 80.152 129.04V128.572L77.578 128.77C75.94 128.914 75.274 129.634 75.274 130.606C75.274 131.668 76.066 132.208 77.254 132.208ZM84.4803 121.894C83.9763 121.894 83.5623 121.48 83.5623 120.976C83.5623 120.472 83.9763 120.04 84.4803 120.04C84.9843 120.04 85.4163 120.472 85.4163 120.976C85.4163 121.48 84.9843 121.894 84.4803 121.894ZM83.8683 133V124.288H85.1103V133H83.8683ZM88.9423 133H87.7003V124.288H88.7803L88.9603 125.8C89.5363 124.684 90.6883 124.054 91.9483 124.054C94.3423 124.054 95.3323 125.476 95.3323 127.672V133H94.0903V127.942C94.0903 125.908 93.1723 125.188 91.7323 125.188C89.9503 125.188 88.9423 126.484 88.9423 128.446V133ZM99.8057 133H98.5817V125.332H96.8357V124.288H98.5817V121.534H99.8057V124.288H101.552V125.332H99.8057V133ZM105.53 133.216C103.676 133.216 102.578 132.172 102.578 130.642C102.578 129.04 103.802 128.032 105.836 127.87L108.716 127.636V127.348C108.716 125.638 107.69 125.098 106.412 125.098C104.9 125.098 104 125.782 104 126.952H102.866C102.866 125.188 104.306 124.054 106.448 124.054C108.464 124.054 109.94 125.062 109.94 127.366V133H108.896L108.734 131.47C108.194 132.568 107.006 133.216 105.53 133.216ZM105.818 132.208C107.654 132.208 108.716 130.93 108.716 129.04V128.572L106.142 128.77C104.504 128.914 103.838 129.634 103.838 130.606C103.838 131.668 104.63 132.208 105.818 132.208ZM113.045 121.894C112.541 121.894 112.127 121.48 112.127 120.976C112.127 120.472 112.541 120.04 113.045 120.04C113.549 120.04 113.981 120.472 113.981 120.976C113.981 121.48 113.549 121.894 113.045 121.894ZM112.433 133V124.288H113.675V133H112.433ZM117.507 133H116.265V124.288H117.345L117.525 125.8C118.101 124.684 119.253 124.054 120.513 124.054C122.907 124.054 123.897 125.476 123.897 127.672V133H122.655V127.942C122.655 125.908 121.737 125.188 120.297 125.188C118.515 125.188 117.507 126.484 117.507 128.446V133ZM133.866 133.216C132.012 133.216 130.914 132.172 130.914 130.642C130.914 129.04 132.138 128.032 134.172 127.87L137.052 127.636V127.348C137.052 125.638 136.026 125.098 134.748 125.098C133.236 125.098 132.336 125.782 132.336 126.952H131.202C131.202 125.188 132.642 124.054 134.784 124.054C136.8 124.054 138.276 125.062 138.276 127.366V133H137.232L137.07 131.47C136.53 132.568 135.342 133.216 133.866 133.216ZM134.154 132.208C135.99 132.208 137.052 130.93 137.052 129.04V128.572L134.478 128.77C132.84 128.914 132.174 129.634 132.174 130.606C132.174 131.668 132.966 132.208 134.154 132.208ZM140.157 128.662C140.157 125.926 141.831 124.054 144.369 124.054C146.385 124.054 147.861 125.224 148.203 127.024H146.961C146.637 125.818 145.593 125.152 144.387 125.152C142.623 125.152 141.381 126.502 141.381 128.644C141.381 130.714 142.533 132.1 144.297 132.1C145.593 132.1 146.637 131.38 146.979 130.264H148.239C147.825 132.046 146.277 133.216 144.297 133.216C141.831 133.216 140.157 131.398 140.157 128.662ZM149.508 128.662C149.508 125.926 151.182 124.054 153.72 124.054C155.736 124.054 157.212 125.224 157.554 127.024H156.312C155.988 125.818 154.944 125.152 153.738 125.152C151.974 125.152 150.732 126.502 150.732 128.644C150.732 130.714 151.884 132.1 153.648 132.1C154.944 132.1 155.988 131.38 156.33 130.264H157.59C157.176 132.046 155.628 133.216 153.648 133.216C151.182 133.216 149.508 131.398 149.508 128.662ZM165.592 124.288H166.834V133H165.754L165.592 131.524C165.106 132.532 163.9 133.216 162.532 133.216C160.48 133.216 159.364 131.812 159.364 129.688V124.27H160.624V129.292C160.624 131.362 161.542 132.1 162.928 132.1C164.602 132.1 165.592 130.984 165.592 128.914V124.288ZM173.975 124.18V125.296H173.291C171.689 125.296 170.663 126.376 170.663 128.032V133H169.421V124.288H170.591L170.681 125.638C171.023 124.702 171.941 124.09 173.165 124.09C173.435 124.09 173.669 124.108 173.975 124.18ZM177.777 133.216C175.923 133.216 174.825 132.172 174.825 130.642C174.825 129.04 176.049 128.032 178.083 127.87L180.963 127.636V127.348C180.963 125.638 179.937 125.098 178.659 125.098C177.147 125.098 176.247 125.782 176.247 126.952H175.113C175.113 125.188 176.553 124.054 178.695 124.054C180.711 124.054 182.187 125.062 182.187 127.366V133H181.143L180.981 131.47C180.441 132.568 179.253 133.216 177.777 133.216ZM178.065 132.208C179.901 132.208 180.963 130.93 180.963 129.04V128.572L178.389 128.77C176.751 128.914 176.085 129.634 176.085 130.606C176.085 131.668 176.877 132.208 178.065 132.208ZM186.519 133H185.295V125.332H183.549V124.288H185.295V121.534H186.519V124.288H188.265V125.332H186.519V133ZM193.448 133.216C190.892 133.216 189.182 131.38 189.182 128.644C189.182 125.926 190.874 124.054 193.358 124.054C195.716 124.054 197.318 125.728 197.318 128.194V128.806H190.388C190.478 130.93 191.594 132.154 193.466 132.154C194.888 132.154 195.806 131.542 196.13 130.39H197.318C196.85 132.226 195.5 133.216 193.448 133.216ZM193.358 125.116C191.72 125.116 190.64 126.196 190.424 127.906H196.076C196.076 126.232 194.996 125.116 193.358 125.116ZM210.038 133V125.332H205.898V133H204.656V125.332H203.324V124.288H204.656V122.596C204.656 120.634 205.718 119.878 207.014 119.878C207.32 119.878 207.698 119.896 207.986 119.95V121.03H207.23C206.186 121.03 205.898 121.57 205.898 122.596V124.288H211.28V133H210.038ZM210.65 121.804C210.146 121.804 209.786 121.444 209.786 120.94C209.786 120.436 210.146 120.058 210.65 120.058C211.136 120.058 211.514 120.436 211.514 120.94C211.514 121.444 211.136 121.804 210.65 121.804ZM215.065 133H213.823V124.288H214.903L215.083 125.8C215.659 124.684 216.811 124.054 218.071 124.054C220.465 124.054 221.455 125.476 221.455 127.672V133H220.213V127.942C220.213 125.908 219.295 125.188 217.855 125.188C216.073 125.188 215.065 126.484 215.065 128.446V133ZM226.433 133.216C224.579 133.216 223.481 132.172 223.481 130.642C223.481 129.04 224.705 128.032 226.739 127.87L229.619 127.636V127.348C229.619 125.638 228.593 125.098 227.315 125.098C225.803 125.098 224.903 125.782 224.903 126.952H223.769C223.769 125.188 225.209 124.054 227.351 124.054C229.367 124.054 230.843 125.062 230.843 127.366V133H229.799L229.637 131.47C229.097 132.568 227.909 133.216 226.433 133.216ZM226.721 132.208C228.557 132.208 229.619 130.93 229.619 129.04V128.572L227.045 128.77C225.407 128.914 224.741 129.634 224.741 130.606C224.741 131.668 225.533 132.208 226.721 132.208ZM234.577 133H233.335V124.288H234.415L234.595 125.8C235.171 124.684 236.323 124.054 237.583 124.054C239.977 124.054 240.967 125.476 240.967 127.672V133H239.725V127.942C239.725 125.908 238.807 125.188 237.367 125.188C235.585 125.188 234.577 126.484 234.577 128.446V133ZM242.83 128.662C242.83 125.926 244.504 124.054 247.042 124.054C249.058 124.054 250.534 125.224 250.876 127.024H249.634C249.31 125.818 248.266 125.152 247.06 125.152C245.296 125.152 244.054 126.502 244.054 128.644C244.054 130.714 245.206 132.1 246.97 132.1C248.266 132.1 249.31 131.38 249.652 130.264H250.912C250.498 132.046 248.95 133.216 246.97 133.216C244.504 133.216 242.83 131.398 242.83 128.662ZM253.406 121.894C252.902 121.894 252.488 121.48 252.488 120.976C252.488 120.472 252.902 120.04 253.406 120.04C253.91 120.04 254.342 120.472 254.342 120.976C254.342 121.48 253.91 121.894 253.406 121.894ZM252.794 133V124.288H254.036V133H252.794ZM259.128 133.216C257.274 133.216 256.176 132.172 256.176 130.642C256.176 129.04 257.4 128.032 259.434 127.87L262.314 127.636V127.348C262.314 125.638 261.288 125.098 260.01 125.098C258.498 125.098 257.598 125.782 257.598 126.952H256.464C256.464 125.188 257.904 124.054 260.046 124.054C262.062 124.054 263.538 125.062 263.538 127.366V133H262.494L262.332 131.47C261.792 132.568 260.604 133.216 259.128 133.216ZM259.416 132.208C261.252 132.208 262.314 130.93 262.314 129.04V128.572L259.74 128.77C258.102 128.914 257.436 129.634 257.436 130.606C257.436 131.668 258.228 132.208 259.416 132.208ZM267.326 133H266.084V119.878H267.326V133ZM28.85 151.18V152.296H28.166C26.564 152.296 25.538 153.376 25.538 155.032V160H24.296V151.288H25.466L25.556 152.638C25.898 151.702 26.816 151.09 28.04 151.09C28.31 151.09 28.544 151.108 28.85 151.18ZM33.8211 160.216C31.2651 160.216 29.5551 158.38 29.5551 155.644C29.5551 152.926 31.2471 151.054 33.7311 151.054C36.0891 151.054 37.6911 152.728 37.6911 155.194V155.806H30.7611C30.8511 157.93 31.9671 159.154 33.8391 159.154C35.2611 159.154 36.1791 158.542 36.5031 157.39H37.6911C37.2231 159.226 35.8731 160.216 33.8211 160.216ZM33.7311 152.116C32.0931 152.116 31.0131 153.196 30.7971 154.906H36.4491C36.4491 153.232 35.3691 152.116 33.7311 152.116ZM39.0649 155.662C39.0649 152.926 40.7389 151.054 43.2769 151.054C45.2929 151.054 46.7689 152.224 47.1109 154.024H45.8689C45.5449 152.818 44.5009 152.152 43.2949 152.152C41.5309 152.152 40.2889 153.502 40.2889 155.644C40.2889 157.714 41.4409 159.1 43.2049 159.1C44.5009 159.1 45.5449 158.38 45.8869 157.264H47.1469C46.7329 159.046 45.1849 160.216 43.2049 160.216C40.7389 160.216 39.0649 158.398 39.0649 155.662ZM48.4164 155.644C48.4164 152.98 50.2884 151.054 52.8444 151.054C55.4004 151.054 57.2724 152.98 57.2724 155.644C57.2724 158.29 55.4004 160.216 52.8444 160.216C50.2884 160.216 48.4164 158.29 48.4164 155.644ZM49.6764 155.626C49.6764 157.678 50.9724 159.1 52.8444 159.1C54.6984 159.1 56.0124 157.678 56.0124 155.626C56.0124 153.61 54.6984 152.17 52.8444 152.17C50.9724 152.17 49.6764 153.61 49.6764 155.626ZM63.8129 151.18V152.296H63.1289C61.5269 152.296 60.5009 153.376 60.5009 155.032V160H59.2589V151.288H60.4289L60.5189 152.638C60.8609 151.702 61.7789 151.09 63.0029 151.09C63.2729 151.09 63.5069 151.108 63.8129 151.18ZM68.55 160.216C66.012 160.216 64.518 158.272 64.518 155.662C64.518 153.034 66.012 151.054 68.604 151.054C70.044 151.054 71.196 151.684 71.808 152.944V146.878H73.05V160H71.97L71.844 158.218C71.232 159.568 70.008 160.216 68.55 160.216ZM68.766 159.082C70.674 159.082 71.79 157.642 71.79 155.626C71.79 153.628 70.674 152.17 68.766 152.17C66.876 152.17 65.778 153.628 65.778 155.626C65.778 157.642 66.876 159.082 68.766 159.082ZM74.9037 157.552H76.0917C76.0917 158.56 76.8477 159.19 78.0717 159.19C79.4217 159.19 80.2137 158.614 80.2137 157.678C80.2137 156.958 79.8537 156.544 78.8277 156.292L77.3337 155.914C75.8217 155.536 75.0837 154.744 75.0837 153.556C75.0837 152.026 76.3617 151.054 78.2337 151.054C80.0697 151.054 81.2577 152.062 81.3117 153.682H80.1057C80.0697 152.674 79.3677 152.08 78.1977 152.08C76.9737 152.08 76.2897 152.602 76.2897 153.538C76.2897 154.204 76.7577 154.672 77.7117 154.906L79.2057 155.284C80.7177 155.662 81.4017 156.364 81.4017 157.624C81.4017 159.19 80.0697 160.216 78.0897 160.216C76.1277 160.216 74.9037 159.172 74.9037 157.552ZM90.2746 160L87.3946 151.288H88.6726L90.3826 156.544C90.5806 157.12 90.7426 157.714 90.9226 158.416C91.0666 157.714 91.3546 156.832 91.4446 156.544L93.1726 151.288H94.4506L96.1606 156.544C96.3226 157.012 96.5386 157.768 96.7006 158.416C96.8806 157.696 96.9166 157.48 97.2226 156.544L98.9506 151.288H100.247L97.2946 160H96.0886L94.2886 154.528C94.0726 153.88 93.9286 153.34 93.8206 152.818C93.6946 153.286 93.5506 153.808 93.3166 154.528L91.5166 160H90.2746ZM102.41 148.894C101.906 148.894 101.492 148.48 101.492 147.976C101.492 147.472 101.906 147.04 102.41 147.04C102.914 147.04 103.346 147.472 103.346 147.976C103.346 148.48 102.914 148.894 102.41 148.894ZM101.798 160V151.288H103.04V160H101.798ZM107.628 160H106.404V152.332H104.658V151.288H106.404V148.534H107.628V151.288H109.374V152.332H107.628V160ZM112.233 159.982H110.991V146.878H112.233V152.8C112.791 151.756 113.853 151.054 115.311 151.054C117.597 151.054 118.623 152.476 118.623 154.672V160H117.381V154.942C117.381 152.908 116.427 152.188 115.077 152.188C113.205 152.188 112.233 153.574 112.233 155.248V159.982ZM120.487 155.644C120.487 152.98 122.359 151.054 124.915 151.054C127.471 151.054 129.343 152.98 129.343 155.644C129.343 158.29 127.471 160.216 124.915 160.216C122.359 160.216 120.487 158.29 120.487 155.644ZM121.747 155.626C121.747 157.678 123.043 159.1 124.915 159.1C126.769 159.1 128.083 157.678 128.083 155.626C128.083 153.61 126.769 152.17 124.915 152.17C123.043 152.17 121.747 153.61 121.747 155.626ZM137.238 151.288H138.48V160H137.4L137.238 158.524C136.752 159.532 135.546 160.216 134.178 160.216C132.126 160.216 131.01 158.812 131.01 156.688V151.27H132.27V156.292C132.27 158.362 133.188 159.1 134.574 159.1C136.248 159.1 137.238 157.984 137.238 155.914V151.288ZM143.065 160H141.841V152.332H140.095V151.288H141.841V148.534H143.065V151.288H144.811V152.332H143.065V160ZM150.683 157.552H151.871C151.871 158.56 152.627 159.19 153.851 159.19C155.201 159.19 155.993 158.614 155.993 157.678C155.993 156.958 155.633 156.544 154.607 156.292L153.113 155.914C151.601 155.536 150.863 154.744 150.863 153.556C150.863 152.026 152.141 151.054 154.013 151.054C155.849 151.054 157.037 152.062 157.091 153.682H155.885C155.849 152.674 155.147 152.08 153.977 152.08C152.753 152.08 152.069 152.602 152.069 153.538C152.069 154.204 152.537 154.672 153.491 154.906L154.985 155.284C156.497 155.662 157.181 156.364 157.181 157.624C157.181 159.19 155.849 160.216 153.869 160.216C151.907 160.216 150.683 159.172 150.683 157.552ZM159.226 163.798V151.288H160.306L160.432 153.052C161.044 151.702 162.268 151.054 163.726 151.054C166.246 151.054 167.758 152.98 167.758 155.608C167.758 158.236 166.3 160.216 163.726 160.216C162.25 160.216 161.08 159.586 160.468 158.326V163.798H159.226ZM160.486 155.644C160.486 157.642 161.602 159.1 163.51 159.1C165.4 159.1 166.498 157.642 166.498 155.644C166.498 153.628 165.4 152.188 163.51 152.188C161.602 152.188 160.486 153.628 160.486 155.644ZM174.291 151.18V152.296H173.607C172.005 152.296 170.979 153.376 170.979 155.032V160H169.737V151.288H170.907L170.997 152.638C171.339 151.702 172.257 151.09 173.481 151.09C173.751 151.09 173.985 151.108 174.291 151.18ZM179.263 160.216C176.707 160.216 174.997 158.38 174.997 155.644C174.997 152.926 176.688 151.054 179.173 151.054C181.531 151.054 183.133 152.728 183.133 155.194V155.806H176.203C176.293 157.93 177.409 159.154 179.281 159.154C180.703 159.154 181.621 158.542 181.945 157.39H183.133C182.665 159.226 181.315 160.216 179.263 160.216ZM179.173 152.116C177.535 152.116 176.455 153.196 176.239 154.906H181.891C181.891 153.232 180.811 152.116 179.173 152.116ZM187.532 160.216C185.678 160.216 184.58 159.172 184.58 157.642C184.58 156.04 185.804 155.032 187.838 154.87L190.718 154.636V154.348C190.718 152.638 189.692 152.098 188.414 152.098C186.902 152.098 186.002 152.782 186.002 153.952H184.868C184.868 152.188 186.308 151.054 188.45 151.054C190.466 151.054 191.942 152.062 191.942 154.366V160H190.898L190.736 158.47C190.196 159.568 189.008 160.216 187.532 160.216ZM187.82 159.208C189.656 159.208 190.718 157.93 190.718 156.04V155.572L188.144 155.77C186.506 155.914 185.84 156.634 185.84 157.606C185.84 158.668 186.632 159.208 187.82 159.208ZM197.855 160.216C195.317 160.216 193.823 158.272 193.823 155.662C193.823 153.034 195.317 151.054 197.909 151.054C199.349 151.054 200.501 151.684 201.113 152.944V146.878H202.355V160H201.275L201.149 158.218C200.537 159.568 199.313 160.216 197.855 160.216ZM198.071 159.082C199.979 159.082 201.095 157.642 201.095 155.626C201.095 153.628 199.979 152.17 198.071 152.17C196.181 152.17 195.083 153.628 195.083 155.626C195.083 157.642 196.181 159.082 198.071 159.082ZM204.208 157.552H205.396C205.396 158.56 206.152 159.19 207.376 159.19C208.726 159.19 209.518 158.614 209.518 157.678C209.518 156.958 209.158 156.544 208.132 156.292L206.638 155.914C205.126 155.536 204.388 154.744 204.388 153.556C204.388 152.026 205.666 151.054 207.538 151.054C209.374 151.054 210.562 152.062 210.616 153.682H209.41C209.374 152.674 208.672 152.08 207.502 152.08C206.278 152.08 205.594 152.602 205.594 153.538C205.594 154.204 206.062 154.672 207.016 154.906L208.51 155.284C210.022 155.662 210.706 156.364 210.706 157.624C210.706 159.19 209.374 160.216 207.394 160.216C205.432 160.216 204.208 159.172 204.208 157.552ZM213.993 159.982H212.751V146.878H213.993V152.8C214.551 151.756 215.613 151.054 217.071 151.054C219.357 151.054 220.383 152.476 220.383 154.672V160H219.141V154.942C219.141 152.908 218.187 152.188 216.837 152.188C214.965 152.188 213.993 153.574 213.993 155.248V159.982ZM226.513 160.216C223.957 160.216 222.247 158.38 222.247 155.644C222.247 152.926 223.938 151.054 226.423 151.054C228.781 151.054 230.383 152.728 230.383 155.194V155.806H223.453C223.543 157.93 224.659 159.154 226.531 159.154C227.953 159.154 228.871 158.542 229.195 157.39H230.383C229.915 159.226 228.565 160.216 226.513 160.216ZM226.423 152.116C224.785 152.116 223.705 153.196 223.489 154.906H229.141C229.141 153.232 228.061 152.116 226.423 152.116ZM236.022 160.216C233.466 160.216 231.756 158.38 231.756 155.644C231.756 152.926 233.448 151.054 235.932 151.054C238.29 151.054 239.892 152.728 239.892 155.194V155.806H232.962C233.052 157.93 234.168 159.154 236.04 159.154C237.462 159.154 238.38 158.542 238.704 157.39H239.892C239.424 159.226 238.074 160.216 236.022 160.216ZM235.932 152.116C234.294 152.116 233.214 153.196 232.998 154.906H238.65C238.65 153.232 237.57 152.116 235.932 152.116ZM243.788 160H242.564V152.332H240.818V151.288H242.564V148.534H243.788V151.288H245.534V152.332H243.788V160ZM246.413 157.552H247.601C247.601 158.56 248.357 159.19 249.581 159.19C250.931 159.19 251.723 158.614 251.723 157.678C251.723 156.958 251.363 156.544 250.337 156.292L248.843 155.914C247.331 155.536 246.593 154.744 246.593 153.556C246.593 152.026 247.871 151.054 249.743 151.054C251.579 151.054 252.767 152.062 252.821 153.682H251.615C251.579 152.674 250.877 152.08 249.707 152.08C248.483 152.08 247.799 152.602 247.799 153.538C247.799 154.204 248.267 154.672 249.221 154.906L250.715 155.284C252.227 155.662 252.911 156.364 252.911 157.624C252.911 159.19 251.579 160.216 249.599 160.216C247.637 160.216 246.413 159.172 246.413 157.552ZM255.878 160.198C255.266 160.198 254.744 159.694 254.744 159.1C254.744 158.488 255.266 157.966 255.878 157.966C256.49 157.966 257.012 158.488 257.012 159.1C257.012 159.694 256.49 160.198 255.878 160.198Z" fill="#1D1D21"/>
    <rect x="23.257" y="291" width="269" height="95" rx="10" fill="white"/>
    <rect width="153" height="32" transform="translate(39.257 307)" fill="white"/>
    <mask id="mask0_71_13232" style="mask-type:alpha" maskUnits="userSpaceOnUse" x="39" y="307" width="33" height="32">
        <circle cx="55.257" cy="323" r="16" fill="#D9D9D9"/>
    </mask>
    <g mask="url(#mask0_71_13232)">
        <rect x="37.257" y="307" width="35" height="35" fill="#CFC3A7"/>
    </g>
    <rect x="79.257" y="311.5" width="113" height="23" rx="10" fill="#EFEFEF"/>
    <rect x="39.257" y="347" width="229" height="23" rx="10" fill="#EFEFEF"/>
    <rect x="23.257" y="187" width="269" height="95" rx="10" fill="white"/>
    <mask id="mask1_71_13232" style="mask-type:alpha" maskUnits="userSpaceOnUse" x="39" y="203" width="33" height="32">
        <ellipse cx="55.2569" cy="219" rx="16" ry="16" fill="#D9D9D9"/>
    </mask>
    <g mask="url(#mask1_71_13232)">
        <rect x="37.9236" y="203" width="33.3333" height="54.6667" fill="#D9D9D9"/>
    </g>
    <rect x="79.257" y="207.5" width="113" height="23" rx="11.5" fill="#EFEFEF"/>
    <rect x="39.257" y="243" width="229" height="23" rx="11.5" fill="#EFEFEF"/>
    <rect x="23.257" y="317" width="269" height="72" fill="url(#paint0_linear_71_13232)"/>
    <defs>
        <linearGradient id="paint0_linear_71_13232" x1="157.757" y1="317" x2="157.757" y2="389" gradientUnits="userSpaceOnUse">
            <stop offset="0.628125" stop-color="white" stop-opacity="0"/>
            <stop offset="1" stop-color="#F4F4F4"/>
        </linearGradient>
    </defs>
</svg>
