<svg width="317" height="362" viewBox="0 0 317 362" fill="none" xmlns="http://www.w3.org/2000/svg">
    <rect width="316.743" height="362" rx="40" fill="#101010"/>
    <path d="M25.7216 52V34.5455H28.8835V49.3494H36.571V52H25.7216ZM44.9744 52.2557C43.6619 52.2557 42.5284 51.983 41.5739 51.4375C40.625 50.8864 39.8949 50.108 39.3835 49.1023C38.8722 48.0909 38.6165 46.9006 38.6165 45.5312C38.6165 44.1847 38.8722 43.0028 39.3835 41.9858C39.9006 40.9631 40.6222 40.1676 41.5483 39.5994C42.4744 39.0256 43.5625 38.7386 44.8125 38.7386C45.6193 38.7386 46.3807 38.8693 47.0966 39.1307C47.8182 39.3864 48.4545 39.7841 49.0057 40.3239C49.5625 40.8636 50 41.5511 50.3182 42.3864C50.6364 43.2159 50.7955 44.2045 50.7955 45.3523V46.2983H40.0653V44.2188H47.8381C47.8324 43.6278 47.7045 43.1023 47.4545 42.642C47.2045 42.1761 46.8551 41.8097 46.4062 41.5426C45.9631 41.2756 45.446 41.142 44.8551 41.142C44.2244 41.142 43.6705 41.2955 43.1932 41.6023C42.7159 41.9034 42.3438 42.3011 42.0767 42.7955C41.8153 43.2841 41.6818 43.821 41.6761 44.4062V46.2216C41.6761 46.983 41.8153 47.6364 42.0938 48.1818C42.3722 48.7216 42.7614 49.1364 43.2614 49.4261C43.7614 49.7102 44.3466 49.8523 45.017 49.8523C45.4659 49.8523 45.8722 49.7898 46.2358 49.6648C46.5994 49.5341 46.9148 49.3438 47.1818 49.0938C47.4489 48.8438 47.6506 48.5341 47.7869 48.1648L50.6676 48.4886C50.4858 49.25 50.1392 49.9148 49.6278 50.483C49.1222 51.0455 48.4744 51.483 47.6847 51.7955C46.8949 52.1023 45.9915 52.2557 44.9744 52.2557ZM57.1726 52.2642C56.343 52.2642 55.5959 52.1165 54.9311 51.821C54.272 51.5199 53.7493 51.0767 53.3629 50.4915C52.9822 49.9062 52.7919 49.1847 52.7919 48.3267C52.7919 47.5881 52.9283 46.9773 53.201 46.4943C53.4737 46.0114 53.8459 45.625 54.3175 45.3352C54.7891 45.0455 55.3203 44.8267 55.9112 44.679C56.5078 44.5256 57.1243 44.4148 57.7607 44.3466C58.5277 44.267 59.1499 44.196 59.6271 44.1335C60.1044 44.0653 60.451 43.9631 60.6669 43.8267C60.8885 43.6847 60.9993 43.4659 60.9993 43.1705V43.1193C60.9993 42.4773 60.8089 41.9801 60.4283 41.6278C60.0476 41.2756 59.4993 41.0994 58.7834 41.0994C58.0277 41.0994 57.4283 41.2642 56.9851 41.5938C56.5476 41.9233 56.2521 42.3125 56.0987 42.7614L53.218 42.3523C53.4453 41.5568 53.8203 40.892 54.343 40.358C54.8658 39.8182 55.505 39.4148 56.2607 39.1477C57.0163 38.875 57.8516 38.7386 58.7663 38.7386C59.397 38.7386 60.0249 38.8125 60.6499 38.9602C61.2749 39.108 61.8459 39.3523 62.3629 39.6932C62.88 40.0284 63.2947 40.4858 63.6072 41.0653C63.9254 41.6449 64.0845 42.3693 64.0845 43.2386V52H61.1186V50.2017H61.0163C60.8288 50.5653 60.5646 50.9062 60.2237 51.2244C59.8885 51.5369 59.4652 51.7898 58.9538 51.983C58.4482 52.1705 57.8544 52.2642 57.1726 52.2642ZM57.9737 49.9972C58.593 49.9972 59.13 49.875 59.5845 49.6307C60.0391 49.3807 60.3885 49.0511 60.6328 48.642C60.8828 48.233 61.0078 47.7869 61.0078 47.304V45.7614C60.9112 45.8409 60.7464 45.9148 60.5135 45.983C60.2862 46.0511 60.0305 46.1108 59.7464 46.1619C59.4624 46.2131 59.1811 46.2585 58.9027 46.2983C58.6243 46.3381 58.3828 46.3722 58.1783 46.4006C57.718 46.4631 57.3061 46.5653 56.9425 46.7074C56.5788 46.8494 56.2919 47.0483 56.0817 47.304C55.8714 47.554 55.7663 47.8778 55.7663 48.2756C55.7663 48.8438 55.9737 49.2727 56.3885 49.5625C56.8033 49.8523 57.3317 49.9972 57.9737 49.9972ZM77.5334 42.3693L74.7209 42.6761C74.6413 42.392 74.5021 42.125 74.3033 41.875C74.1101 41.625 73.8487 41.4233 73.5192 41.2699C73.1896 41.1165 72.7862 41.0398 72.3089 41.0398C71.6669 41.0398 71.1271 41.179 70.6896 41.4574C70.2578 41.7358 70.0447 42.0966 70.0504 42.5398C70.0447 42.9205 70.1839 43.2301 70.468 43.4688C70.7578 43.7074 71.2351 43.9034 71.8999 44.0568L74.1328 44.5341C75.3714 44.8011 76.2919 45.2244 76.8942 45.804C77.5021 46.3835 77.8089 47.142 77.8146 48.0795C77.8089 48.9034 77.5675 49.6307 77.0902 50.2614C76.6186 50.8864 75.9624 51.375 75.1214 51.7273C74.2805 52.0795 73.3146 52.2557 72.2237 52.2557C70.6214 52.2557 69.3317 51.9205 68.3544 51.25C67.3771 50.5739 66.7947 49.6335 66.6072 48.429L69.6158 48.1392C69.7521 48.7301 70.0419 49.1761 70.4851 49.4773C70.9283 49.7784 71.505 49.929 72.2152 49.929C72.9482 49.929 73.5362 49.7784 73.9794 49.4773C74.4283 49.1761 74.6527 48.804 74.6527 48.3608C74.6527 47.9858 74.5078 47.6761 74.218 47.4318C73.9339 47.1875 73.4908 47 72.8885 46.8693L70.6555 46.4006C69.3999 46.1392 68.4709 45.6989 67.8686 45.0795C67.2663 44.4545 66.968 43.6648 66.9737 42.7102C66.968 41.9034 67.1868 41.2045 67.63 40.6136C68.0788 40.017 68.701 39.5568 69.4964 39.233C70.2976 38.9034 71.2209 38.7386 72.2663 38.7386C73.8004 38.7386 75.0078 39.0653 75.8885 39.7188C76.7749 40.3722 77.3232 41.2557 77.5334 42.3693ZM86.1541 52.2557C84.8416 52.2557 83.7081 51.983 82.7536 51.4375C81.8047 50.8864 81.0746 50.108 80.5632 49.1023C80.0518 48.0909 79.7962 46.9006 79.7962 45.5312C79.7962 44.1847 80.0518 43.0028 80.5632 41.9858C81.0803 40.9631 81.8018 40.1676 82.728 39.5994C83.6541 39.0256 84.7422 38.7386 85.9922 38.7386C86.799 38.7386 87.5604 38.8693 88.2763 39.1307C88.9979 39.3864 89.6342 39.7841 90.1854 40.3239C90.7422 40.8636 91.1797 41.5511 91.4979 42.3864C91.8161 43.2159 91.9751 44.2045 91.9751 45.3523V46.2983H81.245V44.2188H89.0178C89.0121 43.6278 88.8842 43.1023 88.6342 42.642C88.3842 42.1761 88.0348 41.8097 87.5859 41.5426C87.1428 41.2756 86.6257 41.142 86.0348 41.142C85.4041 41.142 84.8501 41.2955 84.3729 41.6023C83.8956 41.9034 83.5234 42.3011 83.2564 42.7955C82.995 43.2841 82.8615 43.821 82.8558 44.4062V46.2216C82.8558 46.983 82.995 47.6364 83.2734 48.1818C83.5518 48.7216 83.9411 49.1364 84.4411 49.4261C84.9411 49.7102 85.5263 49.8523 86.1967 49.8523C86.6456 49.8523 87.0518 49.7898 87.4155 49.6648C87.7791 49.5341 88.0945 49.3438 88.3615 49.0938C88.6286 48.8438 88.8303 48.5341 88.9666 48.1648L91.8473 48.4886C91.6655 49.25 91.3189 49.9148 90.8075 50.483C90.3018 51.0455 89.6541 51.483 88.8643 51.7955C88.0746 52.1023 87.1712 52.2557 86.1541 52.2557ZM100.675 34.5455H104.544L109.726 47.1932H109.93L115.112 34.5455H118.982V52H115.947V40.0085H115.786L110.962 51.9489H108.695L103.871 39.983H103.709V52H100.675V34.5455ZM126.055 52.2642C125.226 52.2642 124.479 52.1165 123.814 51.821C123.155 51.5199 122.632 51.0767 122.246 50.4915C121.865 49.9062 121.675 49.1847 121.675 48.3267C121.675 47.5881 121.811 46.9773 122.084 46.4943C122.357 46.0114 122.729 45.625 123.2 45.3352C123.672 45.0455 124.203 44.8267 124.794 44.679C125.391 44.5256 126.007 44.4148 126.643 44.3466C127.411 44.267 128.033 44.196 128.51 44.1335C128.987 44.0653 129.334 43.9631 129.55 43.8267C129.771 43.6847 129.882 43.4659 129.882 43.1705V43.1193C129.882 42.4773 129.692 41.9801 129.311 41.6278C128.93 41.2756 128.382 41.0994 127.666 41.0994C126.911 41.0994 126.311 41.2642 125.868 41.5938C125.43 41.9233 125.135 42.3125 124.982 42.7614L122.101 42.3523C122.328 41.5568 122.703 40.892 123.226 40.358C123.749 39.8182 124.388 39.4148 125.143 39.1477C125.899 38.875 126.734 38.7386 127.649 38.7386C128.28 38.7386 128.908 38.8125 129.533 38.9602C130.158 39.108 130.729 39.3523 131.246 39.6932C131.763 40.0284 132.178 40.4858 132.49 41.0653C132.808 41.6449 132.967 42.3693 132.967 43.2386V52H130.001V50.2017H129.899C129.712 50.5653 129.447 50.9062 129.107 51.2244C128.771 51.5369 128.348 51.7898 127.837 51.983C127.331 52.1705 126.737 52.2642 126.055 52.2642ZM126.857 49.9972C127.476 49.9972 128.013 49.875 128.467 49.6307C128.922 49.3807 129.271 49.0511 129.516 48.642C129.766 48.233 129.891 47.7869 129.891 47.304V45.7614C129.794 45.8409 129.629 45.9148 129.396 45.983C129.169 46.0511 128.913 46.1108 128.629 46.1619C128.345 46.2131 128.064 46.2585 127.786 46.2983C127.507 46.3381 127.266 46.3722 127.061 46.4006C126.601 46.4631 126.189 46.5653 125.825 46.7074C125.462 46.8494 125.175 47.0483 124.964 47.304C124.754 47.554 124.649 47.8778 124.649 48.2756C124.649 48.8438 124.857 49.2727 125.271 49.5625C125.686 49.8523 126.214 49.9972 126.857 49.9972ZM139.155 44.3295V52H136.07V38.9091H139.018V41.1335H139.172C139.473 40.4006 139.953 39.8182 140.612 39.3864C141.277 38.9545 142.098 38.7386 143.075 38.7386C143.979 38.7386 144.766 38.9318 145.436 39.3182C146.112 39.7045 146.635 40.2642 147.004 40.9972C147.379 41.7301 147.564 42.6193 147.558 43.6648V52H144.473V44.142C144.473 43.267 144.246 42.5824 143.791 42.0881C143.342 41.5937 142.72 41.3466 141.925 41.3466C141.385 41.3466 140.905 41.4659 140.484 41.7045C140.07 41.9375 139.743 42.2756 139.504 42.7188C139.271 43.1619 139.155 43.6989 139.155 44.3295ZM154.462 52.2642C153.632 52.2642 152.885 52.1165 152.22 51.821C151.561 51.5199 151.038 51.0767 150.652 50.4915C150.271 49.9062 150.081 49.1847 150.081 48.3267C150.081 47.5881 150.217 46.9773 150.49 46.4943C150.763 46.0114 151.135 45.625 151.607 45.3352C152.078 45.0455 152.609 44.8267 153.2 44.679C153.797 44.5256 154.413 44.4148 155.05 44.3466C155.817 44.267 156.439 44.196 156.916 44.1335C157.393 44.0653 157.74 43.9631 157.956 43.8267C158.178 43.6847 158.288 43.4659 158.288 43.1705V43.1193C158.288 42.4773 158.098 41.9801 157.717 41.6278C157.337 41.2756 156.788 41.0994 156.072 41.0994C155.317 41.0994 154.717 41.2642 154.274 41.5938C153.837 41.9233 153.541 42.3125 153.388 42.7614L150.507 42.3523C150.734 41.5568 151.109 40.892 151.632 40.358C152.155 39.8182 152.794 39.4148 153.55 39.1477C154.305 38.875 155.141 38.7386 156.055 38.7386C156.686 38.7386 157.314 38.8125 157.939 38.9602C158.564 39.108 159.135 39.3523 159.652 39.6932C160.169 40.0284 160.584 40.4858 160.896 41.0653C161.214 41.6449 161.374 42.3693 161.374 43.2386V52H158.408V50.2017H158.305C158.118 50.5653 157.854 50.9062 157.513 51.2244C157.178 51.5369 156.754 51.7898 156.243 51.983C155.737 52.1705 155.143 52.2642 154.462 52.2642ZM155.263 49.9972C155.882 49.9972 156.419 49.875 156.874 49.6307C157.328 49.3807 157.678 49.0511 157.922 48.642C158.172 48.233 158.297 47.7869 158.297 47.304V45.7614C158.2 45.8409 158.036 45.9148 157.803 45.983C157.575 46.0511 157.32 46.1108 157.036 46.1619C156.751 46.2131 156.47 46.2585 156.192 46.2983C155.913 46.3381 155.672 46.3722 155.467 46.4006C155.007 46.4631 154.595 46.5653 154.232 46.7074C153.868 46.8494 153.581 47.0483 153.371 47.304C153.161 47.554 153.055 47.8778 153.055 48.2756C153.055 48.8438 153.263 49.2727 153.678 49.5625C154.092 49.8523 154.621 49.9972 155.263 49.9972ZM170.169 57.1818C169.061 57.1818 168.109 57.0313 167.314 56.7301C166.518 56.4347 165.879 56.0369 165.396 55.5369C164.913 55.0369 164.578 54.483 164.391 53.875L167.169 53.2017C167.294 53.4574 167.476 53.7102 167.714 53.9602C167.953 54.2159 168.274 54.4261 168.678 54.5909C169.087 54.7614 169.601 54.8466 170.22 54.8466C171.095 54.8466 171.82 54.6335 172.393 54.2074C172.967 53.7869 173.254 53.0938 173.254 52.1278V49.6477H173.101C172.942 49.9659 172.709 50.2926 172.402 50.6278C172.101 50.9631 171.7 51.2443 171.2 51.4716C170.706 51.6989 170.084 51.8125 169.334 51.8125C168.328 51.8125 167.416 51.5767 166.598 51.1051C165.786 50.6278 165.138 49.9176 164.655 48.9744C164.178 48.0256 163.939 46.8381 163.939 45.4119C163.939 43.9744 164.178 42.7614 164.655 41.7727C165.138 40.7784 165.788 40.0256 166.607 39.5142C167.425 38.9972 168.337 38.7386 169.342 38.7386C170.109 38.7386 170.74 38.8693 171.234 39.1307C171.734 39.3864 172.132 39.696 172.428 40.0597C172.723 40.4176 172.947 40.7557 173.101 41.0739H173.271V38.9091H176.314V52.2131C176.314 53.3324 176.047 54.2585 175.513 54.9915C174.979 55.7244 174.249 56.2727 173.322 56.6364C172.396 57 171.345 57.1818 170.169 57.1818ZM170.195 49.392C170.848 49.392 171.405 49.233 171.865 48.9148C172.325 48.5966 172.675 48.1392 172.913 47.5426C173.152 46.946 173.271 46.2301 173.271 45.3949C173.271 44.571 173.152 43.8494 172.913 43.2301C172.68 42.6108 172.334 42.1307 171.874 41.7898C171.419 41.4432 170.859 41.2699 170.195 41.2699C169.507 41.2699 168.933 41.4489 168.473 41.8068C168.013 42.1648 167.666 42.6562 167.433 43.2812C167.2 43.9006 167.084 44.6051 167.084 45.3949C167.084 46.196 167.2 46.8977 167.433 47.5C167.672 48.0966 168.021 48.5625 168.482 48.8977C168.947 49.2273 169.518 49.392 170.195 49.392ZM185.271 52.2557C183.959 52.2557 182.825 51.983 181.871 51.4375C180.922 50.8864 180.192 50.108 179.68 49.1023C179.169 48.0909 178.913 46.9006 178.913 45.5312C178.913 44.1847 179.169 43.0028 179.68 41.9858C180.197 40.9631 180.919 40.1676 181.845 39.5994C182.771 39.0256 183.859 38.7386 185.109 38.7386C185.916 38.7386 186.678 38.8693 187.393 39.1307C188.115 39.3864 188.751 39.7841 189.303 40.3239C189.859 40.8636 190.297 41.5511 190.615 42.3864C190.933 43.2159 191.092 44.2045 191.092 45.3523V46.2983H180.362V44.2188H188.135C188.129 43.6278 188.001 43.1023 187.751 42.642C187.501 42.1761 187.152 41.8097 186.703 41.5426C186.26 41.2756 185.743 41.142 185.152 41.142C184.521 41.142 183.967 41.2955 183.49 41.6023C183.013 41.9034 182.641 42.3011 182.374 42.7955C182.112 43.2841 181.979 43.821 181.973 44.4062V46.2216C181.973 46.983 182.112 47.6364 182.391 48.1818C182.669 48.7216 183.058 49.1364 183.558 49.4261C184.058 49.7102 184.643 49.8523 185.314 49.8523C185.763 49.8523 186.169 49.7898 186.533 49.6648C186.896 49.5341 187.212 49.3438 187.479 49.0938C187.746 48.8438 187.947 48.5341 188.084 48.1648L190.964 48.4886C190.783 49.25 190.436 49.9148 189.925 50.483C189.419 51.0455 188.771 51.483 187.982 51.7955C187.192 52.1023 186.288 52.2557 185.271 52.2557ZM193.702 52V38.9091H196.651V41.1335H196.805C197.077 40.3835 197.529 39.7983 198.16 39.3778C198.79 38.9517 199.543 38.7386 200.418 38.7386C201.305 38.7386 202.052 38.9545 202.66 39.3864C203.273 39.8125 203.705 40.3949 203.955 41.1335H204.092C204.381 40.4062 204.87 39.8267 205.558 39.3949C206.251 38.9574 207.072 38.7386 208.021 38.7386C209.225 38.7386 210.208 39.1193 210.969 39.8807C211.731 40.642 212.112 41.7528 212.112 43.2131V52H209.018V43.6903C209.018 42.8778 208.802 42.2841 208.37 41.9091C207.938 41.5284 207.41 41.3381 206.785 41.3381C206.04 41.3381 205.458 41.571 205.038 42.0369C204.623 42.4972 204.415 43.0966 204.415 43.8352V52H201.39V43.5625C201.39 42.8864 201.185 42.3466 200.776 41.9432C200.373 41.5398 199.844 41.3381 199.191 41.3381C198.748 41.3381 198.344 41.4517 197.981 41.679C197.617 41.9006 197.327 42.2159 197.112 42.625C196.896 43.0284 196.788 43.5 196.788 44.0398V52H193.702ZM221.037 52.2557C219.724 52.2557 218.591 51.983 217.636 51.4375C216.688 50.8864 215.957 50.108 215.446 49.1023C214.935 48.0909 214.679 46.9006 214.679 45.5312C214.679 44.1847 214.935 43.0028 215.446 41.9858C215.963 40.9631 216.685 40.1676 217.611 39.5994C218.537 39.0256 219.625 38.7386 220.875 38.7386C221.682 38.7386 222.443 38.8693 223.159 39.1307C223.881 39.3864 224.517 39.7841 225.068 40.3239C225.625 40.8636 226.063 41.5511 226.381 42.3864C226.699 43.2159 226.858 44.2045 226.858 45.3523V46.2983H216.128V44.2188H223.901C223.895 43.6278 223.767 43.1023 223.517 42.642C223.267 42.1761 222.918 41.8097 222.469 41.5426C222.026 41.2756 221.509 41.142 220.918 41.142C220.287 41.142 219.733 41.2955 219.256 41.6023C218.778 41.9034 218.406 42.3011 218.139 42.7955C217.878 43.2841 217.744 43.821 217.739 44.4062V46.2216C217.739 46.983 217.878 47.6364 218.156 48.1818C218.435 48.7216 218.824 49.1364 219.324 49.4261C219.824 49.7102 220.409 49.8523 221.08 49.8523C221.528 49.8523 221.935 49.7898 222.298 49.6648C222.662 49.5341 222.977 49.3438 223.244 49.0938C223.511 48.8438 223.713 48.5341 223.849 48.1648L226.73 48.4886C226.548 49.25 226.202 49.9148 225.69 50.483C225.185 51.0455 224.537 51.483 223.747 51.7955C222.957 52.1023 222.054 52.2557 221.037 52.2557ZM232.553 44.3295V52H229.468V38.9091H232.417V41.1335H232.57C232.871 40.4006 233.352 39.8182 234.011 39.3864C234.675 38.9545 235.496 38.7386 236.474 38.7386C237.377 38.7386 238.164 38.9318 238.835 39.3182C239.511 39.7045 240.033 40.2642 240.403 40.9972C240.778 41.7301 240.962 42.6193 240.957 43.6648V52H237.871V44.142C237.871 43.267 237.644 42.5824 237.19 42.0881C236.741 41.5937 236.119 41.3466 235.323 41.3466C234.783 41.3466 234.303 41.4659 233.883 41.7045C233.468 41.9375 233.141 42.2756 232.903 42.7188C232.67 43.1619 232.553 43.6989 232.553 44.3295ZM250.63 38.9091V41.2955H243.104V38.9091H250.63ZM244.962 35.7727H248.048V48.0625C248.048 48.4773 248.11 48.7955 248.235 49.017C248.366 49.233 248.536 49.3807 248.746 49.4602C248.957 49.5398 249.19 49.5795 249.445 49.5795C249.638 49.5795 249.815 49.5653 249.974 49.5369C250.138 49.5085 250.263 49.483 250.349 49.4602L250.869 51.8722C250.704 51.929 250.468 51.9915 250.161 52.0597C249.86 52.1278 249.491 52.1676 249.053 52.179C248.281 52.2017 247.585 52.0852 246.965 51.8295C246.346 51.5682 245.854 51.1648 245.491 50.6193C245.133 50.0739 244.957 49.392 244.962 48.5739V35.7727Z" fill="white"/>
    <path d="M25.566 83H24.252L28.986 70.112H30.588L35.376 83H34.026L32.766 79.58H26.826L25.566 83ZM29.616 71.93L27.222 78.446H32.352L29.94 71.93C29.886 71.75 29.796 71.534 29.778 71.408C29.76 71.516 29.688 71.75 29.616 71.93ZM42.8594 74.288H44.1014V83H43.0214L42.8594 81.524C42.3734 82.532 41.1674 83.216 39.7994 83.216C37.7474 83.216 36.6314 81.812 36.6314 79.688V74.27H37.8914V79.292C37.8914 81.362 38.8094 82.1 40.1954 82.1C41.8694 82.1 42.8594 80.984 42.8594 78.914V74.288ZM48.6866 83H47.4626V75.332H45.7166V74.288H47.4626V71.534H48.6866V74.288H50.4326V75.332H48.6866V83ZM51.35 78.644C51.35 75.98 53.222 74.054 55.778 74.054C58.334 74.054 60.206 75.98 60.206 78.644C60.206 81.29 58.334 83.216 55.778 83.216C53.222 83.216 51.35 81.29 51.35 78.644ZM52.61 78.626C52.61 80.678 53.906 82.1 55.778 82.1C57.632 82.1 58.946 80.678 58.946 78.626C58.946 76.61 57.632 75.17 55.778 75.17C53.906 75.17 52.61 76.61 52.61 78.626ZM63.4345 83H62.1925V74.288H63.2725L63.4165 75.53C63.8485 74.612 64.8205 74.054 66.0445 74.054C67.4125 74.054 68.4385 74.774 68.8525 75.908C69.2485 74.774 70.3105 74.054 71.7145 74.054C73.6045 74.054 74.8465 75.278 74.8465 77.294V83H73.6405V77.546C73.6405 76.052 72.8125 75.17 71.4805 75.17C70.0225 75.17 69.1585 76.268 69.1585 77.618V83H67.9345V77.528C67.9345 76.052 67.0885 75.188 65.7745 75.188C64.3165 75.188 63.4345 76.268 63.4345 77.6V83ZM79.8468 83.216C77.9928 83.216 76.8948 82.172 76.8948 80.642C76.8948 79.04 78.1188 78.032 80.1528 77.87L83.0328 77.636V77.348C83.0328 75.638 82.0068 75.098 80.7288 75.098C79.2168 75.098 78.3168 75.782 78.3168 76.952H77.1828C77.1828 75.188 78.6228 74.054 80.7648 74.054C82.7808 74.054 84.2568 75.062 84.2568 77.366V83H83.2128L83.0508 81.47C82.5108 82.568 81.3228 83.216 79.8468 83.216ZM80.1348 82.208C81.9708 82.208 83.0328 80.93 83.0328 79.04V78.572L80.4588 78.77C78.8208 78.914 78.1548 79.634 78.1548 80.606C78.1548 81.668 78.9468 82.208 80.1348 82.208ZM88.5889 83H87.3649V75.332H85.6189V74.288H87.3649V71.534H88.5889V74.288H90.3349V75.332H88.5889V83ZM95.5184 83.216C92.9624 83.216 91.2524 81.38 91.2524 78.644C91.2524 75.926 92.9444 74.054 95.4284 74.054C97.7864 74.054 99.3884 75.728 99.3884 78.194V78.806H92.4584C92.5484 80.93 93.6644 82.154 95.5364 82.154C96.9584 82.154 97.8764 81.542 98.2004 80.39H99.3884C98.9204 82.226 97.5704 83.216 95.5184 83.216ZM95.4284 75.116C93.7904 75.116 92.7104 76.196 92.4944 77.906H98.1464C98.1464 76.232 97.0664 75.116 95.4284 75.116ZM104.794 83.216C102.256 83.216 100.762 81.272 100.762 78.662C100.762 76.034 102.256 74.054 104.848 74.054C106.288 74.054 107.44 74.684 108.052 75.944V69.878H109.294V83H108.214L108.088 81.218C107.476 82.568 106.252 83.216 104.794 83.216ZM105.01 82.082C106.918 82.082 108.034 80.642 108.034 78.626C108.034 76.628 106.918 75.17 105.01 75.17C103.12 75.17 102.022 76.628 102.022 78.626C102.022 80.642 103.12 82.082 105.01 82.082ZM124.87 83H117.148V70.112H124.852V71.3H118.444V75.944H124.258V77.114H118.444V81.812H124.87V83ZM127.862 71.894C127.34 71.894 126.926 71.48 126.926 70.976C126.926 70.472 127.34 70.04 127.862 70.04C128.348 70.04 128.78 70.472 128.78 70.976C128.78 71.48 128.348 71.894 127.862 71.894ZM124.91 86.816L125.144 85.682C125.504 85.772 125.72 85.808 125.99 85.808C126.854 85.808 127.232 85.304 127.232 84.242V74.288H128.474V84.314C128.474 85.97 127.61 86.978 126.08 86.978C125.612 86.978 125.36 86.942 124.91 86.816ZM133.566 83.216C131.712 83.216 130.614 82.172 130.614 80.642C130.614 79.04 131.838 78.032 133.872 77.87L136.752 77.636V77.348C136.752 75.638 135.726 75.098 134.448 75.098C132.936 75.098 132.036 75.782 132.036 76.952H130.902C130.902 75.188 132.342 74.054 134.484 74.054C136.5 74.054 137.976 75.062 137.976 77.366V83H136.932L136.77 81.47C136.23 82.568 135.042 83.216 133.566 83.216ZM133.854 82.208C135.69 82.208 136.752 80.93 136.752 79.04V78.572L134.178 78.77C132.54 78.914 131.874 79.634 131.874 80.606C131.874 81.668 132.666 82.208 133.854 82.208ZM145.022 74.18V75.296H144.338C142.736 75.296 141.71 76.376 141.71 78.032V83H140.468V74.288H141.638L141.728 75.638C142.07 74.702 142.988 74.09 144.212 74.09C144.482 74.09 144.716 74.108 145.022 74.18ZM147.285 71.894C146.781 71.894 146.367 71.48 146.367 70.976C146.367 70.472 146.781 70.04 147.285 70.04C147.789 70.04 148.221 70.472 148.221 70.976C148.221 71.48 147.789 71.894 147.285 71.894ZM146.673 83V74.288H147.915V83H146.673ZM150.361 78.824V77.708H155.581V78.824H150.361ZM157.416 78.662C157.416 75.926 159.09 74.054 161.628 74.054C163.644 74.054 165.12 75.224 165.462 77.024H164.22C163.896 75.818 162.852 75.152 161.646 75.152C159.882 75.152 158.64 76.502 158.64 78.644C158.64 80.714 159.792 82.1 161.556 82.1C162.852 82.1 163.896 81.38 164.238 80.264H165.498C165.084 82.046 163.536 83.216 161.556 83.216C159.09 83.216 157.416 81.398 157.416 78.662ZM166.768 78.644C166.768 75.98 168.64 74.054 171.196 74.054C173.752 74.054 175.624 75.98 175.624 78.644C175.624 81.29 173.752 83.216 171.196 83.216C168.64 83.216 166.768 81.29 166.768 78.644ZM168.028 78.626C168.028 80.678 169.324 82.1 171.196 82.1C173.05 82.1 174.364 80.678 174.364 78.626C174.364 76.61 173.05 75.17 171.196 75.17C169.324 75.17 168.028 76.61 168.028 78.626ZM178.852 83H177.61V74.288H178.69L178.834 75.53C179.266 74.612 180.238 74.054 181.462 74.054C182.83 74.054 183.856 74.774 184.27 75.908C184.666 74.774 185.728 74.054 187.132 74.054C189.022 74.054 190.264 75.278 190.264 77.294V83H189.058V77.546C189.058 76.052 188.23 75.17 186.898 75.17C185.44 75.17 184.576 76.268 184.576 77.618V83H183.352V77.528C183.352 76.052 182.506 75.188 181.192 75.188C179.734 75.188 178.852 76.268 178.852 77.6V83ZM192.763 86.798V74.288H193.843L193.969 76.052C194.581 74.702 195.805 74.054 197.263 74.054C199.783 74.054 201.295 75.98 201.295 78.608C201.295 81.236 199.837 83.216 197.263 83.216C195.787 83.216 194.617 82.586 194.005 81.326V86.798H192.763ZM194.023 78.644C194.023 80.642 195.139 82.1 197.047 82.1C198.937 82.1 200.035 80.642 200.035 78.644C200.035 76.628 198.937 75.188 197.047 75.188C195.139 75.188 194.023 76.628 194.023 78.644ZM204.571 83H203.329V69.878H204.571V83ZM207.824 71.894C207.32 71.894 206.906 71.48 206.906 70.976C206.906 70.472 207.32 70.04 207.824 70.04C208.328 70.04 208.76 70.472 208.76 70.976C208.76 71.48 208.328 71.894 207.824 71.894ZM207.212 83V74.288H208.454V83H207.212ZM213.546 83.216C211.692 83.216 210.594 82.172 210.594 80.642C210.594 79.04 211.818 78.032 213.852 77.87L216.732 77.636V77.348C216.732 75.638 215.706 75.098 214.428 75.098C212.916 75.098 212.016 75.782 212.016 76.952H210.882C210.882 75.188 212.322 74.054 214.464 74.054C216.48 74.054 217.956 75.062 217.956 77.366V83H216.912L216.75 81.47C216.21 82.568 215.022 83.216 213.546 83.216ZM213.834 82.208C215.67 82.208 216.732 80.93 216.732 79.04V78.572L214.158 78.77C212.52 78.914 211.854 79.634 211.854 80.606C211.854 81.668 212.646 82.208 213.834 82.208ZM221.69 83H220.448V74.288H221.528L221.708 75.8C222.284 74.684 223.436 74.054 224.696 74.054C227.09 74.054 228.08 75.476 228.08 77.672V83H226.838V77.942C226.838 75.908 225.92 75.188 224.48 75.188C222.698 75.188 221.69 76.484 221.69 78.446V83ZM232.554 83H231.33V75.332H229.584V74.288H231.33V71.534H232.554V74.288H234.3V75.332H232.554V83ZM244.329 83.216C241.791 83.216 240.297 81.272 240.297 78.662C240.297 76.034 241.791 74.054 244.383 74.054C245.823 74.054 246.975 74.684 247.587 75.944V69.878H248.829V83H247.749L247.623 81.218C247.011 82.568 245.787 83.216 244.329 83.216ZM244.545 82.082C246.453 82.082 247.569 80.642 247.569 78.626C247.569 76.628 246.453 75.17 244.545 75.17C242.655 75.17 241.557 76.628 241.557 78.626C241.557 80.642 242.655 82.082 244.545 82.082ZM252.033 71.894C251.529 71.894 251.115 71.48 251.115 70.976C251.115 70.472 251.529 70.04 252.033 70.04C252.537 70.04 252.969 70.472 252.969 70.976C252.969 71.48 252.537 71.894 252.033 71.894ZM251.421 83V74.288H252.663V83H251.421ZM254.659 78.392C254.659 76.016 256.189 74.054 258.745 74.054C260.257 74.054 261.409 74.756 261.967 76.034L262.093 74.288H263.173V82.73C263.173 85.322 261.517 87.014 258.961 87.014C256.729 87.014 255.163 85.754 254.821 83.648H256.063C256.333 85.052 257.413 85.88 258.979 85.88C260.761 85.88 261.949 84.674 261.949 82.856V80.786C261.355 82.01 260.149 82.73 258.655 82.73C256.171 82.73 254.659 80.768 254.659 78.392ZM255.901 78.374C255.901 80.156 256.999 81.614 258.835 81.614C260.725 81.614 261.841 80.246 261.841 78.374C261.841 76.52 260.761 75.152 258.853 75.152C256.981 75.152 255.901 76.61 255.901 78.374ZM266.377 71.894C265.873 71.894 265.459 71.48 265.459 70.976C265.459 70.472 265.873 70.04 266.377 70.04C266.881 70.04 267.313 70.472 267.313 70.976C267.313 71.48 266.881 71.894 266.377 71.894ZM265.765 83V74.288H267.007V83H265.765ZM271.595 83H270.371V75.332H268.625V74.288H270.371V71.534H271.595V74.288H273.341V75.332H271.595V83ZM277.319 83.216C275.465 83.216 274.367 82.172 274.367 80.642C274.367 79.04 275.591 78.032 277.625 77.87L280.505 77.636V77.348C280.505 75.638 279.479 75.098 278.201 75.098C276.689 75.098 275.789 75.782 275.789 76.952H274.655C274.655 75.188 276.095 74.054 278.237 74.054C280.253 74.054 281.729 75.062 281.729 77.366V83H280.685L280.523 81.47C279.983 82.568 278.795 83.216 277.319 83.216ZM277.607 82.208C279.443 82.208 280.505 80.93 280.505 79.04V78.572L277.931 78.77C276.293 78.914 275.627 79.634 275.627 80.606C275.627 81.668 276.419 82.208 277.607 82.208ZM285.518 83H284.276V69.878H285.518V83ZM26.592 110H25.35V96.878H26.592V110ZM32.8875 110.216C30.3315 110.216 28.6215 108.38 28.6215 105.644C28.6215 102.926 30.3135 101.054 32.7975 101.054C35.1555 101.054 36.7575 102.728 36.7575 105.194V105.806H29.8275C29.9175 107.93 31.0335 109.154 32.9055 109.154C34.3275 109.154 35.2455 108.542 35.5695 107.39H36.7575C36.2895 109.226 34.9395 110.216 32.8875 110.216ZM32.7975 102.116C31.1595 102.116 30.0795 103.196 29.8635 104.906H35.5155C35.5155 103.232 34.4355 102.116 32.7975 102.116ZM41.1574 110.216C39.3034 110.216 38.2054 109.172 38.2054 107.642C38.2054 106.04 39.4294 105.032 41.4634 104.87L44.3434 104.636V104.348C44.3434 102.638 43.3174 102.098 42.0394 102.098C40.5274 102.098 39.6274 102.782 39.6274 103.952H38.4934C38.4934 102.188 39.9334 101.054 42.0754 101.054C44.0914 101.054 45.5674 102.062 45.5674 104.366V110H44.5234L44.3614 108.47C43.8214 109.568 42.6334 110.216 41.1574 110.216ZM41.4454 109.208C43.2814 109.208 44.3434 107.93 44.3434 106.04V105.572L41.7694 105.77C40.1314 105.914 39.4654 106.634 39.4654 107.606C39.4654 108.668 40.2574 109.208 41.4454 109.208ZM47.3217 107.552H48.5097C48.5097 108.56 49.2657 109.19 50.4897 109.19C51.8397 109.19 52.6317 108.614 52.6317 107.678C52.6317 106.958 52.2717 106.544 51.2457 106.292L49.7517 105.914C48.2397 105.536 47.5017 104.744 47.5017 103.556C47.5017 102.026 48.7797 101.054 50.6517 101.054C52.4877 101.054 53.6757 102.062 53.7297 103.682H52.5237C52.4877 102.674 51.7857 102.08 50.6157 102.08C49.3917 102.08 48.7077 102.602 48.7077 103.538C48.7077 104.204 49.1757 104.672 50.1297 104.906L51.6237 105.284C53.1357 105.662 53.8197 106.364 53.8197 107.624C53.8197 109.19 52.4877 110.216 50.5077 110.216C48.5457 110.216 47.3217 109.172 47.3217 107.552ZM59.5184 110.216C56.9624 110.216 55.2524 108.38 55.2524 105.644C55.2524 102.926 56.9444 101.054 59.4284 101.054C61.7864 101.054 63.3884 102.728 63.3884 105.194V105.806H56.4584C56.5484 107.93 57.6644 109.154 59.5364 109.154C60.9584 109.154 61.8764 108.542 62.2004 107.39H63.3884C62.9204 109.226 61.5704 110.216 59.5184 110.216ZM59.4284 102.116C57.7904 102.116 56.7104 103.196 56.4944 104.906H62.1464C62.1464 103.232 61.0664 102.116 59.4284 102.116ZM64.6361 107.552H65.8241C65.8241 108.56 66.5801 109.19 67.8041 109.19C69.1541 109.19 69.9461 108.614 69.9461 107.678C69.9461 106.958 69.5861 106.544 68.5601 106.292L67.0661 105.914C65.5541 105.536 64.8161 104.744 64.8161 103.556C64.8161 102.026 66.0941 101.054 67.9661 101.054C69.8021 101.054 70.9901 102.062 71.0441 103.682H69.8381C69.8021 102.674 69.1001 102.08 67.9301 102.08C66.7061 102.08 66.0221 102.602 66.0221 103.538C66.0221 104.204 66.4901 104.672 67.4441 104.906L68.9381 105.284C70.4501 105.662 71.1341 106.364 71.1341 107.624C71.1341 109.19 69.8021 110.216 67.8221 110.216C65.8601 110.216 64.6361 109.172 64.6361 107.552ZM80.673 110.216C78.819 110.216 77.721 109.172 77.721 107.642C77.721 106.04 78.945 105.032 80.979 104.87L83.859 104.636V104.348C83.859 102.638 82.833 102.098 81.555 102.098C80.043 102.098 79.143 102.782 79.143 103.952H78.009C78.009 102.188 79.449 101.054 81.591 101.054C83.607 101.054 85.083 102.062 85.083 104.366V110H84.039L83.877 108.47C83.337 109.568 82.149 110.216 80.673 110.216ZM80.961 109.208C82.797 109.208 83.859 107.93 83.859 106.04V105.572L81.285 105.77C79.647 105.914 78.981 106.634 78.981 107.606C78.981 108.668 79.773 109.208 80.961 109.208ZM88.8173 110H87.5753V101.288H88.6553L88.8353 102.8C89.4113 101.684 90.5633 101.054 91.8233 101.054C94.2173 101.054 95.2073 102.476 95.2073 104.672V110H93.9653V104.942C93.9653 102.908 93.0473 102.188 91.6073 102.188C89.8253 102.188 88.8173 103.484 88.8173 105.446V110ZM101.103 110.216C98.5647 110.216 97.0707 108.272 97.0707 105.662C97.0707 103.034 98.5647 101.054 101.157 101.054C102.597 101.054 103.749 101.684 104.361 102.944V96.878H105.603V110H104.523L104.397 108.218C103.785 109.568 102.561 110.216 101.103 110.216ZM101.319 109.082C103.227 109.082 104.343 107.642 104.343 105.626C104.343 103.628 103.227 102.17 101.319 102.17C99.4287 102.17 98.3307 103.628 98.3307 105.626C98.3307 107.642 99.4287 109.082 101.319 109.082ZM115.689 110.216C113.835 110.216 112.737 109.172 112.737 107.642C112.737 106.04 113.961 105.032 115.995 104.87L118.875 104.636V104.348C118.875 102.638 117.849 102.098 116.571 102.098C115.059 102.098 114.159 102.782 114.159 103.952H113.025C113.025 102.188 114.465 101.054 116.607 101.054C118.623 101.054 120.099 102.062 120.099 104.366V110H119.055L118.893 108.47C118.353 109.568 117.165 110.216 115.689 110.216ZM115.977 109.208C117.813 109.208 118.875 107.93 118.875 106.04V105.572L116.301 105.77C114.663 105.914 113.997 106.634 113.997 107.606C113.997 108.668 114.789 109.208 115.977 109.208ZM128.711 101.288H129.953V110H128.873L128.711 108.524C128.225 109.532 127.019 110.216 125.651 110.216C123.599 110.216 122.483 108.812 122.483 106.688V101.27H123.743V106.292C123.743 108.362 124.661 109.1 126.047 109.1C127.721 109.1 128.711 107.984 128.711 105.914V101.288ZM134.538 110H133.314V102.332H131.568V101.288H133.314V98.534H134.538V101.288H136.284V102.332H134.538V110ZM137.202 105.644C137.202 102.98 139.074 101.054 141.63 101.054C144.186 101.054 146.058 102.98 146.058 105.644C146.058 108.29 144.186 110.216 141.63 110.216C139.074 110.216 137.202 108.29 137.202 105.644ZM138.462 105.626C138.462 107.678 139.758 109.1 141.63 109.1C143.484 109.1 144.798 107.678 144.798 105.626C144.798 103.61 143.484 102.17 141.63 102.17C139.758 102.17 138.462 103.61 138.462 105.626ZM149.286 110H148.044V101.288H149.124L149.268 102.53C149.7 101.612 150.672 101.054 151.896 101.054C153.264 101.054 154.29 101.774 154.704 102.908C155.1 101.774 156.162 101.054 157.566 101.054C159.456 101.054 160.698 102.278 160.698 104.294V110H159.492V104.546C159.492 103.052 158.664 102.17 157.332 102.17C155.874 102.17 155.01 103.268 155.01 104.618V110H153.786V104.528C153.786 103.052 152.94 102.188 151.626 102.188C150.168 102.188 149.286 103.268 149.286 104.6V110ZM165.698 110.216C163.844 110.216 162.746 109.172 162.746 107.642C162.746 106.04 163.97 105.032 166.004 104.87L168.884 104.636V104.348C168.884 102.638 167.858 102.098 166.58 102.098C165.068 102.098 164.168 102.782 164.168 103.952H163.034C163.034 102.188 164.474 101.054 166.616 101.054C168.632 101.054 170.108 102.062 170.108 104.366V110H169.064L168.902 108.47C168.362 109.568 167.174 110.216 165.698 110.216ZM165.986 109.208C167.822 109.208 168.884 107.93 168.884 106.04V105.572L166.31 105.77C164.672 105.914 164.006 106.634 164.006 107.606C164.006 108.668 164.798 109.208 165.986 109.208ZM174.44 110H173.216V102.332H171.47V101.288H173.216V98.534H174.44V101.288H176.186V102.332H174.44V110ZM178.416 98.894C177.912 98.894 177.498 98.48 177.498 97.976C177.498 97.472 177.912 97.04 178.416 97.04C178.92 97.04 179.352 97.472 179.352 97.976C179.352 98.48 178.92 98.894 178.416 98.894ZM177.804 110V101.288H179.046V110H177.804ZM181.024 105.662C181.024 102.926 182.698 101.054 185.236 101.054C187.252 101.054 188.728 102.224 189.07 104.024H187.828C187.504 102.818 186.46 102.152 185.254 102.152C183.49 102.152 182.248 103.502 182.248 105.644C182.248 107.714 183.4 109.1 185.164 109.1C186.46 109.1 187.504 108.38 187.846 107.264H189.106C188.692 109.046 187.144 110.216 185.164 110.216C182.698 110.216 181.024 108.398 181.024 105.662ZM200.534 101.18V102.296H199.85C198.248 102.296 197.222 103.376 197.222 105.032V110H195.98V101.288H197.15L197.24 102.638C197.582 101.702 198.5 101.09 199.724 101.09C199.994 101.09 200.228 101.108 200.534 101.18ZM205.505 110.216C202.949 110.216 201.239 108.38 201.239 105.644C201.239 102.926 202.931 101.054 205.415 101.054C207.773 101.054 209.375 102.728 209.375 105.194V105.806H202.445C202.535 107.93 203.651 109.154 205.523 109.154C206.945 109.154 207.863 108.542 208.187 107.39H209.375C208.907 109.226 207.557 110.216 205.505 110.216ZM205.415 102.116C203.777 102.116 202.697 103.196 202.481 104.906H208.133C208.133 103.232 207.053 102.116 205.415 102.116ZM212.602 110H211.36V101.288H212.44L212.62 102.8C213.196 101.684 214.348 101.054 215.608 101.054C218.002 101.054 218.992 102.476 218.992 104.672V110H217.75V104.942C217.75 102.908 216.832 102.188 215.392 102.188C213.61 102.188 212.602 103.484 212.602 105.446V110ZM225.122 110.216C222.566 110.216 220.856 108.38 220.856 105.644C220.856 102.926 222.548 101.054 225.032 101.054C227.39 101.054 228.992 102.728 228.992 105.194V105.806H222.062C222.152 107.93 223.268 109.154 225.14 109.154C226.562 109.154 227.48 108.542 227.804 107.39H228.992C228.524 109.226 227.174 110.216 225.122 110.216ZM225.032 102.116C223.394 102.116 222.314 103.196 222.098 104.906H227.75C227.75 103.232 226.67 102.116 225.032 102.116ZM232.585 110L229.705 101.288H230.983L232.693 106.544C232.891 107.12 233.053 107.714 233.233 108.416C233.377 107.714 233.665 106.832 233.755 106.544L235.483 101.288H236.761L238.471 106.544C238.633 107.012 238.849 107.768 239.011 108.416C239.191 107.696 239.227 107.48 239.533 106.544L241.261 101.288H242.557L239.605 110H238.399L236.599 104.528C236.383 103.88 236.239 103.34 236.131 102.818C236.005 103.286 235.861 103.808 235.627 104.528L233.827 110H232.585ZM246.224 110.216C244.37 110.216 243.272 109.172 243.272 107.642C243.272 106.04 244.496 105.032 246.53 104.87L249.41 104.636V104.348C249.41 102.638 248.384 102.098 247.106 102.098C245.594 102.098 244.694 102.782 244.694 103.952H243.56C243.56 102.188 245 101.054 247.142 101.054C249.158 101.054 250.634 102.062 250.634 104.366V110H249.59L249.428 108.47C248.888 109.568 247.7 110.216 246.224 110.216ZM246.512 109.208C248.348 109.208 249.41 107.93 249.41 106.04V105.572L246.836 105.77C245.198 105.914 244.532 106.634 244.532 107.606C244.532 108.668 245.324 109.208 246.512 109.208ZM254.422 110H253.18V96.878H254.422V110ZM27.798 137.216C25.944 137.216 24.846 136.172 24.846 134.642C24.846 133.04 26.07 132.032 28.104 131.87L30.984 131.636V131.348C30.984 129.638 29.958 129.098 28.68 129.098C27.168 129.098 26.268 129.782 26.268 130.952H25.134C25.134 129.188 26.574 128.054 28.716 128.054C30.732 128.054 32.208 129.062 32.208 131.366V137H31.164L31.002 135.47C30.462 136.568 29.274 137.216 27.798 137.216ZM28.086 136.208C29.922 136.208 30.984 134.93 30.984 133.04V132.572L28.41 132.77C26.772 132.914 26.106 133.634 26.106 134.606C26.106 135.668 26.898 136.208 28.086 136.208ZM35.9963 137H34.7543V123.878H35.9963V137ZM42.2918 137.216C39.7358 137.216 38.0258 135.38 38.0258 132.644C38.0258 129.926 39.7178 128.054 42.2018 128.054C44.5598 128.054 46.1618 129.728 46.1618 132.194V132.806H39.2318C39.3218 134.93 40.4378 136.154 42.3098 136.154C43.7318 136.154 44.6498 135.542 44.9738 134.39H46.1618C45.6938 136.226 44.3438 137.216 42.2918 137.216ZM42.2018 129.116C40.5638 129.116 39.4838 130.196 39.2678 131.906H44.9198C44.9198 130.232 43.8398 129.116 42.2018 129.116ZM52.7016 128.18V129.296H52.0176C50.4156 129.296 49.3896 130.376 49.3896 132.032V137H48.1476V128.288H49.3176L49.4076 129.638C49.7496 128.702 50.6676 128.09 51.8916 128.09C52.1616 128.09 52.3956 128.108 52.7016 128.18ZM56.7022 137H55.4782V129.332H53.7322V128.288H55.4782V125.534H56.7022V128.288H58.4482V129.332H56.7022V137ZM59.3275 134.552H60.5155C60.5155 135.56 61.2715 136.19 62.4955 136.19C63.8455 136.19 64.6375 135.614 64.6375 134.678C64.6375 133.958 64.2775 133.544 63.2515 133.292L61.7575 132.914C60.2455 132.536 59.5075 131.744 59.5075 130.556C59.5075 129.026 60.7855 128.054 62.6575 128.054C64.4935 128.054 65.6815 129.062 65.7355 130.682H64.5295C64.4935 129.674 63.7915 129.08 62.6215 129.08C61.3975 129.08 60.7135 129.602 60.7135 130.538C60.7135 131.204 61.1815 131.672 62.1355 131.906L63.6295 132.284C65.1415 132.662 65.8255 133.364 65.8255 134.624C65.8255 136.19 64.4935 137.216 62.5135 137.216C60.5515 137.216 59.3275 136.172 59.3275 134.552ZM68.7916 137.198C68.1796 137.198 67.6576 136.694 67.6576 136.1C67.6576 135.488 68.1796 134.966 68.7916 134.966C69.4036 134.966 69.9256 135.488 69.9256 136.1C69.9256 136.694 69.4036 137.198 68.7916 137.198Z" fill="white"/>
    <rect x="22" y="164" width="269" height="95" rx="10" fill="white"/>
    <mask id="mask0_71_13160" style="mask-type:alpha" maskUnits="userSpaceOnUse" x="38" y="180" width="32" height="32">
        <ellipse cx="54" cy="196" rx="16" ry="16" fill="#D9D9D9"/>
    </mask>
    <g mask="url(#mask0_71_13160)">
        <rect x="36.6665" y="180" width="33.3333" height="54.6667" fill="#D9D9D9"/>
    </g>
    <rect x="78" y="184.5" width="113" height="23" rx="11.5" fill="#EFEFEF"/>
    <rect x="38" y="220" width="229" height="23" rx="11.5" fill="#EFEFEF"/>
    <rect x="22" y="267" width="269" height="95" rx="10" fill="white"/>
    <rect width="153" height="32" transform="translate(38 283)" fill="white"/>
    <mask id="mask1_71_13160" style="mask-type:alpha" maskUnits="userSpaceOnUse" x="38" y="283" width="32" height="32">
        <circle cx="54" cy="299" r="16" fill="#D9D9D9"/>
    </mask>
    <g mask="url(#mask1_71_13160)">
        <rect x="36" y="283" width="35" height="35" fill="#CFC3A7"/>
    </g>
    <rect x="78" y="287.5" width="113" height="23" rx="10" fill="#EFEFEF"/>
    <rect x="38" y="323" width="229" height="23" rx="10" fill="#EFEFEF"/>
</svg>
