<svg width="317" height="514" viewBox="0 0 317 514" fill="none" xmlns="http://www.w3.org/2000/svg">
    <g clip-path="url(#clip0_71_13182)">
        <rect width="316.743" height="514" rx="40" fill="#F8F8F8"/>
        <path d="M32.76 343.808H28.368V350H26.016V332.648H32.76C36.168 332.648 38.352 334.88 38.352 338.216C38.352 341.456 36.144 343.808 32.76 343.808ZM32.352 334.76H28.368V341.696H32.256C34.584 341.696 35.88 340.328 35.88 338.192C35.88 336.008 34.56 334.76 32.352 334.76ZM47.352 338.168V340.232H46.344C44.208 340.232 42.888 341.528 42.888 343.784V350H40.632V338.288H42.744L42.888 340.064C43.368 338.84 44.544 338.024 46.152 338.024C46.56 338.024 46.896 338.072 47.352 338.168ZM48.2781 344.12C48.2781 340.496 50.8701 337.952 54.3981 337.952C57.9021 337.952 60.4941 340.496 60.4941 344.12C60.4941 347.744 57.9021 350.288 54.3981 350.288C50.8701 350.288 48.2781 347.744 48.2781 344.12ZM50.5581 344.12C50.5581 346.568 52.1181 348.272 54.3981 348.272C56.6541 348.272 58.2381 346.568 58.2381 344.12C58.2381 341.672 56.6541 339.968 54.3981 339.968C52.1181 339.968 50.5581 341.672 50.5581 344.12ZM62.9914 355.256V338.264H65.0314L65.1994 340.376C65.9914 338.768 67.5754 337.928 69.4474 337.928C72.8074 337.928 74.8954 340.448 74.8954 344.048C74.8954 347.624 72.9274 350.312 69.4474 350.312C67.5754 350.312 66.0154 349.52 65.2474 348.08V355.256H62.9914ZM65.2714 344.144C65.2714 346.544 66.6634 348.272 68.9674 348.272C71.2714 348.272 72.6394 346.544 72.6394 344.144C72.6394 341.72 71.2714 339.992 68.9674 339.992C66.6634 339.992 65.2714 341.696 65.2714 344.144ZM82.446 350.288C78.99 350.288 76.614 347.792 76.614 344.144C76.614 340.472 78.942 337.928 82.35 337.928C85.686 337.928 87.87 340.232 87.87 343.712V344.552L78.798 344.576C78.966 347.048 80.262 348.416 82.494 348.416C84.246 348.416 85.398 347.696 85.782 346.352H87.894C87.318 348.872 85.35 350.288 82.446 350.288ZM82.35 339.824C80.382 339.824 79.134 341 78.846 343.064H85.614C85.614 341.12 84.342 339.824 82.35 339.824ZM97.1098 338.168V340.232H96.1018C93.9658 340.232 92.6458 341.528 92.6458 343.784V350H90.3898V338.288H92.5018L92.6458 340.064C93.1258 338.84 94.3018 338.024 95.9098 338.024C96.3178 338.024 96.6538 338.072 97.1098 338.168ZM103.007 350H100.751V340.16H98.4465V338.264H100.751V334.592H103.007V338.264H105.311V340.16H103.007V350ZM106.207 355.256V353.408H107.719C108.799 353.408 109.663 353.24 110.215 351.752L110.623 350.624L105.895 338.264H108.271L111.679 347.72L115.159 338.264H117.487L111.943 352.64C111.151 354.656 109.975 355.496 108.175 355.496C107.431 355.496 106.807 355.4 106.207 355.256ZM124.555 334.808V332.648H137.347V334.808H132.139V350H129.787V334.808H124.555ZM144.618 338.168V340.232H143.61C141.474 340.232 140.154 341.528 140.154 343.784V350H137.898V338.288H140.01L140.154 340.064C140.634 338.84 141.81 338.024 143.418 338.024C143.826 338.024 144.162 338.072 144.618 338.168ZM149.697 350.288C147.177 350.288 145.689 348.872 145.689 346.736C145.689 344.576 147.297 343.232 150.057 343.016L153.753 342.728V342.392C153.753 340.424 152.577 339.728 150.993 339.728C149.097 339.728 148.017 340.568 148.017 341.984H146.049C146.049 339.536 148.065 337.928 151.089 337.928C153.993 337.928 155.961 339.464 155.961 342.632V350H154.041L153.801 348.104C153.201 349.448 151.593 350.288 149.697 350.288ZM150.345 348.536C152.481 348.536 153.777 347.144 153.777 344.936V344.312L150.777 344.552C148.785 344.744 147.969 345.512 147.969 346.664C147.969 347.912 148.881 348.536 150.345 348.536ZM158.317 344.144C158.317 340.472 160.645 337.928 164.077 337.928C167.029 337.928 169.093 339.608 169.501 342.224H167.245C166.861 340.736 165.661 339.944 164.149 339.944C162.013 339.944 160.549 341.576 160.549 344.12C160.549 346.64 161.917 348.272 164.053 348.272C165.661 348.272 166.861 347.432 167.269 346.04H169.525C169.069 348.584 166.885 350.288 164.053 350.288C160.597 350.288 158.317 347.84 158.317 344.144ZM174.209 350H171.953V332.336H174.209V343.784L179.417 338.264H182.249L177.761 342.944L182.225 350H179.633L176.201 344.576L174.209 346.664V350ZM185.197 335.48C184.381 335.48 183.709 334.808 183.709 333.992C183.709 333.152 184.381 332.504 185.197 332.504C186.013 332.504 186.685 333.152 186.685 333.992C186.685 334.808 186.013 335.48 185.197 335.48ZM184.093 350V338.264H186.349V350H184.093ZM191.88 350H189.624V338.264H191.664L191.904 340.064C192.648 338.72 194.136 337.928 195.792 337.928C198.888 337.928 200.304 339.824 200.304 342.824V350H198.048V343.328C198.048 340.952 196.944 339.992 195.216 339.992C193.104 339.992 191.88 341.504 191.88 343.784V350ZM202.685 343.832C202.685 340.52 204.821 337.928 208.229 337.928C210.125 337.928 211.589 338.792 212.333 340.256L212.501 338.264H214.517V349.52C214.517 353.216 212.237 355.568 208.637 355.568C205.445 355.568 203.261 353.768 202.829 350.792H205.085C205.373 352.52 206.669 353.528 208.637 353.528C210.845 353.528 212.285 352.088 212.285 349.856V347.504C211.517 348.872 209.981 349.688 208.133 349.688C204.797 349.688 202.685 347.12 202.685 343.832ZM204.941 343.784C204.941 345.992 206.309 347.72 208.517 347.72C210.797 347.72 212.189 346.088 212.189 343.784C212.189 341.528 210.845 339.896 208.541 339.896C206.285 339.896 204.941 341.624 204.941 343.784Z" fill="#1D1D21"/>
        <path d="M26.844 380H25.566V367.112H26.844L31.542 378.47L36.24 367.112H37.536V380H36.258V373.88C36.258 371.63 36.294 370.64 36.366 369.758L32.172 380H30.93L26.736 369.812C26.808 370.298 26.844 371.72 26.844 373.682V380ZM39.7836 375.644C39.7836 372.98 41.6556 371.054 44.2116 371.054C46.7676 371.054 48.6396 372.98 48.6396 375.644C48.6396 378.29 46.7676 380.216 44.2116 380.216C41.6556 380.216 39.7836 378.29 39.7836 375.644ZM41.0436 375.626C41.0436 377.678 42.3396 379.1 44.2116 379.1C46.0656 379.1 47.3796 377.678 47.3796 375.626C47.3796 373.61 46.0656 372.17 44.2116 372.17C42.3396 372.17 41.0436 373.61 41.0436 375.626ZM51.8681 380H50.6261V371.288H51.7061L51.8861 372.8C52.4621 371.684 53.6141 371.054 54.8741 371.054C57.2681 371.054 58.2581 372.476 58.2581 374.672V380H57.0161V374.942C57.0161 372.908 56.0981 372.188 54.6581 372.188C52.8761 372.188 51.8681 373.484 51.8681 375.446V380ZM61.3455 368.894C60.8415 368.894 60.4275 368.48 60.4275 367.976C60.4275 367.472 60.8415 367.04 61.3455 367.04C61.8495 367.04 62.2815 367.472 62.2815 367.976C62.2815 368.48 61.8495 368.894 61.3455 368.894ZM60.7335 380V371.288H61.9755V380H60.7335ZM66.5635 380H65.3395V372.332H63.5935V371.288H65.3395V368.534H66.5635V371.288H68.3095V372.332H66.5635V380ZM69.227 375.644C69.227 372.98 71.099 371.054 73.655 371.054C76.211 371.054 78.083 372.98 78.083 375.644C78.083 378.29 76.211 380.216 73.655 380.216C71.099 380.216 69.227 378.29 69.227 375.644ZM70.487 375.626C70.487 377.678 71.783 379.1 73.655 379.1C75.509 379.1 76.823 377.678 76.823 375.626C76.823 373.61 75.509 372.17 73.655 372.17C71.783 372.17 70.487 373.61 70.487 375.626ZM84.6234 371.18V372.296H83.9394C82.3374 372.296 81.3114 373.376 81.3114 375.032V380H80.0694V371.288H81.2394L81.3294 372.638C81.6714 371.702 82.5894 371.09 83.8134 371.09C84.0834 371.09 84.3174 371.108 84.6234 371.18ZM90.6547 375.644C90.6547 372.98 92.5267 371.054 95.0827 371.054C97.6387 371.054 99.5107 372.98 99.5107 375.644C99.5107 378.29 97.6387 380.216 95.0827 380.216C92.5267 380.216 90.6547 378.29 90.6547 375.644ZM91.9147 375.626C91.9147 377.678 93.2107 379.1 95.0827 379.1C96.9367 379.1 98.2507 377.678 98.2507 375.626C98.2507 373.61 96.9367 372.17 95.0827 372.17C93.2107 372.17 91.9147 373.61 91.9147 375.626ZM100.885 375.662C100.885 372.926 102.559 371.054 105.097 371.054C107.113 371.054 108.589 372.224 108.931 374.024H107.689C107.365 372.818 106.321 372.152 105.115 372.152C103.351 372.152 102.109 373.502 102.109 375.644C102.109 377.714 103.261 379.1 105.025 379.1C106.321 379.1 107.365 378.38 107.707 377.264H108.967C108.553 379.046 107.005 380.216 105.025 380.216C102.559 380.216 100.885 378.398 100.885 375.662ZM110.237 375.662C110.237 372.926 111.911 371.054 114.449 371.054C116.465 371.054 117.941 372.224 118.283 374.024H117.041C116.717 372.818 115.673 372.152 114.467 372.152C112.703 372.152 111.461 373.502 111.461 375.644C111.461 377.714 112.613 379.1 114.377 379.1C115.673 379.1 116.717 378.38 117.059 377.264H118.319C117.905 379.046 116.357 380.216 114.377 380.216C111.911 380.216 110.237 378.398 110.237 375.662ZM126.32 371.288H127.562V380H126.482L126.32 378.524C125.834 379.532 124.628 380.216 123.26 380.216C121.208 380.216 120.092 378.812 120.092 376.688V371.27H121.352V376.292C121.352 378.362 122.27 379.1 123.656 379.1C125.33 379.1 126.32 377.984 126.32 375.914V371.288ZM130.15 383.798V371.288H131.23L131.356 373.052C131.968 371.702 133.192 371.054 134.65 371.054C137.17 371.054 138.682 372.98 138.682 375.608C138.682 378.236 137.224 380.216 134.65 380.216C133.174 380.216 132.004 379.586 131.392 378.326V383.798H130.15ZM131.41 375.644C131.41 377.642 132.526 379.1 134.434 379.1C136.324 379.1 137.422 377.642 137.422 375.644C137.422 373.628 136.324 372.188 134.434 372.188C132.526 372.188 131.41 373.628 131.41 375.644ZM143.163 380.216C141.309 380.216 140.211 379.172 140.211 377.642C140.211 376.04 141.435 375.032 143.469 374.87L146.349 374.636V374.348C146.349 372.638 145.323 372.098 144.045 372.098C142.533 372.098 141.633 372.782 141.633 373.952H140.499C140.499 372.188 141.939 371.054 144.081 371.054C146.097 371.054 147.573 372.062 147.573 374.366V380H146.529L146.367 378.47C145.827 379.568 144.639 380.216 143.163 380.216ZM143.451 379.208C145.287 379.208 146.349 377.93 146.349 376.04V375.572L143.775 375.77C142.137 375.914 141.471 376.634 141.471 377.606C141.471 378.668 142.263 379.208 143.451 379.208ZM151.308 380H150.066V371.288H151.146L151.326 372.8C151.902 371.684 153.054 371.054 154.314 371.054C156.708 371.054 157.698 372.476 157.698 374.672V380H156.456V374.942C156.456 372.908 155.538 372.188 154.098 372.188C152.316 372.188 151.308 373.484 151.308 375.446V380ZM159.561 375.662C159.561 372.926 161.235 371.054 163.773 371.054C165.789 371.054 167.265 372.224 167.607 374.024H166.365C166.041 372.818 164.997 372.152 163.791 372.152C162.027 372.152 160.785 373.502 160.785 375.644C160.785 377.714 161.937 379.1 163.701 379.1C164.997 379.1 166.041 378.38 166.383 377.264H167.643C167.229 379.046 165.681 380.216 163.701 380.216C161.235 380.216 159.561 378.398 159.561 375.662ZM168.467 383.798V382.772H169.421C170.177 382.772 170.933 382.718 171.365 381.548L171.743 380.522L168.215 371.288H169.529L172.337 378.884L175.091 371.288H176.369L172.373 381.998C171.869 383.366 171.023 383.924 169.781 383.924C169.259 383.924 168.863 383.888 168.467 383.798ZM187.368 371.18V372.296H186.684C185.082 372.296 184.056 373.376 184.056 375.032V380H182.814V371.288H183.984L184.074 372.638C184.416 371.702 185.334 371.09 186.558 371.09C186.828 371.09 187.062 371.108 187.368 371.18ZM191.169 380.216C189.315 380.216 188.217 379.172 188.217 377.642C188.217 376.04 189.441 375.032 191.475 374.87L194.355 374.636V374.348C194.355 372.638 193.329 372.098 192.051 372.098C190.539 372.098 189.639 372.782 189.639 373.952H188.505C188.505 372.188 189.945 371.054 192.087 371.054C194.103 371.054 195.579 372.062 195.579 374.366V380H194.535L194.373 378.47C193.833 379.568 192.645 380.216 191.169 380.216ZM191.457 379.208C193.293 379.208 194.355 377.93 194.355 376.04V375.572L191.781 375.77C190.143 375.914 189.477 376.634 189.477 377.606C189.477 378.668 190.269 379.208 191.457 379.208ZM199.911 380H198.687V372.332H196.941V371.288H198.687V368.534H199.911V371.288H201.657V372.332H199.911V380ZM206.841 380.216C204.285 380.216 202.575 378.38 202.575 375.644C202.575 372.926 204.267 371.054 206.751 371.054C209.109 371.054 210.711 372.728 210.711 375.194V375.806H203.781C203.871 377.93 204.987 379.154 206.859 379.154C208.281 379.154 209.199 378.542 209.523 377.39H210.711C210.243 379.226 208.893 380.216 206.841 380.216ZM206.751 372.116C205.113 372.116 204.033 373.196 203.817 374.906H209.469C209.469 373.232 208.389 372.116 206.751 372.116ZM211.958 377.552H213.146C213.146 378.56 213.902 379.19 215.126 379.19C216.476 379.19 217.268 378.614 217.268 377.678C217.268 376.958 216.908 376.544 215.882 376.292L214.388 375.914C212.876 375.536 212.138 374.744 212.138 373.556C212.138 372.026 213.416 371.054 215.288 371.054C217.124 371.054 218.312 372.062 218.366 373.682H217.16C217.124 372.674 216.422 372.08 215.252 372.08C214.028 372.08 213.344 372.602 213.344 373.538C213.344 374.204 213.812 374.672 214.766 374.906L216.26 375.284C217.772 375.662 218.456 376.364 218.456 377.624C218.456 379.19 217.124 380.216 215.144 380.216C213.182 380.216 211.958 379.172 211.958 377.552ZM222.556 379.388C222.556 380.504 221.692 381.476 220.576 381.638V380.972C221.224 380.864 221.692 380.396 221.692 379.892C221.584 379.964 221.44 380.018 221.224 380.018C220.72 380.018 220.288 379.658 220.288 379.046C220.288 378.416 220.72 377.966 221.35 377.966C221.998 377.966 222.556 378.488 222.556 379.388ZM234.618 371.18V372.296H233.934C232.332 372.296 231.306 373.376 231.306 375.032V380H230.064V371.288H231.234L231.324 372.638C231.666 371.702 232.584 371.09 233.808 371.09C234.078 371.09 234.312 371.108 234.618 371.18ZM239.589 380.216C237.033 380.216 235.323 378.38 235.323 375.644C235.323 372.926 237.015 371.054 239.499 371.054C241.857 371.054 243.459 372.728 243.459 375.194V375.806H236.529C236.619 377.93 237.735 379.154 239.607 379.154C241.029 379.154 241.947 378.542 242.271 377.39H243.459C242.991 379.226 241.641 380.216 239.589 380.216ZM239.499 372.116C237.861 372.116 236.781 373.196 236.565 374.906H242.217C242.217 373.232 241.137 372.116 239.499 372.116ZM246.686 380H245.444V371.288H246.524L246.704 372.8C247.28 371.684 248.432 371.054 249.692 371.054C252.086 371.054 253.076 372.476 253.076 374.672V380H251.834V374.942C251.834 372.908 250.916 372.188 249.476 372.188C247.694 372.188 246.686 373.484 246.686 375.446V380ZM257.55 380H256.326V372.332H254.58V371.288H256.326V368.534H257.55V371.288H259.296V372.332H257.55V380ZM263.275 380.216C261.421 380.216 260.323 379.172 260.323 377.642C260.323 376.04 261.547 375.032 263.581 374.87L266.461 374.636V374.348C266.461 372.638 265.435 372.098 264.157 372.098C262.645 372.098 261.745 372.782 261.745 373.952H260.611C260.611 372.188 262.051 371.054 264.193 371.054C266.209 371.054 267.685 372.062 267.685 374.366V380H266.641L266.479 378.47C265.939 379.568 264.751 380.216 263.275 380.216ZM263.563 379.208C265.399 379.208 266.461 377.93 266.461 376.04V375.572L263.887 375.77C262.249 375.914 261.583 376.634 261.583 377.606C261.583 378.668 262.375 379.208 263.563 379.208ZM271.473 380H270.231V366.878H271.473V380ZM25.908 395.894C25.404 395.894 24.99 395.48 24.99 394.976C24.99 394.472 25.404 394.04 25.908 394.04C26.412 394.04 26.844 394.472 26.844 394.976C26.844 395.48 26.412 395.894 25.908 395.894ZM25.296 407V398.288H26.538V407H25.296ZM30.37 407H29.128V398.288H30.208L30.388 399.8C30.964 398.684 32.116 398.054 33.376 398.054C35.77 398.054 36.76 399.476 36.76 401.672V407H35.518V401.942C35.518 399.908 34.6 399.188 33.16 399.188C31.378 399.188 30.37 400.484 30.37 402.446V407ZM38.6235 402.662C38.6235 399.926 40.2975 398.054 42.8355 398.054C44.8515 398.054 46.3275 399.224 46.6695 401.024H45.4275C45.1035 399.818 44.0595 399.152 42.8535 399.152C41.0895 399.152 39.8475 400.502 39.8475 402.644C39.8475 404.714 40.9995 406.1 42.7635 406.1C44.0595 406.1 45.1035 405.38 45.4455 404.264H46.7055C46.2915 406.046 44.7435 407.216 42.7635 407.216C40.2975 407.216 38.6235 405.398 38.6235 402.662ZM47.975 402.644C47.975 399.98 49.847 398.054 52.403 398.054C54.959 398.054 56.831 399.98 56.831 402.644C56.831 405.29 54.959 407.216 52.403 407.216C49.847 407.216 47.975 405.29 47.975 402.644ZM49.235 402.626C49.235 404.678 50.531 406.1 52.403 406.1C54.257 406.1 55.571 404.678 55.571 402.626C55.571 400.61 54.257 399.17 52.403 399.17C50.531 399.17 49.235 400.61 49.235 402.626ZM60.0595 407H58.8175V398.288H59.8975L60.0415 399.53C60.4735 398.612 61.4455 398.054 62.6695 398.054C64.0375 398.054 65.0635 398.774 65.4775 399.908C65.8735 398.774 66.9355 398.054 68.3395 398.054C70.2295 398.054 71.4715 399.278 71.4715 401.294V407H70.2655V401.546C70.2655 400.052 69.4375 399.17 68.1055 399.17C66.6475 399.17 65.7835 400.268 65.7835 401.618V407H64.5595V401.528C64.5595 400.052 63.7135 399.188 62.3995 399.188C60.9415 399.188 60.0595 400.268 60.0595 401.6V407ZM77.6238 407.216C75.0678 407.216 73.3578 405.38 73.3578 402.644C73.3578 399.926 75.0498 398.054 77.5338 398.054C79.8918 398.054 81.4938 399.728 81.4938 402.194V402.806H74.5638C74.6538 404.93 75.7698 406.154 77.6418 406.154C79.0638 406.154 79.9818 405.542 80.3058 404.39H81.4938C81.0258 406.226 79.6758 407.216 77.6238 407.216ZM77.5338 399.116C75.8958 399.116 74.8158 400.196 74.5998 401.906H80.2518C80.2518 400.232 79.1718 399.116 77.5338 399.116ZM85.1307 406.388C85.1307 407.504 84.2667 408.476 83.1507 408.638V407.972C83.7987 407.864 84.2667 407.396 84.2667 406.892C84.1587 406.964 84.0147 407.018 83.7987 407.018C83.2947 407.018 82.8627 406.658 82.8627 406.046C82.8627 405.416 83.2947 404.966 83.9247 404.966C84.5727 404.966 85.1307 405.488 85.1307 406.388ZM95.1398 407.216C93.2858 407.216 92.1878 406.172 92.1878 404.642C92.1878 403.04 93.4118 402.032 95.4458 401.87L98.3258 401.636V401.348C98.3258 399.638 97.2998 399.098 96.0218 399.098C94.5098 399.098 93.6098 399.782 93.6098 400.952H92.4758C92.4758 399.188 93.9158 398.054 96.0578 398.054C98.0738 398.054 99.5498 399.062 99.5498 401.366V407H98.5058L98.3438 405.47C97.8038 406.568 96.6158 407.216 95.1398 407.216ZM95.4278 406.208C97.2638 406.208 98.3258 404.93 98.3258 403.04V402.572L95.7518 402.77C94.1138 402.914 93.4478 403.634 93.4478 404.606C93.4478 405.668 94.2398 406.208 95.4278 406.208ZM103.284 407H102.042V398.288H103.122L103.302 399.8C103.878 398.684 105.03 398.054 106.29 398.054C108.684 398.054 109.674 399.476 109.674 401.672V407H108.432V401.942C108.432 399.908 107.514 399.188 106.074 399.188C104.292 399.188 103.284 400.484 103.284 402.446V407ZM115.57 407.216C113.032 407.216 111.538 405.272 111.538 402.662C111.538 400.034 113.032 398.054 115.624 398.054C117.064 398.054 118.216 398.684 118.828 399.944V393.878H120.07V407H118.99L118.864 405.218C118.252 406.568 117.028 407.216 115.57 407.216ZM115.786 406.082C117.694 406.082 118.81 404.642 118.81 402.626C118.81 400.628 117.694 399.17 115.786 399.17C113.896 399.17 112.798 400.628 112.798 402.626C112.798 404.642 113.896 406.082 115.786 406.082ZM133.395 407V399.332H129.255V407H128.013V399.332H126.681V398.288H128.013V396.596C128.013 394.634 129.075 393.878 130.371 393.878C130.677 393.878 131.055 393.896 131.343 393.95V395.03H130.587C129.543 395.03 129.255 395.57 129.255 396.596V398.288H134.637V407H133.395ZM134.007 395.804C133.503 395.804 133.143 395.444 133.143 394.94C133.143 394.436 133.503 394.058 134.007 394.058C134.493 394.058 134.871 394.436 134.871 394.94C134.871 395.444 134.493 395.804 134.007 395.804ZM138.423 407H137.181V398.288H138.261L138.441 399.8C139.017 398.684 140.169 398.054 141.429 398.054C143.823 398.054 144.813 399.476 144.813 401.672V407H143.571V401.942C143.571 399.908 142.653 399.188 141.213 399.188C139.431 399.188 138.423 400.484 138.423 402.446V407ZM149.79 407.216C147.936 407.216 146.838 406.172 146.838 404.642C146.838 403.04 148.062 402.032 150.096 401.87L152.976 401.636V401.348C152.976 399.638 151.95 399.098 150.672 399.098C149.16 399.098 148.26 399.782 148.26 400.952H147.126C147.126 399.188 148.566 398.054 150.708 398.054C152.724 398.054 154.2 399.062 154.2 401.366V407H153.156L152.994 405.47C152.454 406.568 151.266 407.216 149.79 407.216ZM150.078 406.208C151.914 406.208 152.976 404.93 152.976 403.04V402.572L150.402 402.77C148.764 402.914 148.098 403.634 148.098 404.606C148.098 405.668 148.89 406.208 150.078 406.208ZM157.934 407H156.692V398.288H157.772L157.952 399.8C158.528 398.684 159.68 398.054 160.94 398.054C163.334 398.054 164.324 399.476 164.324 401.672V407H163.082V401.942C163.082 399.908 162.164 399.188 160.724 399.188C158.942 399.188 157.934 400.484 157.934 402.446V407ZM166.188 402.662C166.188 399.926 167.862 398.054 170.4 398.054C172.416 398.054 173.892 399.224 174.234 401.024H172.992C172.668 399.818 171.624 399.152 170.418 399.152C168.654 399.152 167.412 400.502 167.412 402.644C167.412 404.714 168.564 406.1 170.328 406.1C171.624 406.1 172.668 405.38 173.01 404.264H174.27C173.856 406.046 172.308 407.216 170.328 407.216C167.862 407.216 166.188 405.398 166.188 402.662ZM176.763 395.894C176.259 395.894 175.845 395.48 175.845 394.976C175.845 394.472 176.259 394.04 176.763 394.04C177.267 394.04 177.699 394.472 177.699 394.976C177.699 395.48 177.267 395.894 176.763 395.894ZM176.151 407V398.288H177.393V407H176.151ZM182.486 407.216C180.632 407.216 179.534 406.172 179.534 404.642C179.534 403.04 180.758 402.032 182.792 401.87L185.672 401.636V401.348C185.672 399.638 184.646 399.098 183.368 399.098C181.856 399.098 180.956 399.782 180.956 400.952H179.822C179.822 399.188 181.262 398.054 183.404 398.054C185.42 398.054 186.896 399.062 186.896 401.366V407H185.852L185.69 405.47C185.15 406.568 183.962 407.216 182.486 407.216ZM182.774 406.208C184.61 406.208 185.672 404.93 185.672 403.04V402.572L183.098 402.77C181.46 402.914 180.794 403.634 180.794 404.606C180.794 405.668 181.586 406.208 182.774 406.208ZM190.684 407H189.442V393.878H190.684V407ZM199.559 406.982H198.317V393.878H199.559V399.8C200.117 398.756 201.179 398.054 202.637 398.054C204.923 398.054 205.949 399.476 205.949 401.672V407H204.707V401.942C204.707 399.908 203.753 399.188 202.403 399.188C200.531 399.188 199.559 400.574 199.559 402.248V406.982ZM212.079 407.216C209.523 407.216 207.813 405.38 207.813 402.644C207.813 399.926 209.505 398.054 211.989 398.054C214.347 398.054 215.949 399.728 215.949 402.194V402.806H209.019C209.109 404.93 210.225 406.154 212.097 406.154C213.519 406.154 214.437 405.542 214.761 404.39H215.949C215.481 406.226 214.131 407.216 212.079 407.216ZM211.989 399.116C210.351 399.116 209.271 400.196 209.055 401.906H214.707C214.707 400.232 213.627 399.116 211.989 399.116ZM220.349 407.216C218.495 407.216 217.397 406.172 217.397 404.642C217.397 403.04 218.621 402.032 220.655 401.87L223.535 401.636V401.348C223.535 399.638 222.509 399.098 221.231 399.098C219.719 399.098 218.819 399.782 218.819 400.952H217.685C217.685 399.188 219.125 398.054 221.267 398.054C223.283 398.054 224.759 399.062 224.759 401.366V407H223.715L223.553 405.47C223.013 406.568 221.825 407.216 220.349 407.216ZM220.637 406.208C222.473 406.208 223.535 404.93 223.535 403.04V402.572L220.961 402.77C219.323 402.914 218.657 403.634 218.657 404.606C218.657 405.668 219.449 406.208 220.637 406.208ZM228.547 407H227.305V393.878H228.547V407ZM233.187 407H231.963V399.332H230.217V398.288H231.963V395.534H233.187V398.288H234.933V399.332H233.187V407ZM237.792 406.982H236.55V393.878H237.792V399.8C238.35 398.756 239.412 398.054 240.87 398.054C243.156 398.054 244.182 399.476 244.182 401.672V407H242.94V401.942C242.94 399.908 241.986 399.188 240.636 399.188C238.764 399.188 237.792 400.574 237.792 402.248V406.982ZM252.262 395.894C251.758 395.894 251.344 395.48 251.344 394.976C251.344 394.472 251.758 394.04 252.262 394.04C252.766 394.04 253.198 394.472 253.198 394.976C253.198 395.48 252.766 395.894 252.262 395.894ZM251.65 407V398.288H252.892V407H251.65ZM256.724 407H255.482V398.288H256.562L256.742 399.8C257.318 398.684 258.47 398.054 259.73 398.054C262.124 398.054 263.114 399.476 263.114 401.672V407H261.872V401.942C261.872 399.908 260.954 399.188 259.514 399.188C257.732 399.188 256.724 400.484 256.724 402.446V407ZM29.85 425.18V426.296H29.166C27.564 426.296 26.538 427.376 26.538 429.032V434H25.296V425.288H26.466L26.556 426.638C26.898 425.702 27.816 425.09 29.04 425.09C29.31 425.09 29.544 425.108 29.85 425.18ZM34.8211 434.216C32.2651 434.216 30.5551 432.38 30.5551 429.644C30.5551 426.926 32.2471 425.054 34.7311 425.054C37.0891 425.054 38.6911 426.728 38.6911 429.194V429.806H31.7611C31.8511 431.93 32.9671 433.154 34.8391 433.154C36.2611 433.154 37.1791 432.542 37.5031 431.39H38.6911C38.2231 433.226 36.8731 434.216 34.8211 434.216ZM34.7311 426.116C33.0931 426.116 32.0131 427.196 31.7971 428.906H37.4491C37.4491 427.232 36.3691 426.116 34.7311 426.116ZM43.091 434.216C41.237 434.216 40.139 433.172 40.139 431.642C40.139 430.04 41.363 429.032 43.397 428.87L46.277 428.636V428.348C46.277 426.638 45.251 426.098 43.973 426.098C42.461 426.098 41.561 426.782 41.561 427.952H40.427C40.427 426.188 41.867 425.054 44.009 425.054C46.025 425.054 47.501 426.062 47.501 428.366V434H46.457L46.295 432.47C45.755 433.568 44.567 434.216 43.091 434.216ZM43.379 433.208C45.215 433.208 46.277 431.93 46.277 430.04V429.572L43.703 429.77C42.065 429.914 41.399 430.634 41.399 431.606C41.399 432.668 42.191 433.208 43.379 433.208ZM51.2893 434H50.0473V420.878H51.2893V434ZM60.921 434H59.697V426.332H57.951V425.288H59.697V422.534H60.921V425.288H62.667V426.332H60.921V434ZM64.8963 422.894C64.3923 422.894 63.9783 422.48 63.9783 421.976C63.9783 421.472 64.3923 421.04 64.8963 421.04C65.4003 421.04 65.8323 421.472 65.8323 421.976C65.8323 422.48 65.4003 422.894 64.8963 422.894ZM64.2843 434V425.288H65.5263V434H64.2843ZM69.3583 434H68.1163V425.288H69.1963L69.3403 426.53C69.7723 425.612 70.7443 425.054 71.9683 425.054C73.3363 425.054 74.3623 425.774 74.7763 426.908C75.1723 425.774 76.2343 425.054 77.6383 425.054C79.5283 425.054 80.7703 426.278 80.7703 428.294V434H79.5643V428.546C79.5643 427.052 78.7363 426.17 77.4043 426.17C75.9463 426.17 75.0823 427.268 75.0823 428.618V434H73.8583V428.528C73.8583 427.052 73.0123 426.188 71.6983 426.188C70.2403 426.188 69.3583 427.268 69.3583 428.6V434ZM86.9227 434.216C84.3667 434.216 82.6567 432.38 82.6567 429.644C82.6567 426.926 84.3487 425.054 86.8327 425.054C89.1907 425.054 90.7927 426.728 90.7927 429.194V429.806H83.8627C83.9527 431.93 85.0687 433.154 86.9407 433.154C88.3627 433.154 89.2807 432.542 89.6047 431.39H90.7927C90.3247 433.226 88.9747 434.216 86.9227 434.216ZM86.8327 426.116C85.1947 426.116 84.1147 427.196 83.8987 428.906H89.5507C89.5507 427.232 88.4707 426.116 86.8327 426.116ZM99.6066 434L96.7266 425.288H98.0046L99.7146 430.544C99.9126 431.12 100.075 431.714 100.255 432.416C100.399 431.714 100.687 430.832 100.777 430.544L102.505 425.288H103.783L105.493 430.544C105.655 431.012 105.871 431.768 106.033 432.416C106.213 431.696 106.249 431.48 106.555 430.544L108.283 425.288H109.579L106.627 434H105.421L103.621 428.528C103.405 427.88 103.261 427.34 103.153 426.818C103.027 427.286 102.883 427.808 102.649 428.528L100.849 434H99.6066ZM111.742 422.894C111.238 422.894 110.824 422.48 110.824 421.976C110.824 421.472 111.238 421.04 111.742 421.04C112.246 421.04 112.678 421.472 112.678 421.976C112.678 422.48 112.246 422.894 111.742 422.894ZM111.13 434V425.288H112.372V434H111.13ZM116.96 434H115.736V426.332H113.99V425.288H115.736V422.534H116.96V425.288H118.706V426.332H116.96V434ZM121.565 433.982H120.323V420.878H121.565V426.8C122.123 425.756 123.185 425.054 124.643 425.054C126.929 425.054 127.955 426.476 127.955 428.672V434H126.713V428.942C126.713 426.908 125.759 426.188 124.409 426.188C122.537 426.188 121.565 427.574 121.565 429.248V433.982ZM136.035 422.894C135.531 422.894 135.117 422.48 135.117 421.976C135.117 421.472 135.531 421.04 136.035 421.04C136.539 421.04 136.971 421.472 136.971 421.976C136.971 422.48 136.539 422.894 136.035 422.894ZM135.423 434V425.288H136.665V434H135.423ZM140.497 434H139.255V425.288H140.335L140.515 426.8C141.091 425.684 142.243 425.054 143.503 425.054C145.897 425.054 146.887 426.476 146.887 428.672V434H145.645V428.942C145.645 426.908 144.727 426.188 143.287 426.188C141.505 426.188 140.497 427.484 140.497 429.446V434ZM151.36 434H150.136V426.332H148.39V425.288H150.136V422.534H151.36V425.288H153.106V426.332H151.36V434ZM160.844 425.288H162.086V434H161.006L160.844 432.524C160.358 433.532 159.152 434.216 157.784 434.216C155.732 434.216 154.616 432.812 154.616 430.688V425.27H155.876V430.292C155.876 432.362 156.794 433.1 158.18 433.1C159.854 433.1 160.844 431.984 160.844 429.914V425.288ZM165.285 422.894C164.781 422.894 164.367 422.48 164.367 421.976C164.367 421.472 164.781 421.04 165.285 421.04C165.789 421.04 166.221 421.472 166.221 421.976C166.221 422.48 165.789 422.894 165.285 422.894ZM164.673 434V425.288H165.915V434H164.673ZM170.503 434H169.279V426.332H167.533V425.288H169.279V422.534H170.503V425.288H172.249V426.332H170.503V434ZM174.478 422.894C173.974 422.894 173.56 422.48 173.56 421.976C173.56 421.472 173.974 421.04 174.478 421.04C174.982 421.04 175.414 421.472 175.414 421.976C175.414 422.48 174.982 422.894 174.478 422.894ZM173.866 434V425.288H175.108V434H173.866ZM180.128 434L176.564 425.288H177.896L180.146 430.904C180.38 431.534 180.614 432.128 180.776 432.704C180.938 432.11 181.172 431.534 181.424 430.904L183.71 425.288H184.988L181.37 434H180.128ZM189.72 434.216C187.164 434.216 185.454 432.38 185.454 429.644C185.454 426.926 187.146 425.054 189.63 425.054C191.988 425.054 193.59 426.728 193.59 429.194V429.806H186.66C186.75 431.93 187.866 433.154 189.738 433.154C191.16 433.154 192.078 432.542 192.402 431.39H193.59C193.122 433.226 191.772 434.216 189.72 434.216ZM189.63 426.116C187.992 426.116 186.912 427.196 186.696 428.906H192.348C192.348 427.232 191.268 426.116 189.63 426.116ZM203.987 434.216C201.449 434.216 199.955 432.272 199.955 429.662C199.955 427.034 201.449 425.054 204.041 425.054C205.481 425.054 206.633 425.684 207.245 426.944V420.878H208.487V434H207.407L207.281 432.218C206.669 433.568 205.445 434.216 203.987 434.216ZM204.203 433.082C206.111 433.082 207.227 431.642 207.227 429.626C207.227 427.628 206.111 426.17 204.203 426.17C202.313 426.17 201.215 427.628 201.215 429.626C201.215 431.642 202.313 433.082 204.203 433.082ZM213.581 434.216C211.727 434.216 210.629 433.172 210.629 431.642C210.629 430.04 211.853 429.032 213.887 428.87L216.767 428.636V428.348C216.767 426.638 215.741 426.098 214.463 426.098C212.951 426.098 212.051 426.782 212.051 427.952H210.917C210.917 426.188 212.357 425.054 214.499 425.054C216.515 425.054 217.991 426.062 217.991 428.366V434H216.947L216.785 432.47C216.245 433.568 215.057 434.216 213.581 434.216ZM213.869 433.208C215.705 433.208 216.767 431.93 216.767 430.04V429.572L214.193 429.77C212.555 429.914 211.889 430.634 211.889 431.606C211.889 432.668 212.681 433.208 213.869 433.208ZM219.746 431.552H220.934C220.934 432.56 221.69 433.19 222.914 433.19C224.264 433.19 225.056 432.614 225.056 431.678C225.056 430.958 224.696 430.544 223.67 430.292L222.176 429.914C220.664 429.536 219.926 428.744 219.926 427.556C219.926 426.026 221.204 425.054 223.076 425.054C224.912 425.054 226.1 426.062 226.154 427.682H224.948C224.912 426.674 224.21 426.08 223.04 426.08C221.816 426.08 221.132 426.602 221.132 427.538C221.132 428.204 221.6 428.672 222.554 428.906L224.048 429.284C225.56 429.662 226.244 430.364 226.244 431.624C226.244 433.19 224.912 434.216 222.932 434.216C220.97 434.216 219.746 433.172 219.746 431.552ZM229.53 433.982H228.288V420.878H229.53V426.8C230.088 425.756 231.15 425.054 232.608 425.054C234.894 425.054 235.92 426.476 235.92 428.672V434H234.678V428.942C234.678 426.908 233.724 426.188 232.374 426.188C230.502 426.188 229.53 427.574 229.53 429.248V433.982ZM239.476 434H238.396V420.878H239.638V426.98C240.25 425.702 241.438 425.054 242.914 425.054C245.452 425.054 246.928 427.034 246.928 429.662C246.928 432.272 245.416 434.216 242.878 434.216C241.42 434.216 240.214 433.568 239.602 432.218L239.476 434ZM239.656 429.626C239.656 431.642 240.772 433.082 242.68 433.082C244.57 433.082 245.668 431.642 245.668 429.626C245.668 427.628 244.57 426.17 242.68 426.17C240.772 426.17 239.656 427.628 239.656 429.626ZM248.295 429.644C248.295 426.98 250.167 425.054 252.723 425.054C255.279 425.054 257.151 426.98 257.151 429.644C257.151 432.29 255.279 434.216 252.723 434.216C250.167 434.216 248.295 432.29 248.295 429.644ZM249.555 429.626C249.555 431.678 250.851 433.1 252.723 433.1C254.577 433.1 255.891 431.678 255.891 429.626C255.891 427.61 254.577 426.17 252.723 426.17C250.851 426.17 249.555 427.61 249.555 429.626ZM261.64 434.216C259.786 434.216 258.688 433.172 258.688 431.642C258.688 430.04 259.912 429.032 261.946 428.87L264.826 428.636V428.348C264.826 426.638 263.8 426.098 262.522 426.098C261.01 426.098 260.11 426.782 260.11 427.952H258.976C258.976 426.188 260.416 425.054 262.558 425.054C264.574 425.054 266.05 426.062 266.05 428.366V434H265.006L264.844 432.47C264.304 433.568 263.116 434.216 261.64 434.216ZM261.928 433.208C263.764 433.208 264.826 431.93 264.826 430.04V429.572L262.252 429.77C260.614 429.914 259.948 430.634 259.948 431.606C259.948 432.668 260.74 433.208 261.928 433.208ZM273.096 425.18V426.296H272.412C270.81 426.296 269.784 427.376 269.784 429.032V434H268.542V425.288H269.712L269.802 426.638C270.144 425.702 271.062 425.09 272.286 425.09C272.556 425.09 272.79 425.108 273.096 425.18ZM277.833 434.216C275.295 434.216 273.801 432.272 273.801 429.662C273.801 427.034 275.295 425.054 277.887 425.054C279.327 425.054 280.479 425.684 281.091 426.944V420.878H282.333V434H281.253L281.127 432.218C280.515 433.568 279.291 434.216 277.833 434.216ZM278.049 433.082C279.957 433.082 281.073 431.642 281.073 429.626C281.073 427.628 279.957 426.17 278.049 426.17C276.159 426.17 275.061 427.628 275.061 429.626C275.061 431.642 276.159 433.082 278.049 433.082ZM284.187 431.552H285.375C285.375 432.56 286.131 433.19 287.355 433.19C288.705 433.19 289.497 432.614 289.497 431.678C289.497 430.958 289.137 430.544 288.111 430.292L286.617 429.914C285.105 429.536 284.367 428.744 284.367 427.556C284.367 426.026 285.645 425.054 287.517 425.054C289.353 425.054 290.541 426.062 290.595 427.682H289.389C289.353 426.674 288.651 426.08 287.481 426.08C286.257 426.08 285.573 426.602 285.573 427.538C285.573 428.204 286.041 428.672 286.995 428.906L288.489 429.284C290.001 429.662 290.685 430.364 290.685 431.624C290.685 433.19 289.353 434.216 287.373 434.216C285.411 434.216 284.187 433.172 284.187 431.552ZM27.798 461.216C25.944 461.216 24.846 460.172 24.846 458.642C24.846 457.04 26.07 456.032 28.104 455.87L30.984 455.636V455.348C30.984 453.638 29.958 453.098 28.68 453.098C27.168 453.098 26.268 453.782 26.268 454.952H25.134C25.134 453.188 26.574 452.054 28.716 452.054C30.732 452.054 32.208 453.062 32.208 455.366V461H31.164L31.002 459.47C30.462 460.568 29.274 461.216 27.798 461.216ZM28.086 460.208C29.922 460.208 30.984 458.93 30.984 457.04V456.572L28.41 456.77C26.772 456.914 26.106 457.634 26.106 458.606C26.106 459.668 26.898 460.208 28.086 460.208ZM35.9423 461H34.7003V452.288H35.7803L35.9603 453.8C36.5363 452.684 37.6883 452.054 38.9483 452.054C41.3423 452.054 42.3323 453.476 42.3323 455.672V461H41.0903V455.942C41.0903 453.908 40.1723 453.188 38.7323 453.188C36.9503 453.188 35.9423 454.484 35.9423 456.446V461ZM48.2277 461.216C45.6897 461.216 44.1957 459.272 44.1957 456.662C44.1957 454.034 45.6897 452.054 48.2817 452.054C49.7217 452.054 50.8737 452.684 51.4857 453.944V447.878H52.7277V461H51.6477L51.5217 459.218C50.9097 460.568 49.6857 461.216 48.2277 461.216ZM48.4437 460.082C50.3517 460.082 51.4677 458.642 51.4677 456.626C51.4677 454.628 50.3517 453.17 48.4437 453.17C46.5537 453.17 45.4557 454.628 45.4557 456.626C45.4557 458.642 46.5537 460.082 48.4437 460.082ZM62.8136 461.216C60.9596 461.216 59.8616 460.172 59.8616 458.642C59.8616 457.04 61.0856 456.032 63.1196 455.87L65.9996 455.636V455.348C65.9996 453.638 64.9736 453.098 63.6956 453.098C62.1836 453.098 61.2836 453.782 61.2836 454.952H60.1496C60.1496 453.188 61.5896 452.054 63.7316 452.054C65.7476 452.054 67.2236 453.062 67.2236 455.366V461H66.1796L66.0176 459.47C65.4776 460.568 64.2896 461.216 62.8136 461.216ZM63.1016 460.208C64.9376 460.208 65.9996 458.93 65.9996 457.04V456.572L63.4256 456.77C61.7876 456.914 61.1216 457.634 61.1216 458.606C61.1216 459.668 61.9136 460.208 63.1016 460.208ZM70.9579 461H69.7159V452.288H70.7959L70.9759 453.8C71.5519 452.684 72.7039 452.054 73.9639 452.054C76.3579 452.054 77.3479 453.476 77.3479 455.672V461H76.1059V455.942C76.1059 453.908 75.1879 453.188 73.7479 453.188C71.9659 453.188 70.9579 454.484 70.9579 456.446V461ZM82.3253 461.216C80.4713 461.216 79.3733 460.172 79.3733 458.642C79.3733 457.04 80.5973 456.032 82.6313 455.87L85.5113 455.636V455.348C85.5113 453.638 84.4853 453.098 83.2073 453.098C81.6953 453.098 80.7953 453.782 80.7953 454.952H79.6613C79.6613 453.188 81.1013 452.054 83.2433 452.054C85.2593 452.054 86.7353 453.062 86.7353 455.366V461H85.6913L85.5293 459.47C84.9893 460.568 83.8013 461.216 82.3253 461.216ZM82.6133 460.208C84.4493 460.208 85.5113 458.93 85.5113 457.04V456.572L82.9373 456.77C81.2993 456.914 80.6333 457.634 80.6333 458.606C80.6333 459.668 81.4253 460.208 82.6133 460.208ZM90.5236 461H89.2816V447.878H90.5236V461ZM92.2831 464.798V463.772H93.2371C93.9931 463.772 94.7491 463.718 95.1811 462.548L95.5591 461.522L92.0311 452.288H93.3451L96.1531 459.884L98.9071 452.288H100.185L96.1891 462.998C95.6851 464.366 94.8391 464.924 93.5971 464.924C93.0751 464.924 92.6791 464.888 92.2831 464.798ZM103.636 461H102.412V453.332H100.666V452.288H102.412V449.534H103.636V452.288H105.382V453.332H103.636V461ZM107.611 449.894C107.107 449.894 106.693 449.48 106.693 448.976C106.693 448.472 107.107 448.04 107.611 448.04C108.115 448.04 108.547 448.472 108.547 448.976C108.547 449.48 108.115 449.894 107.611 449.894ZM106.999 461V452.288H108.241V461H106.999ZM110.219 456.662C110.219 453.926 111.893 452.054 114.431 452.054C116.447 452.054 117.923 453.224 118.265 455.024H117.023C116.699 453.818 115.655 453.152 114.449 453.152C112.685 453.152 111.443 454.502 111.443 456.644C111.443 458.714 112.595 460.1 114.359 460.1C115.655 460.1 116.699 459.38 117.041 458.264H118.301C117.887 460.046 116.339 461.216 114.359 461.216C111.893 461.216 110.219 459.398 110.219 456.662ZM119.445 458.552H120.633C120.633 459.56 121.389 460.19 122.613 460.19C123.963 460.19 124.755 459.614 124.755 458.678C124.755 457.958 124.395 457.544 123.369 457.292L121.875 456.914C120.363 456.536 119.625 455.744 119.625 454.556C119.625 453.026 120.903 452.054 122.775 452.054C124.611 452.054 125.799 453.062 125.853 454.682H124.647C124.611 453.674 123.909 453.08 122.739 453.08C121.515 453.08 120.831 453.602 120.831 454.538C120.831 455.204 121.299 455.672 122.253 455.906L123.747 456.284C125.259 456.662 125.943 457.364 125.943 458.624C125.943 460.19 124.611 461.216 122.631 461.216C120.669 461.216 119.445 460.172 119.445 458.552ZM128.909 461.198C128.297 461.198 127.775 460.694 127.775 460.1C127.775 459.488 128.297 458.966 128.909 458.966C129.521 458.966 130.043 459.488 130.043 460.1C130.043 460.694 129.521 461.198 128.909 461.198Z" fill="#606060"/>
        <path d="M36.192 269.073H37.0903V274.376C37.0903 274.849 37.0034 275.251 36.8295 275.582C36.6556 275.913 36.4105 276.164 36.0942 276.335C35.7778 276.507 35.4047 276.593 34.9749 276.593C34.5692 276.593 34.2082 276.519 33.8918 276.372C33.5755 276.222 33.3267 276.009 33.1456 275.734C32.9645 275.459 32.8739 275.132 32.8739 274.752H33.7578C33.7578 274.963 33.8097 275.146 33.9135 275.303C34.0198 275.458 34.1647 275.578 34.3482 275.665C34.5317 275.752 34.7406 275.796 34.9749 275.796C35.2333 275.796 35.453 275.741 35.6341 275.633C35.8153 275.524 35.9529 275.365 36.0471 275.155C36.1437 274.942 36.192 274.682 36.192 274.376V269.073ZM40.412 276.622C40.0594 276.622 39.7395 276.555 39.4521 276.422C39.1647 276.287 38.9365 276.093 38.7675 275.839C38.5984 275.583 38.5139 275.274 38.5139 274.912C38.5139 274.593 38.5767 274.335 38.7023 274.137C38.8278 273.936 38.9957 273.779 39.2058 273.666C39.4159 273.552 39.6477 273.468 39.9013 273.412C40.1572 273.354 40.4144 273.308 40.6728 273.275C41.0109 273.231 41.285 273.199 41.4951 273.177C41.7076 273.153 41.8621 273.113 41.9587 273.057C42.0577 273.002 42.1073 272.905 42.1073 272.767V272.738C42.1073 272.381 42.0095 272.103 41.8138 271.905C41.6207 271.707 41.3272 271.608 40.9336 271.608C40.5255 271.608 40.2055 271.698 39.9737 271.876C39.7419 272.055 39.5789 272.246 39.4847 272.449L38.6733 272.159C38.8182 271.821 39.0114 271.558 39.2529 271.369C39.4968 271.178 39.7624 271.046 40.0498 270.971C40.3396 270.893 40.6245 270.855 40.9046 270.855C41.0833 270.855 41.2886 270.877 41.5204 270.92C41.7547 270.961 41.9805 271.047 42.1978 271.177C42.4176 271.308 42.5999 271.504 42.7448 271.768C42.8897 272.031 42.9621 272.383 42.9621 272.825V276.491H42.1073V275.738H42.0638C42.0058 275.859 41.9092 275.988 41.774 276.125C41.6388 276.263 41.4589 276.38 41.2343 276.477C41.0097 276.573 40.7356 276.622 40.412 276.622ZM40.5424 275.854C40.8805 275.854 41.1654 275.787 41.3973 275.654C41.6315 275.522 41.8078 275.35 41.9261 275.14C42.0469 274.93 42.1073 274.709 42.1073 274.477V273.695C42.071 273.738 41.9913 273.778 41.8682 273.814C41.7474 273.848 41.6074 273.878 41.448 273.905C41.291 273.929 41.1377 273.951 40.988 273.97C40.8406 273.987 40.7211 274.001 40.6293 274.014C40.4072 274.043 40.1995 274.09 40.0063 274.155C39.8155 274.218 39.661 274.313 39.5426 274.441C39.4267 274.567 39.3688 274.738 39.3688 274.955C39.3688 275.252 39.4786 275.477 39.6984 275.629C39.9206 275.779 40.2019 275.854 40.5424 275.854ZM45.3773 273.144V276.491H44.5224V270.927H45.3483V271.797H45.4208C45.5512 271.514 45.7492 271.287 46.0148 271.116C46.2805 270.942 46.6234 270.855 47.0436 270.855C47.4203 270.855 47.7499 270.932 48.0325 271.087C48.315 271.239 48.5348 271.471 48.6917 271.782C48.8487 272.091 48.9272 272.482 48.9272 272.956V276.491H48.0723V273.014C48.0723 272.577 47.9588 272.236 47.7318 271.992C47.5048 271.746 47.1933 271.623 46.7973 271.623C46.5244 271.623 46.2805 271.682 46.0656 271.8C45.853 271.919 45.6852 272.091 45.5621 272.318C45.4389 272.545 45.3773 272.821 45.3773 273.144Z" fill="#615E83"/>
        <rect x="128.686" y="262.392" width="56.5012" height="22.2005" rx="11.1002" fill="#4A3AFF"/>
        <path d="M142.748 269.073H143.821L146.342 275.231H146.429L148.95 269.073H150.022V276.492H149.182V270.856H149.109L146.791 276.492H145.98L143.661 270.856H143.589V276.492H142.748V269.073ZM153.345 276.622C152.992 276.622 152.672 276.556 152.385 276.423C152.097 276.288 151.869 276.093 151.7 275.84C151.531 275.584 151.447 275.275 151.447 274.913C151.447 274.594 151.509 274.335 151.635 274.137C151.76 273.937 151.928 273.78 152.138 273.667C152.349 273.553 152.58 273.469 152.834 273.413C153.09 273.355 153.347 273.309 153.605 273.275C153.944 273.232 154.218 273.199 154.428 273.178C154.64 273.153 154.795 273.114 154.891 273.058C154.99 273.002 155.04 272.906 155.04 272.768V272.739C155.04 272.382 154.942 272.104 154.746 271.906C154.553 271.708 154.26 271.609 153.866 271.609C153.458 271.609 153.138 271.698 152.906 271.877C152.675 272.056 152.512 272.247 152.417 272.449L151.606 272.16C151.751 271.822 151.944 271.558 152.186 271.37C152.429 271.179 152.695 271.046 152.982 270.972C153.272 270.894 153.557 270.856 153.837 270.856C154.016 270.856 154.221 270.877 154.453 270.921C154.687 270.962 154.913 271.048 155.13 271.178C155.35 271.308 155.533 271.505 155.677 271.768C155.822 272.032 155.895 272.384 155.895 272.826V276.492H155.04V275.738H154.996C154.938 275.859 154.842 275.988 154.707 276.126C154.571 276.264 154.392 276.381 154.167 276.477C153.942 276.574 153.668 276.622 153.345 276.622ZM153.475 275.854C153.813 275.854 154.098 275.788 154.33 275.655C154.564 275.522 154.74 275.351 154.859 275.141C154.98 274.931 155.04 274.71 155.04 274.478V273.696C155.004 273.739 154.924 273.779 154.801 273.815C154.68 273.849 154.54 273.879 154.381 273.906C154.224 273.93 154.07 273.951 153.921 273.971C153.773 273.988 153.654 274.002 153.562 274.014C153.34 274.043 153.132 274.09 152.939 274.156C152.748 274.218 152.594 274.314 152.475 274.442C152.359 274.567 152.301 274.739 152.301 274.956C152.301 275.253 152.411 275.478 152.631 275.63C152.853 275.78 153.135 275.854 153.475 275.854ZM157.455 276.492V270.928H158.281V271.768H158.339C158.44 271.493 158.624 271.27 158.89 271.098C159.155 270.927 159.455 270.841 159.788 270.841C159.851 270.841 159.929 270.842 160.023 270.845C160.118 270.847 160.189 270.851 160.237 270.856V271.725C160.208 271.718 160.142 271.707 160.038 271.692C159.936 271.675 159.829 271.667 159.715 271.667C159.445 271.667 159.203 271.724 158.991 271.837C158.781 271.948 158.614 272.103 158.491 272.301C158.37 272.497 158.31 272.72 158.31 272.971V276.492H157.455ZM163.341 276.608C162.82 276.608 162.371 276.485 161.994 276.238C161.617 275.992 161.327 275.653 161.125 275.221C160.922 274.788 160.82 274.294 160.82 273.739C160.82 273.174 160.924 272.675 161.132 272.243C161.342 271.808 161.634 271.469 162.008 271.225C162.385 270.979 162.825 270.856 163.327 270.856C163.718 270.856 164.071 270.928 164.385 271.073C164.699 271.218 164.956 271.421 165.156 271.681C165.357 271.942 165.481 272.247 165.529 272.594H164.674C164.609 272.341 164.464 272.116 164.24 271.921C164.018 271.723 163.718 271.624 163.341 271.624C163.008 271.624 162.716 271.71 162.465 271.884C162.216 272.056 162.022 272.298 161.882 272.612C161.744 272.924 161.675 273.29 161.675 273.71C161.675 274.14 161.743 274.514 161.878 274.833C162.016 275.152 162.209 275.399 162.458 275.575C162.709 275.752 163.003 275.84 163.341 275.84C163.564 275.84 163.765 275.801 163.946 275.724C164.127 275.647 164.281 275.536 164.406 275.391C164.532 275.246 164.621 275.072 164.674 274.869H165.529C165.481 275.198 165.361 275.493 165.171 275.757C164.982 276.017 164.732 276.225 164.421 276.38C164.112 276.532 163.752 276.608 163.341 276.608ZM167.634 273.145V276.492H166.779V269.073H167.634V271.797H167.706C167.837 271.51 168.032 271.282 168.293 271.113C168.556 270.941 168.906 270.856 169.344 270.856C169.723 270.856 170.055 270.932 170.34 271.084C170.625 271.234 170.846 271.464 171.003 271.776C171.162 272.085 171.242 272.478 171.242 272.957V276.492H170.387V273.015C170.387 272.573 170.272 272.231 170.043 271.989C169.816 271.745 169.501 271.624 169.097 271.624C168.817 271.624 168.566 271.683 168.344 271.801C168.124 271.919 167.95 272.092 167.822 272.319C167.697 272.546 167.634 272.821 167.634 273.145Z" fill="white"/>
        <path d="M87.5791 276.491V269.073H92.0273V269.87H88.4775V272.376H91.6941V273.173H88.4775V276.491H87.5791ZM95.3744 276.607C94.8383 276.607 94.3758 276.489 93.987 276.252C93.6006 276.013 93.3024 275.68 93.0923 275.252C92.8846 274.823 92.7808 274.323 92.7808 273.753C92.7808 273.183 92.8846 272.681 93.0923 272.246C93.3024 271.809 93.5946 271.468 93.9689 271.224C94.3456 270.978 94.7851 270.855 95.2874 270.855C95.5772 270.855 95.8634 270.903 96.1459 271C96.4285 271.096 96.6857 271.253 96.9175 271.471C97.1493 271.686 97.3341 271.971 97.4717 272.326C97.6094 272.681 97.6782 273.118 97.6782 273.637V273.999H93.3893V273.26H96.8088C96.8088 272.946 96.746 272.666 96.6205 272.42C96.4973 272.173 96.321 271.979 96.0916 271.837C95.8646 271.694 95.5965 271.623 95.2874 271.623C94.9469 271.623 94.6523 271.707 94.4036 271.876C94.1573 272.043 93.9677 272.26 93.8349 272.528C93.7021 272.796 93.6357 273.084 93.6357 273.39V273.883C93.6357 274.303 93.7081 274.66 93.853 274.952C94.0003 275.242 94.2044 275.462 94.4652 275.615C94.726 275.764 95.029 275.839 95.3744 275.839C95.599 275.839 95.8018 275.808 95.9829 275.745C96.1665 275.68 96.3246 275.583 96.4574 275.455C96.5903 275.325 96.6929 275.163 96.7653 274.97L97.5912 275.202C97.5043 275.482 97.3582 275.728 97.1529 275.941C96.9477 276.151 96.6941 276.315 96.3922 276.433C96.0904 276.549 95.7511 276.607 95.3744 276.607ZM99.0945 276.491V269.073H99.9494V271.811H100.022C100.085 271.715 100.172 271.591 100.283 271.442C100.396 271.29 100.558 271.154 100.768 271.036C100.981 270.915 101.268 270.855 101.63 270.855C102.099 270.855 102.512 270.972 102.869 271.206C103.226 271.44 103.505 271.773 103.706 272.202C103.906 272.632 104.006 273.139 104.006 273.724C104.006 274.313 103.906 274.824 103.706 275.256C103.505 275.686 103.228 276.019 102.873 276.256C102.518 276.49 102.108 276.607 101.645 276.607C101.287 276.607 101.001 276.548 100.786 276.43C100.571 276.309 100.406 276.172 100.29 276.02C100.174 275.866 100.085 275.738 100.022 275.636H99.9204V276.491H99.0945ZM99.9349 273.709C99.9349 274.129 99.9965 274.5 100.12 274.821C100.243 275.14 100.423 275.39 100.659 275.571C100.896 275.75 101.186 275.839 101.529 275.839C101.886 275.839 102.184 275.745 102.423 275.557C102.665 275.366 102.846 275.11 102.967 274.789C103.09 274.465 103.152 274.105 103.152 273.709C103.152 273.318 103.091 272.965 102.97 272.652C102.852 272.335 102.672 272.085 102.431 271.902C102.192 271.716 101.891 271.623 101.529 271.623C101.181 271.623 100.889 271.711 100.652 271.887C100.415 272.061 100.237 272.305 100.116 272.619C99.9953 272.93 99.9349 273.294 99.9349 273.709Z" fill="#615E83"/>
        <path d="M210.5 276.491H209.558L212.282 269.073H213.209L215.933 276.491H214.992L212.775 270.246H212.717L210.5 276.491ZM210.848 273.593H214.644V274.39H210.848V273.593ZM216.973 278.578V270.927H217.799V271.811H217.9C217.963 271.715 218.05 271.591 218.161 271.442C218.275 271.29 218.437 271.154 218.647 271.036C218.859 270.915 219.146 270.855 219.509 270.855C219.977 270.855 220.39 270.972 220.748 271.206C221.105 271.44 221.384 271.773 221.584 272.202C221.785 272.632 221.885 273.139 221.885 273.724C221.885 274.313 221.785 274.824 221.584 275.256C221.384 275.686 221.106 276.019 220.751 276.256C220.396 276.49 219.987 276.607 219.523 276.607C219.166 276.607 218.88 276.548 218.665 276.43C218.45 276.309 218.284 276.172 218.168 276.02C218.053 275.866 217.963 275.738 217.9 275.636H217.828V278.578H216.973ZM217.813 273.709C217.813 274.129 217.875 274.5 217.998 274.821C218.121 275.14 218.301 275.39 218.538 275.571C218.775 275.75 219.064 275.839 219.407 275.839C219.765 275.839 220.063 275.745 220.302 275.557C220.544 275.366 220.725 275.11 220.845 274.789C220.969 274.465 221.03 274.105 221.03 273.709C221.03 273.318 220.97 272.965 220.849 272.652C220.731 272.335 220.551 272.085 220.309 271.902C220.07 271.716 219.77 271.623 219.407 271.623C219.06 271.623 218.767 271.711 218.531 271.887C218.294 272.061 218.115 272.305 217.995 272.619C217.874 272.93 217.813 273.294 217.813 273.709ZM223.189 276.491V270.927H224.015V271.768H224.073C224.174 271.492 224.358 271.269 224.623 271.098C224.889 270.926 225.189 270.84 225.522 270.84C225.585 270.84 225.663 270.842 225.757 270.844C225.851 270.846 225.923 270.85 225.971 270.855V271.724C225.942 271.717 225.876 271.706 225.772 271.692C225.67 271.675 225.563 271.666 225.449 271.666C225.179 271.666 224.937 271.723 224.725 271.837C224.515 271.948 224.348 272.102 224.225 272.3C224.104 272.496 224.044 272.719 224.044 272.97V276.491H223.189Z" fill="#615E83"/>
        <path d="M265.912 269.073H266.984L269.505 275.231H269.592L272.113 269.073H273.185V276.491H272.345V270.855H272.273L269.954 276.491H269.143L266.825 270.855H266.752V276.491H265.912V269.073ZM276.508 276.622C276.155 276.622 275.836 276.555 275.548 276.422C275.261 276.287 275.033 276.093 274.864 275.839C274.694 275.583 274.61 275.274 274.61 274.912C274.61 274.593 274.673 274.335 274.798 274.137C274.924 273.936 275.092 273.779 275.302 273.666C275.512 273.552 275.744 273.468 275.997 273.412C276.253 273.354 276.51 273.308 276.769 273.275C277.107 273.231 277.381 273.199 277.591 273.177C277.804 273.153 277.958 273.113 278.055 273.057C278.154 273.002 278.203 272.905 278.203 272.767V272.738C278.203 272.381 278.106 272.103 277.91 271.905C277.717 271.707 277.423 271.608 277.03 271.608C276.622 271.608 276.302 271.698 276.07 271.876C275.838 272.055 275.675 272.246 275.581 272.449L274.769 272.159C274.914 271.821 275.107 271.558 275.349 271.369C275.593 271.178 275.858 271.046 276.146 270.971C276.436 270.893 276.721 270.855 277.001 270.855C277.179 270.855 277.385 270.877 277.617 270.92C277.851 270.961 278.077 271.047 278.294 271.177C278.514 271.308 278.696 271.504 278.841 271.768C278.986 272.031 279.058 272.383 279.058 272.825V276.491H278.203V275.738H278.16C278.102 275.859 278.005 275.988 277.87 276.125C277.735 276.263 277.555 276.38 277.33 276.477C277.106 276.573 276.832 276.622 276.508 276.622ZM276.638 275.854C276.977 275.854 277.262 275.787 277.493 275.654C277.728 275.522 277.904 275.35 278.022 275.14C278.143 274.93 278.203 274.709 278.203 274.477V273.695C278.167 273.738 278.087 273.778 277.964 273.814C277.844 273.848 277.703 273.878 277.544 273.905C277.387 273.929 277.234 273.951 277.084 273.97C276.937 273.987 276.817 274.001 276.725 274.014C276.503 274.043 276.296 274.09 276.102 274.155C275.912 274.218 275.757 274.313 275.639 274.441C275.523 274.567 275.465 274.738 275.465 274.955C275.465 275.252 275.575 275.477 275.794 275.629C276.017 275.779 276.298 275.854 276.638 275.854ZM280.97 278.578C280.825 278.578 280.696 278.566 280.582 278.541C280.469 278.52 280.39 278.498 280.347 278.476L280.564 277.723C280.772 277.776 280.955 277.795 281.115 277.781C281.274 277.766 281.415 277.695 281.539 277.567C281.664 277.441 281.779 277.237 281.883 276.955L282.042 276.52L279.985 270.927H280.912L282.448 275.361H282.506L284.042 270.927H284.969L282.607 277.303C282.501 277.59 282.369 277.828 282.212 278.016C282.055 278.207 281.873 278.348 281.665 278.44C281.46 278.532 281.228 278.578 280.97 278.578Z" fill="#615E83"/>
        <g opacity="0.33" style="mix-blend-mode:multiply">
            <path d="M45.0116 163.763L17.0945 192.724V252.19H299.871V197.419C294.138 191.785 281.635 179.301 277.484 174.438C272.295 168.36 262.658 171.177 255.986 171.028C249.314 170.88 246.349 165.246 246.646 156.351C246.942 147.455 245.311 147.751 240.567 144.193C236.771 141.346 230.189 146.763 227.372 149.827C217.636 159.612 196.83 180.547 191.493 186.003C186.155 191.458 180.769 188.276 178.742 186.003C170.44 177.947 152.085 160.087 145.087 153.089C138.089 146.091 131.595 150.173 129.223 153.089C126.653 155.56 120.713 161.154 117.511 163.763C113.508 167.025 103.723 164.801 98.2369 163.763C92.7512 162.726 90.2308 161.836 84.1521 167.618C78.0734 173.4 73.9963 173.919 63.8404 163.763C55.7158 155.639 47.9026 160.378 45.0116 163.763Z" fill="url(#paint0_linear_71_13182)"/>
        </g>
        <path d="M18.3279 192.724L46.0013 163.763C48.8671 160.378 56.612 155.639 64.6658 163.763C74.733 173.919 78.7745 173.4 84.8001 167.618C90.8257 161.836 93.3242 162.726 98.7619 163.763C104.2 164.801 113.899 167.025 117.868 163.763C121.042 161.154 126.93 155.56 129.478 153.089C131.829 150.173 138.266 146.091 145.203 153.089C152.14 160.087 170.334 177.947 178.565 186.003C180.573 188.276 185.913 191.458 191.204 186.003C196.494 180.547 217.119 159.612 226.769 149.827C229.562 146.763 236.087 141.346 239.849 144.193C244.552 147.751 246.169 147.455 245.875 156.351C245.581 165.246 248.52 170.88 255.134 171.028C261.747 171.177 271.3 168.36 276.444 174.438C280.559 179.301 292.953 191.785 298.636 197.419" stroke="#2D5BFF" stroke-width="2.55012" stroke-linecap="round" stroke-linejoin="round"/>
        <line x1="157.689" y1="165.318" x2="157.689" y2="246.135" stroke="#4A3AFF" stroke-width="1.91259" stroke-linecap="round"/>
        <g filter="url(#filter0_d_71_13182)">
            <circle cx="157.496" cy="164.361" r="6.91322" fill="#4A3AFF"/>
            <circle cx="157.496" cy="164.361" r="5.95693" stroke="white" stroke-width="1.91259"/>
        </g>
        <path d="M109.988 98.9538V119.355H105.674V103.048H105.555L100.883 105.977V102.151L105.933 98.9538H109.988ZM123.712 98.9538V119.355H119.399V103.048H119.279L114.607 105.977V102.151L119.658 98.9538H123.712ZM132.117 116.566L132.007 117.661C131.921 118.538 131.755 119.411 131.509 120.281C131.27 121.158 131.018 121.951 130.752 122.662C130.493 123.373 130.284 123.93 130.125 124.335H127.375C127.475 123.944 127.611 123.396 127.784 122.692C127.956 121.995 128.119 121.211 128.272 120.341C128.425 119.471 128.521 118.584 128.561 117.681L128.611 116.566H132.117ZM135.997 119.355L144.454 102.62V102.48H134.602V98.9538H148.917V102.53L140.45 119.355H135.997ZM159.05 119.634C157.642 119.634 156.387 119.375 155.285 118.857C154.189 118.339 153.319 117.625 152.675 116.715C152.031 115.805 151.695 114.763 151.669 113.587H155.853C155.899 114.377 156.231 115.018 156.849 115.51C157.466 116.001 158.2 116.247 159.05 116.247C159.728 116.247 160.325 116.097 160.843 115.799C161.368 115.493 161.776 115.071 162.068 114.533C162.367 113.989 162.517 113.365 162.517 112.661C162.517 111.943 162.364 111.313 162.059 110.768C161.76 110.223 161.345 109.798 160.813 109.493C160.282 109.187 159.674 109.031 158.99 109.025C158.393 109.025 157.812 109.148 157.247 109.393C156.689 109.639 156.254 109.974 155.942 110.399L152.107 109.712L153.073 98.9538H165.545V102.48H156.63L156.102 107.59H156.221C156.58 107.086 157.121 106.667 157.845 106.335C158.569 106.003 159.379 105.837 160.275 105.837C161.504 105.837 162.6 106.126 163.563 106.704C164.526 107.281 165.286 108.075 165.844 109.085C166.402 110.087 166.677 111.243 166.671 112.551C166.677 113.926 166.359 115.148 165.714 116.217C165.077 117.279 164.184 118.116 163.035 118.727C161.893 119.331 160.564 119.634 159.05 119.634ZM177.509 119.634C176.459 119.627 175.447 119.451 174.47 119.106C173.501 118.76 172.631 118.199 171.861 117.422C171.09 116.645 170.479 115.616 170.028 114.334C169.583 113.052 169.36 111.479 169.36 109.612C169.367 107.899 169.563 106.368 169.948 105.02C170.34 103.666 170.898 102.517 171.621 101.574C172.352 100.631 173.225 99.9134 174.241 99.4219C175.257 98.9239 176.396 98.6748 177.658 98.6748C179.019 98.6748 180.222 98.9405 181.264 99.4717C182.307 99.9964 183.144 100.71 183.774 101.613C184.412 102.517 184.797 103.529 184.93 104.652H180.676C180.51 103.941 180.162 103.383 179.63 102.978C179.099 102.573 178.442 102.371 177.658 102.371C176.33 102.371 175.32 102.948 174.63 104.104C173.946 105.259 173.597 106.83 173.584 108.816H173.723C174.029 108.211 174.441 107.697 174.959 107.272C175.483 106.84 176.078 106.511 176.742 106.285C177.412 106.053 178.12 105.937 178.863 105.937C180.072 105.937 181.148 106.222 182.091 106.793C183.034 107.358 183.778 108.135 184.322 109.124C184.867 110.114 185.139 111.246 185.139 112.521C185.139 113.903 184.817 115.131 184.173 116.207C183.535 117.283 182.642 118.126 181.493 118.737C180.351 119.341 179.023 119.64 177.509 119.634ZM177.489 116.247C178.153 116.247 178.747 116.087 179.272 115.769C179.796 115.45 180.208 115.018 180.507 114.474C180.806 113.929 180.955 113.318 180.955 112.641C180.955 111.963 180.806 111.356 180.507 110.818C180.215 110.28 179.81 109.852 179.292 109.533C178.774 109.214 178.183 109.055 177.519 109.055C177.021 109.055 176.559 109.148 176.134 109.334C175.716 109.519 175.347 109.778 175.028 110.111C174.716 110.443 174.47 110.828 174.291 111.266C174.112 111.698 174.022 112.159 174.022 112.651C174.022 113.308 174.172 113.909 174.47 114.454C174.776 114.998 175.188 115.433 175.706 115.759C176.23 116.084 176.825 116.247 177.489 116.247Z" fill="#1E1B39"/>
        <path d="M199.179 118.576V117.866L201.376 115.59C201.61 115.343 201.804 115.126 201.956 114.94C202.11 114.752 202.225 114.574 202.301 114.405C202.378 114.236 202.416 114.056 202.416 113.866C202.416 113.65 202.365 113.465 202.263 113.308C202.162 113.15 202.024 113.028 201.848 112.944C201.673 112.857 201.475 112.814 201.256 112.814C201.023 112.814 200.82 112.861 200.647 112.956C200.474 113.051 200.341 113.186 200.248 113.359C200.155 113.532 200.108 113.735 200.108 113.967H199.173C199.173 113.572 199.264 113.227 199.446 112.931C199.627 112.635 199.877 112.406 200.194 112.243C200.511 112.078 200.871 111.996 201.275 111.996C201.682 111.996 202.042 112.077 202.352 112.24C202.665 112.401 202.909 112.62 203.084 112.899C203.26 113.176 203.347 113.489 203.347 113.837C203.347 114.078 203.302 114.314 203.211 114.544C203.122 114.775 202.967 115.031 202.745 115.314C202.523 115.596 202.215 115.937 201.82 116.338L200.53 117.688V117.736H203.452V118.576H199.179ZM206.913 118.665C206.478 118.665 206.089 118.59 205.747 118.44C205.407 118.29 205.137 118.081 204.939 117.815C204.742 117.547 204.636 117.236 204.622 116.883H205.617C205.629 117.076 205.694 117.243 205.81 117.384C205.928 117.524 206.083 117.631 206.273 117.707C206.463 117.784 206.674 117.822 206.907 117.822C207.162 117.822 207.389 117.777 207.585 117.688C207.784 117.6 207.939 117.476 208.051 117.318C208.163 117.157 208.219 116.972 208.219 116.763C208.219 116.545 208.163 116.354 208.051 116.189C207.941 116.022 207.779 115.891 207.566 115.796C207.355 115.701 207.099 115.654 206.799 115.654H206.251V114.855H206.799C207.04 114.855 207.251 114.812 207.433 114.725C207.617 114.638 207.76 114.518 207.864 114.364C207.968 114.207 208.019 114.024 208.019 113.815C208.019 113.615 207.974 113.44 207.883 113.292C207.794 113.142 207.667 113.025 207.503 112.94C207.34 112.856 207.148 112.814 206.926 112.814C206.715 112.814 206.517 112.853 206.333 112.931C206.151 113.007 206.003 113.117 205.889 113.261C205.775 113.402 205.714 113.572 205.706 113.771H204.758C204.768 113.42 204.872 113.112 205.068 112.845C205.267 112.579 205.529 112.371 205.855 112.221C206.18 112.071 206.541 111.996 206.938 111.996C207.355 111.996 207.714 112.077 208.016 112.24C208.32 112.401 208.555 112.615 208.72 112.883C208.887 113.152 208.969 113.445 208.967 113.765C208.969 114.128 208.868 114.437 208.663 114.69C208.46 114.944 208.189 115.114 207.851 115.2V115.251C208.282 115.317 208.616 115.488 208.853 115.765C209.092 116.041 209.21 116.385 209.208 116.795C209.21 117.152 209.111 117.472 208.91 117.755C208.711 118.038 208.44 118.261 208.095 118.424C207.751 118.584 207.357 118.665 206.913 118.665ZM213.794 117.359V117.017C213.794 116.771 213.845 116.547 213.946 116.345C214.05 116.14 214.2 115.976 214.396 115.853C214.595 115.729 214.835 115.666 215.116 115.666C215.403 115.666 215.644 115.728 215.839 115.85C216.033 115.973 216.18 116.136 216.279 116.341C216.381 116.546 216.431 116.771 216.431 117.017V117.359C216.431 117.604 216.381 117.829 216.279 118.034C216.178 118.237 216.029 118.401 215.832 118.525C215.638 118.648 215.399 118.709 215.116 118.709C214.831 118.709 214.59 118.648 214.393 118.525C214.197 118.401 214.048 118.237 213.946 118.034C213.845 117.829 213.794 117.604 213.794 117.359ZM214.533 117.017V117.359C214.533 117.541 214.576 117.705 214.663 117.853C214.749 118.001 214.9 118.075 215.116 118.075C215.329 118.075 215.478 118.001 215.563 117.853C215.647 117.705 215.69 117.541 215.69 117.359V117.017C215.69 116.835 215.648 116.67 215.566 116.522C215.486 116.374 215.336 116.3 215.116 116.3C214.905 116.3 214.755 116.374 214.666 116.522C214.577 116.67 214.533 116.835 214.533 117.017ZM210.53 113.644V113.302C210.53 113.057 210.58 112.832 210.682 112.627C210.785 112.422 210.935 112.258 211.132 112.135C211.33 112.013 211.57 111.952 211.851 111.952C212.139 111.952 212.38 112.013 212.574 112.135C212.768 112.258 212.915 112.422 213.015 112.627C213.114 112.832 213.163 113.057 213.163 113.302V113.644C213.163 113.889 213.113 114.114 213.011 114.319C212.912 114.522 212.764 114.686 212.568 114.811C212.373 114.933 212.134 114.994 211.851 114.994C211.564 114.994 211.322 114.933 211.125 114.811C210.931 114.686 210.783 114.522 210.682 114.319C210.58 114.114 210.53 113.889 210.53 113.644ZM211.271 113.302V113.644C211.271 113.826 211.314 113.991 211.398 114.139C211.485 114.286 211.636 114.36 211.851 114.36C212.063 114.36 212.21 114.286 212.295 114.139C212.382 113.991 212.425 113.826 212.425 113.644V113.302C212.425 113.12 212.384 112.955 212.301 112.807C212.219 112.659 212.069 112.585 211.851 112.585C211.64 112.585 211.49 112.659 211.401 112.807C211.315 112.955 211.271 113.12 211.271 113.302ZM210.831 118.576L215.293 112.085H216.051L211.588 118.576H210.831Z" fill="#1E1B39"/>
        <path d="M192.791 113.687C193.278 113.006 194.289 113.006 194.775 113.687L196.767 116.471C197.345 117.279 196.768 118.401 195.775 118.401H191.791C190.799 118.401 190.222 117.279 190.799 116.471L192.791 113.687Z" fill="#04CE00"/>
    </g>
    <defs>
        <filter id="filter0_d_71_13182" x="145.483" y="156.811" width="24.0269" height="24.0269" filterUnits="userSpaceOnUse" color-interpolation-filters="sRGB">
            <feFlood flood-opacity="0" result="BackgroundImageFix"/>
            <feColorMatrix in="SourceAlpha" type="matrix" values="0 0 0 0 0 0 0 0 0 0 0 0 0 0 0 0 0 0 127 0" result="hardAlpha"/>
            <feOffset dy="4.46271"/>
            <feGaussianBlur stdDeviation="2.55012"/>
            <feComposite in2="hardAlpha" operator="out"/>
            <feColorMatrix type="matrix" values="0 0 0 0 0.290196 0 0 0 0 0.227451 0 0 0 0 1 0 0 0 0.13 0"/>
            <feBlend mode="normal" in2="BackgroundImageFix" result="effect1_dropShadow_71_13182"/>
            <feBlend mode="normal" in="SourceGraphic" in2="effect1_dropShadow_71_13182" result="shape"/>
        </filter>
        <linearGradient id="paint0_linear_71_13182" x1="158.483" y1="191.623" x2="158.483" y2="252.19" gradientUnits="userSpaceOnUse">
            <stop stop-color="#93AAFD"/>
            <stop offset="0.46679" stop-color="#C6D2FD"/>
            <stop offset="1" stop-color="#E5EAFC" stop-opacity="0.31"/>
        </linearGradient>
        <clipPath id="clip0_71_13182">
            <rect width="316.743" height="514" rx="40" fill="white"/>
        </clipPath>
    </defs>
</svg>
