<svg width="317" height="469" viewBox="0 0 317 469" fill="none" xmlns="http://www.w3.org/2000/svg">
    <g clip-path="url(#clip0_71_13254)">
        <rect width="316.743" height="469" rx="40" fill="#F4F4F4"/>
        <path d="M28.92 297H25.944V279.456H28.92L34.584 293.424L40.248 279.456H43.272V297H40.296V291.6C40.296 288.072 40.296 287.04 40.464 285.792L36 297H33.168L28.728 285.816C28.896 286.872 28.92 288.528 28.92 290.712V297ZM50.2509 297.312C47.7309 297.312 46.1949 295.848 46.1949 293.616C46.1949 291.432 47.7789 290.064 50.5869 289.848L54.1389 289.584V289.32C54.1389 287.712 53.1789 287.064 51.6909 287.064C49.9629 287.064 49.0029 287.784 49.0029 289.032H46.5069C46.5069 286.464 48.6189 284.784 51.8349 284.784C55.0269 284.784 56.9949 286.512 56.9949 289.8V297H54.4269L54.2109 295.248C53.7069 296.472 52.0989 297.312 50.2509 297.312ZM51.2109 295.104C53.0109 295.104 54.1629 294.024 54.1629 292.2V291.576L51.6909 291.768C49.8669 291.936 49.1709 292.536 49.1709 293.496C49.1709 294.576 49.8909 295.104 51.2109 295.104ZM61.3354 282.768C60.3274 282.768 59.5354 281.976 59.5354 280.992C59.5354 280.008 60.3274 279.24 61.3354 279.24C62.2954 279.24 63.0874 280.008 63.0874 280.992C63.0874 281.976 62.2954 282.768 61.3354 282.768ZM59.8714 297V285.144H62.7994V297H59.8714ZM68.7525 297H65.8245V285.144H68.5365L68.7765 286.68C69.5205 285.48 70.9605 284.784 72.5685 284.784C75.5445 284.784 77.0805 286.632 77.0805 289.704V297H74.1525V290.4C74.1525 288.408 73.1685 287.448 71.6565 287.448C69.8565 287.448 68.7525 288.696 68.7525 290.616V297ZM83.9893 297H81.0613V287.592H78.7813V285.144H81.0613V281.448H83.9893V285.144H86.2933V287.592H83.9893V297ZM93.3004 297.312C89.7724 297.312 87.3004 294.744 87.3004 291.072C87.3004 287.352 89.7244 284.784 93.2044 284.784C96.7564 284.784 99.0124 287.16 99.0124 290.856V291.744L90.0844 291.768C90.3004 293.856 91.4044 294.912 93.3484 294.912C94.9564 294.912 96.0124 294.288 96.3484 293.16H99.0604C98.5564 295.752 96.3964 297.312 93.3004 297.312ZM93.2284 287.184C91.5004 287.184 90.4444 288.12 90.1564 289.896H96.1084C96.1084 288.264 94.9804 287.184 93.2284 287.184ZM104.284 297H101.356V285.144H104.068L104.308 286.68C105.052 285.48 106.492 284.784 108.1 284.784C111.076 284.784 112.612 286.632 112.612 289.704V297H109.684V290.4C109.684 288.408 108.7 287.448 107.188 287.448C105.388 287.448 104.284 288.696 104.284 290.616V297ZM119.017 297.312C116.497 297.312 114.961 295.848 114.961 293.616C114.961 291.432 116.545 290.064 119.353 289.848L122.905 289.584V289.32C122.905 287.712 121.945 287.064 120.457 287.064C118.729 287.064 117.769 287.784 117.769 289.032H115.273C115.273 286.464 117.385 284.784 120.601 284.784C123.793 284.784 125.761 286.512 125.761 289.8V297H123.193L122.977 295.248C122.473 296.472 120.865 297.312 119.017 297.312ZM119.977 295.104C121.777 295.104 122.929 294.024 122.929 292.2V291.576L120.457 291.768C118.633 291.936 117.937 292.536 117.937 293.496C117.937 294.576 118.657 295.104 119.977 295.104ZM131.565 297H128.637V285.144H131.349L131.589 286.68C132.333 285.48 133.773 284.784 135.381 284.784C138.357 284.784 139.893 286.632 139.893 289.704V297H136.965V290.4C136.965 288.408 135.981 287.448 134.469 287.448C132.669 287.448 131.565 288.696 131.565 290.616V297ZM142.074 291.048C142.074 287.376 144.498 284.784 148.002 284.784C151.242 284.784 153.45 286.584 153.762 289.44H150.834C150.498 288.096 149.514 287.4 148.122 287.4C146.25 287.4 145.002 288.816 145.002 291.048C145.002 293.28 146.154 294.672 148.026 294.672C149.49 294.672 150.522 293.952 150.834 292.656H153.786C153.426 295.416 151.122 297.312 148.026 297.312C144.426 297.312 142.074 294.816 142.074 291.048ZM161.269 297.312C157.741 297.312 155.269 294.744 155.269 291.072C155.269 287.352 157.693 284.784 161.173 284.784C164.725 284.784 166.981 287.16 166.981 290.856V291.744L158.053 291.768C158.269 293.856 159.373 294.912 161.317 294.912C162.925 294.912 163.981 294.288 164.317 293.16H167.029C166.525 295.752 164.365 297.312 161.269 297.312ZM161.197 287.184C159.469 287.184 158.413 288.12 158.125 289.896H164.077C164.077 288.264 162.949 287.184 161.197 287.184ZM179.873 297L174.641 279.456H177.833L180.617 288.72C180.881 289.68 181.145 290.664 181.409 292.2C181.697 290.64 181.961 289.728 182.273 288.72L185.033 279.456H188.417L191.129 288.72C191.417 289.704 191.681 290.712 191.969 292.2C192.305 290.568 192.545 289.632 192.809 288.744L195.641 279.456H198.761L193.433 297H190.457L186.713 284.232L182.897 297H179.873ZM198.23 291.048C198.23 287.352 200.894 284.808 204.566 284.808C208.238 284.808 210.902 287.352 210.902 291.048C210.902 294.744 208.238 297.288 204.566 297.288C200.894 297.288 198.23 294.744 198.23 291.048ZM201.158 291.048C201.158 293.208 202.55 294.672 204.566 294.672C206.582 294.672 207.974 293.208 207.974 291.048C207.974 288.888 206.582 287.424 204.566 287.424C202.55 287.424 201.158 288.888 201.158 291.048ZM220.663 285.096V287.808H219.583C217.471 287.808 216.151 288.936 216.151 291.24V297H213.223V285.168H215.983L216.151 286.896C216.655 285.72 217.783 284.928 219.367 284.928C219.775 284.928 220.183 284.976 220.663 285.096ZM225.597 297H222.693V279.144H225.597V290.112L230.205 285.144H233.877L229.365 289.848L233.781 297H230.421L227.325 292.008L225.597 293.808V297ZM234.383 285.144H236.087V283.704C236.087 280.488 237.719 279.144 240.119 279.144C240.575 279.144 241.127 279.168 241.631 279.264V281.76H240.599C239.279 281.76 238.991 282.528 238.991 283.704V285.144H243.719V279.144H246.647V297H243.719V287.592H238.991V297H236.087V287.592H234.383V285.144ZM249.019 291.048C249.019 287.352 251.683 284.808 255.355 284.808C259.027 284.808 261.691 287.352 261.691 291.048C261.691 294.744 259.027 297.288 255.355 297.288C251.683 297.288 249.019 294.744 249.019 291.048ZM251.947 291.048C251.947 293.208 253.339 294.672 255.355 294.672C257.371 294.672 258.763 293.208 258.763 291.048C258.763 288.888 257.371 287.424 255.355 287.424C253.339 287.424 251.947 288.888 251.947 291.048ZM266.042 297L262.202 285.144H265.25L266.81 290.232C267.074 291.168 267.314 292.2 267.53 293.304C267.746 292.152 267.962 291.408 268.346 290.232L269.978 285.144H272.954L274.538 290.232C274.682 290.712 275.162 292.488 275.306 293.28C275.498 292.392 275.882 290.976 276.098 290.232L277.682 285.144H280.778L276.674 297H273.938L272.306 291.864C271.826 290.304 271.562 289.176 271.466 288.576C271.346 289.128 271.13 289.968 270.53 291.912L268.898 297H266.042Z" fill="#1D1D21"/>
        <path d="M32.136 321.33H26.862V327H25.566V314.112H33.162V315.3H26.862V320.16H32.136V321.33ZM39.0785 318.18V319.296H38.3945C36.7925 319.296 35.7665 320.376 35.7665 322.032V327H34.5245V318.288H35.6945L35.7845 319.638C36.1265 318.702 37.0445 318.09 38.2685 318.09C38.5385 318.09 38.7725 318.108 39.0785 318.18ZM39.7836 322.644C39.7836 319.98 41.6556 318.054 44.2116 318.054C46.7676 318.054 48.6396 319.98 48.6396 322.644C48.6396 325.29 46.7676 327.216 44.2116 327.216C41.6556 327.216 39.7836 325.29 39.7836 322.644ZM41.0436 322.626C41.0436 324.678 42.3396 326.1 44.2116 326.1C46.0656 326.1 47.3796 324.678 47.3796 322.626C47.3796 320.61 46.0656 319.17 44.2116 319.17C42.3396 319.17 41.0436 320.61 41.0436 322.626ZM51.8681 327H50.6261V318.288H51.7061L51.8501 319.53C52.2821 318.612 53.2541 318.054 54.4781 318.054C55.8461 318.054 56.8721 318.774 57.2861 319.908C57.6821 318.774 58.7441 318.054 60.1481 318.054C62.0381 318.054 63.2801 319.278 63.2801 321.294V327H62.0741V321.546C62.0741 320.052 61.2461 319.17 59.9141 319.17C58.4561 319.17 57.5921 320.268 57.5921 321.618V327H56.3681V321.528C56.3681 320.052 55.5221 319.188 54.2081 319.188C52.7501 319.188 51.8681 320.268 51.8681 321.6V327ZM72.7686 327H71.5446V319.332H69.7986V318.288H71.5446V315.534H72.7686V318.288H74.5146V319.332H72.7686V327ZM79.698 327.216C77.142 327.216 75.432 325.38 75.432 322.644C75.432 319.926 77.124 318.054 79.608 318.054C81.966 318.054 83.568 319.728 83.568 322.194V322.806H76.638C76.728 324.93 77.844 326.154 79.716 326.154C81.138 326.154 82.056 325.542 82.38 324.39H83.568C83.1 326.226 81.75 327.216 79.698 327.216ZM79.608 319.116C77.97 319.116 76.89 320.196 76.674 321.906H82.326C82.326 320.232 81.246 319.116 79.608 319.116ZM86.7958 327H85.5538V318.288H86.6338L86.8138 319.8C87.3898 318.684 88.5418 318.054 89.8018 318.054C92.1958 318.054 93.1858 319.476 93.1858 321.672V327H91.9438V321.942C91.9438 319.908 91.0258 319.188 89.5858 319.188C87.8038 319.188 86.7958 320.484 86.7958 322.446V327ZM98.1632 327.216C96.3092 327.216 95.2112 326.172 95.2112 324.642C95.2112 323.04 96.4352 322.032 98.4692 321.87L101.349 321.636V321.348C101.349 319.638 100.323 319.098 99.0452 319.098C97.5332 319.098 96.6332 319.782 96.6332 320.952H95.4992C95.4992 319.188 96.9392 318.054 99.0812 318.054C101.097 318.054 102.573 319.062 102.573 321.366V327H101.529L101.367 325.47C100.827 326.568 99.6392 327.216 98.1632 327.216ZM98.4512 326.208C100.287 326.208 101.349 324.93 101.349 323.04V322.572L98.7752 322.77C97.1372 322.914 96.4712 323.634 96.4712 324.606C96.4712 325.668 97.2632 326.208 98.4512 326.208ZM106.308 327H105.066V318.288H106.146L106.326 319.8C106.902 318.684 108.054 318.054 109.314 318.054C111.708 318.054 112.698 319.476 112.698 321.672V327H111.456V321.942C111.456 319.908 110.538 319.188 109.098 319.188C107.316 319.188 106.308 320.484 106.308 322.446V327ZM117.171 327H115.947V319.332H114.201V318.288H115.947V315.534H117.171V318.288H118.917V319.332H117.171V327ZM130.08 318.18V319.296H129.396C127.794 319.296 126.768 320.376 126.768 322.032V327H125.526V318.288H126.696L126.786 319.638C127.128 318.702 128.046 318.09 129.27 318.09C129.54 318.09 129.774 318.108 130.08 318.18ZM135.052 327.216C132.496 327.216 130.786 325.38 130.786 322.644C130.786 319.926 132.478 318.054 134.962 318.054C137.32 318.054 138.922 319.728 138.922 322.194V322.806H131.992C132.082 324.93 133.198 326.154 135.07 326.154C136.492 326.154 137.41 325.542 137.734 324.39H138.922C138.454 326.226 137.104 327.216 135.052 327.216ZM134.962 319.116C133.324 319.116 132.244 320.196 132.028 321.906H137.68C137.68 320.232 136.6 319.116 134.962 319.116ZM140.295 322.608C140.295 319.98 141.807 318.054 144.327 318.054C145.785 318.054 146.991 318.702 147.621 320.052L147.747 318.288H148.827V330.798H147.585V325.326C146.973 326.586 145.803 327.216 144.327 327.216C141.753 327.216 140.295 325.236 140.295 322.608ZM141.555 322.644C141.555 324.642 142.653 326.1 144.543 326.1C146.451 326.1 147.567 324.642 147.567 322.644C147.567 320.628 146.451 319.188 144.543 319.188C142.653 319.188 141.555 320.628 141.555 322.644ZM157.539 318.288H158.781V327H157.701L157.539 325.524C157.053 326.532 155.847 327.216 154.479 327.216C152.427 327.216 151.311 325.812 151.311 323.688V318.27H152.571V323.292C152.571 325.362 153.489 326.1 154.875 326.1C156.549 326.1 157.539 324.984 157.539 322.914V318.288ZM164.846 327.216C162.29 327.216 160.58 325.38 160.58 322.644C160.58 319.926 162.272 318.054 164.756 318.054C167.114 318.054 168.716 319.728 168.716 322.194V322.806H161.786C161.876 324.93 162.992 326.154 164.864 326.154C166.286 326.154 167.204 325.542 167.528 324.39H168.716C168.248 326.226 166.898 327.216 164.846 327.216ZM164.756 319.116C163.118 319.116 162.038 320.196 161.822 321.906H167.474C167.474 320.232 166.394 319.116 164.756 319.116ZM169.964 324.552H171.152C171.152 325.56 171.908 326.19 173.132 326.19C174.482 326.19 175.274 325.614 175.274 324.678C175.274 323.958 174.914 323.544 173.888 323.292L172.394 322.914C170.882 322.536 170.144 321.744 170.144 320.556C170.144 319.026 171.422 318.054 173.294 318.054C175.13 318.054 176.318 319.062 176.372 320.682H175.166C175.13 319.674 174.428 319.08 173.258 319.08C172.034 319.08 171.35 319.602 171.35 320.538C171.35 321.204 171.818 321.672 172.772 321.906L174.266 322.284C175.778 322.662 176.462 323.364 176.462 324.624C176.462 326.19 175.13 327.216 173.15 327.216C171.188 327.216 169.964 326.172 169.964 324.552ZM180.505 327H179.281V319.332H177.535V318.288H179.281V315.534H180.505V318.288H182.251V319.332H180.505V327ZM183.13 324.552H184.318C184.318 325.56 185.074 326.19 186.298 326.19C187.648 326.19 188.44 325.614 188.44 324.678C188.44 323.958 188.08 323.544 187.054 323.292L185.56 322.914C184.048 322.536 183.31 321.744 183.31 320.556C183.31 319.026 184.588 318.054 186.46 318.054C188.296 318.054 189.484 319.062 189.538 320.682H188.332C188.296 319.674 187.594 319.08 186.424 319.08C185.2 319.08 184.516 319.602 184.516 320.538C184.516 321.204 184.984 321.672 185.938 321.906L187.432 322.284C188.944 322.662 189.628 323.364 189.628 324.624C189.628 326.19 188.296 327.216 186.316 327.216C184.354 327.216 183.13 326.172 183.13 324.552ZM198.663 327H197.439V319.332H195.693V318.288H197.439V315.534H198.663V318.288H200.409V319.332H198.663V327ZM201.327 322.644C201.327 319.98 203.199 318.054 205.755 318.054C208.311 318.054 210.183 319.98 210.183 322.644C210.183 325.29 208.311 327.216 205.755 327.216C203.199 327.216 201.327 325.29 201.327 322.644ZM202.587 322.626C202.587 324.678 203.883 326.1 205.755 326.1C207.609 326.1 208.923 324.678 208.923 322.626C208.923 320.61 207.609 319.17 205.755 319.17C203.883 319.17 202.587 320.61 202.587 322.626ZM219.591 327L216.027 318.288H217.359L219.609 323.904C219.843 324.534 220.077 325.128 220.239 325.704C220.401 325.11 220.635 324.534 220.887 323.904L223.173 318.288H224.451L220.833 327H219.591ZM229.182 327.216C226.626 327.216 224.916 325.38 224.916 322.644C224.916 319.926 226.608 318.054 229.092 318.054C231.45 318.054 233.052 319.728 233.052 322.194V322.806H226.122C226.212 324.93 227.328 326.154 229.2 326.154C230.622 326.154 231.54 325.542 231.864 324.39H233.052C232.584 326.226 231.234 327.216 229.182 327.216ZM229.092 319.116C227.454 319.116 226.374 320.196 226.158 321.906H231.81C231.81 320.232 230.73 319.116 229.092 319.116ZM236.28 327H235.038V318.288H236.118L236.298 319.8C236.874 318.684 238.026 318.054 239.286 318.054C241.68 318.054 242.67 319.476 242.67 321.672V327H241.428V321.942C241.428 319.908 240.51 319.188 239.07 319.188C237.288 319.188 236.28 320.484 236.28 322.446V327ZM248.566 327.216C246.028 327.216 244.534 325.272 244.534 322.662C244.534 320.034 246.028 318.054 248.62 318.054C250.06 318.054 251.212 318.684 251.824 319.944V313.878H253.066V327H251.986L251.86 325.218C251.248 326.568 250.024 327.216 248.566 327.216ZM248.782 326.082C250.69 326.082 251.806 324.642 251.806 322.626C251.806 320.628 250.69 319.17 248.782 319.17C246.892 319.17 245.794 320.628 245.794 322.626C245.794 324.642 246.892 326.082 248.782 326.082ZM255.045 322.644C255.045 319.98 256.917 318.054 259.473 318.054C262.029 318.054 263.901 319.98 263.901 322.644C263.901 325.29 262.029 327.216 259.473 327.216C256.917 327.216 255.045 325.29 255.045 322.644ZM256.305 322.626C256.305 324.678 257.601 326.1 259.473 326.1C261.327 326.1 262.641 324.678 262.641 322.626C262.641 320.61 261.327 319.17 259.473 319.17C257.601 319.17 256.305 320.61 256.305 322.626ZM270.442 318.18V319.296H269.758C268.156 319.296 267.13 320.376 267.13 322.032V327H265.888V318.288H267.058L267.148 319.638C267.49 318.702 268.408 318.09 269.632 318.09C269.902 318.09 270.136 318.108 270.442 318.18ZM27.798 354.216C25.944 354.216 24.846 353.172 24.846 351.642C24.846 350.04 26.07 349.032 28.104 348.87L30.984 348.636V348.348C30.984 346.638 29.958 346.098 28.68 346.098C27.168 346.098 26.268 346.782 26.268 347.952H25.134C25.134 346.188 26.574 345.054 28.716 345.054C30.732 345.054 32.208 346.062 32.208 348.366V354H31.164L31.002 352.47C30.462 353.568 29.274 354.216 27.798 354.216ZM28.086 353.208C29.922 353.208 30.984 351.93 30.984 350.04V349.572L28.41 349.77C26.772 349.914 26.106 350.634 26.106 351.606C26.106 352.668 26.898 353.208 28.086 353.208ZM33.9623 351.552H35.1503C35.1503 352.56 35.9063 353.19 37.1303 353.19C38.4803 353.19 39.2723 352.614 39.2723 351.678C39.2723 350.958 38.9123 350.544 37.8863 350.292L36.3923 349.914C34.8803 349.536 34.1423 348.744 34.1423 347.556C34.1423 346.026 35.4203 345.054 37.2923 345.054C39.1283 345.054 40.3163 346.062 40.3703 347.682H39.1643C39.1283 346.674 38.4263 346.08 37.2563 346.08C36.0323 346.08 35.3483 346.602 35.3483 347.538C35.3483 348.204 35.8163 348.672 36.7703 348.906L38.2643 349.284C39.7763 349.662 40.4603 350.364 40.4603 351.624C40.4603 353.19 39.1283 354.216 37.1483 354.216C35.1863 354.216 33.9623 353.172 33.9623 351.552ZM41.767 351.552H42.955C42.955 352.56 43.711 353.19 44.935 353.19C46.285 353.19 47.077 352.614 47.077 351.678C47.077 350.958 46.717 350.544 45.691 350.292L44.197 349.914C42.685 349.536 41.947 348.744 41.947 347.556C41.947 346.026 43.225 345.054 45.097 345.054C46.933 345.054 48.121 346.062 48.175 347.682H46.969C46.933 346.674 46.231 346.08 45.061 346.08C43.837 346.08 43.153 346.602 43.153 347.538C43.153 348.204 43.621 348.672 44.575 348.906L46.069 349.284C47.581 349.662 48.265 350.364 48.265 351.624C48.265 353.19 46.933 354.216 44.953 354.216C42.991 354.216 41.767 353.172 41.767 351.552ZM50.9217 342.894C50.4177 342.894 50.0037 342.48 50.0037 341.976C50.0037 341.472 50.4177 341.04 50.9217 341.04C51.4257 341.04 51.8577 341.472 51.8577 341.976C51.8577 342.48 51.4257 342.894 50.9217 342.894ZM50.3097 354V345.288H51.5517V354H50.3097ZM53.5477 349.392C53.5477 347.016 55.0777 345.054 57.6337 345.054C59.1457 345.054 60.2977 345.756 60.8557 347.034L60.9817 345.288H62.0617V353.73C62.0617 356.322 60.4057 358.014 57.8497 358.014C55.6177 358.014 54.0517 356.754 53.7097 354.648H54.9517C55.2217 356.052 56.3017 356.88 57.8677 356.88C59.6497 356.88 60.8377 355.674 60.8377 353.856V351.786C60.2437 353.01 59.0377 353.73 57.5437 353.73C55.0597 353.73 53.5477 351.768 53.5477 349.392ZM54.7897 349.374C54.7897 351.156 55.8877 352.614 57.7237 352.614C59.6137 352.614 60.7297 351.246 60.7297 349.374C60.7297 347.52 59.6497 346.152 57.7417 346.152C55.8697 346.152 54.7897 347.61 54.7897 349.374ZM65.8954 354H64.6534V345.288H65.7334L65.9134 346.8C66.4894 345.684 67.6414 345.054 68.9014 345.054C71.2954 345.054 72.2854 346.476 72.2854 348.672V354H71.0434V348.942C71.0434 346.908 70.1254 346.188 68.6854 346.188C66.9034 346.188 65.8954 347.484 65.8954 349.446V354ZM76.0028 354H74.7608V345.288H75.8408L75.9848 346.53C76.4168 345.612 77.3888 345.054 78.6128 345.054C79.9808 345.054 81.0068 345.774 81.4208 346.908C81.8168 345.774 82.8788 345.054 84.2828 345.054C86.1728 345.054 87.4148 346.278 87.4148 348.294V354H86.2088V348.546C86.2088 347.052 85.3808 346.17 84.0488 346.17C82.5908 346.17 81.7268 347.268 81.7268 348.618V354H80.5028V348.528C80.5028 347.052 79.6568 346.188 78.3428 346.188C76.8848 346.188 76.0028 347.268 76.0028 348.6V354ZM93.5672 354.216C91.0112 354.216 89.3012 352.38 89.3012 349.644C89.3012 346.926 90.9932 345.054 93.4772 345.054C95.8352 345.054 97.4372 346.728 97.4372 349.194V349.806H90.5072C90.5972 351.93 91.7132 353.154 93.5852 353.154C95.0072 353.154 95.9252 352.542 96.2492 351.39H97.4372C96.9692 353.226 95.6192 354.216 93.5672 354.216ZM93.4772 346.116C91.8392 346.116 90.7592 347.196 90.5432 348.906H96.1952C96.1952 347.232 95.1152 346.116 93.4772 346.116ZM100.665 354H99.423V345.288H100.503L100.683 346.8C101.259 345.684 102.411 345.054 103.671 345.054C106.065 345.054 107.055 346.476 107.055 348.672V354H105.813V348.942C105.813 346.908 104.895 346.188 103.455 346.188C101.673 346.188 100.665 347.484 100.665 349.446V354ZM111.528 354H110.304V346.332H108.558V345.288H110.304V342.534H111.528V345.288H113.274V346.332H111.528V354ZM122.386 354.216C120.532 354.216 119.434 353.172 119.434 351.642C119.434 350.04 120.658 349.032 122.692 348.87L125.572 348.636V348.348C125.572 346.638 124.546 346.098 123.268 346.098C121.756 346.098 120.856 346.782 120.856 347.952H119.722C119.722 346.188 121.162 345.054 123.304 345.054C125.32 345.054 126.796 346.062 126.796 348.366V354H125.752L125.59 352.47C125.05 353.568 123.862 354.216 122.386 354.216ZM122.674 353.208C124.51 353.208 125.572 351.93 125.572 350.04V349.572L122.998 349.77C121.36 349.914 120.694 350.634 120.694 351.606C120.694 352.668 121.486 353.208 122.674 353.208ZM130.53 354H129.288V345.288H130.368L130.548 346.8C131.124 345.684 132.276 345.054 133.536 345.054C135.93 345.054 136.92 346.476 136.92 348.672V354H135.678V348.942C135.678 346.908 134.76 346.188 133.32 346.188C131.538 346.188 130.53 347.484 130.53 349.446V354ZM142.816 354.216C140.278 354.216 138.784 352.272 138.784 349.662C138.784 347.034 140.278 345.054 142.87 345.054C144.31 345.054 145.462 345.684 146.074 346.944V340.878H147.316V354H146.236L146.11 352.218C145.498 353.568 144.274 354.216 142.816 354.216ZM143.032 353.082C144.94 353.082 146.056 351.642 146.056 349.626C146.056 347.628 144.94 346.17 143.032 346.17C141.142 346.17 140.044 347.628 140.044 349.626C140.044 351.642 141.142 353.082 143.032 353.082ZM154.288 349.662C154.288 346.926 155.962 345.054 158.5 345.054C160.516 345.054 161.992 346.224 162.334 348.024H161.092C160.768 346.818 159.724 346.152 158.518 346.152C156.754 346.152 155.512 347.502 155.512 349.644C155.512 351.714 156.664 353.1 158.428 353.1C159.724 353.1 160.768 352.38 161.11 351.264H162.37C161.956 353.046 160.408 354.216 158.428 354.216C155.962 354.216 154.288 352.398 154.288 349.662ZM163.639 349.644C163.639 346.98 165.511 345.054 168.067 345.054C170.623 345.054 172.495 346.98 172.495 349.644C172.495 352.29 170.623 354.216 168.067 354.216C165.511 354.216 163.639 352.29 163.639 349.644ZM164.899 349.626C164.899 351.678 166.195 353.1 168.067 353.1C169.921 353.1 171.235 351.678 171.235 349.626C171.235 347.61 169.921 346.17 168.067 346.17C166.195 346.17 164.899 347.61 164.899 349.626ZM175.724 354H174.482V345.288H175.562L175.706 346.53C176.138 345.612 177.11 345.054 178.334 345.054C179.702 345.054 180.728 345.774 181.142 346.908C181.538 345.774 182.6 345.054 184.004 345.054C185.894 345.054 187.136 346.278 187.136 348.294V354H185.93V348.546C185.93 347.052 185.102 346.17 183.77 346.17C182.312 346.17 181.448 347.268 181.448 348.618V354H180.224V348.528C180.224 347.052 179.378 346.188 178.064 346.188C176.606 346.188 175.724 347.268 175.724 348.6V354ZM189.634 357.798V345.288H190.714L190.84 347.052C191.452 345.702 192.676 345.054 194.134 345.054C196.654 345.054 198.166 346.98 198.166 349.608C198.166 352.236 196.708 354.216 194.134 354.216C192.658 354.216 191.488 353.586 190.876 352.326V357.798H189.634ZM190.894 349.644C190.894 351.642 192.01 353.1 193.918 353.1C195.808 353.1 196.906 351.642 196.906 349.644C196.906 347.628 195.808 346.188 193.918 346.188C192.01 346.188 190.894 347.628 190.894 349.644ZM201.442 354H200.2V340.878H201.442V354ZM207.737 354.216C205.181 354.216 203.471 352.38 203.471 349.644C203.471 346.926 205.163 345.054 207.647 345.054C210.005 345.054 211.607 346.728 211.607 349.194V349.806H204.677C204.767 351.93 205.883 353.154 207.755 353.154C209.177 353.154 210.095 352.542 210.419 351.39H211.607C211.139 353.226 209.789 354.216 207.737 354.216ZM207.647 346.116C206.009 346.116 204.929 347.196 204.713 348.906H210.365C210.365 347.232 209.285 346.116 207.647 346.116ZM215.503 354H214.279V346.332H212.533V345.288H214.279V342.534H215.503V345.288H217.249V346.332H215.503V354ZM219.478 342.894C218.974 342.894 218.56 342.48 218.56 341.976C218.56 341.472 218.974 341.04 219.478 341.04C219.982 341.04 220.414 341.472 220.414 341.976C220.414 342.48 219.982 342.894 219.478 342.894ZM218.866 354V345.288H220.108V354H218.866ZM222.086 349.644C222.086 346.98 223.958 345.054 226.514 345.054C229.07 345.054 230.942 346.98 230.942 349.644C230.942 352.29 229.07 354.216 226.514 354.216C223.958 354.216 222.086 352.29 222.086 349.644ZM223.346 349.626C223.346 351.678 224.642 353.1 226.514 353.1C228.368 353.1 229.682 351.678 229.682 349.626C229.682 347.61 228.368 346.17 226.514 346.17C224.642 346.17 223.346 347.61 223.346 349.626ZM234.171 354H232.929V345.288H234.009L234.189 346.8C234.765 345.684 235.917 345.054 237.177 345.054C239.571 345.054 240.561 346.476 240.561 348.672V354H239.319V348.942C239.319 346.908 238.401 346.188 236.961 346.188C235.179 346.188 234.171 347.484 234.171 349.446V354ZM27.294 381H26.07V373.332H24.324V372.288H26.07V369.534H27.294V372.288H29.04V373.332H27.294V381ZM35.2113 372.18V373.296H34.5273C32.9253 373.296 31.8993 374.376 31.8993 376.032V381H30.6573V372.288H31.8273L31.9173 373.638C32.2593 372.702 33.1773 372.09 34.4013 372.09C34.6713 372.09 34.9053 372.108 35.2113 372.18ZM39.0128 381.216C37.1588 381.216 36.0608 380.172 36.0608 378.642C36.0608 377.04 37.2848 376.032 39.3188 375.87L42.1988 375.636V375.348C42.1988 373.638 41.1728 373.098 39.8948 373.098C38.3828 373.098 37.4828 373.782 37.4828 374.952H36.3488C36.3488 373.188 37.7888 372.054 39.9308 372.054C41.9468 372.054 43.4228 373.062 43.4228 375.366V381H42.3788L42.2168 379.47C41.6768 380.568 40.4888 381.216 39.0128 381.216ZM39.3008 380.208C41.1368 380.208 42.1988 378.93 42.1988 377.04V376.572L39.6248 376.77C37.9868 376.914 37.3208 377.634 37.3208 378.606C37.3208 379.668 38.1128 380.208 39.3008 380.208ZM45.3031 376.662C45.3031 373.926 46.9771 372.054 49.5151 372.054C51.5311 372.054 53.0071 373.224 53.3491 375.024H52.1071C51.7831 373.818 50.7391 373.152 49.5331 373.152C47.7691 373.152 46.5271 374.502 46.5271 376.644C46.5271 378.714 47.6791 380.1 49.4431 380.1C50.7391 380.1 51.7831 379.38 52.1251 378.264H53.3851C52.9711 380.046 51.4231 381.216 49.4431 381.216C46.9771 381.216 45.3031 379.398 45.3031 376.662ZM56.5627 381H55.3207V367.878H56.5627V376.788L60.8827 372.288H62.4487L59.1007 375.762L62.4667 381H61.0267L58.2547 376.644L56.5627 378.39V381ZM64.5623 369.894C64.0583 369.894 63.6443 369.48 63.6443 368.976C63.6443 368.472 64.0583 368.04 64.5623 368.04C65.0663 368.04 65.4983 368.472 65.4983 368.976C65.4983 369.48 65.0663 369.894 64.5623 369.894ZM63.9503 381V372.288H65.1923V381H63.9503ZM69.0243 381H67.7823V372.288H68.8623L69.0423 373.8C69.6183 372.684 70.7703 372.054 72.0303 372.054C74.4243 372.054 75.4143 373.476 75.4143 375.672V381H74.1723V375.942C74.1723 373.908 73.2543 373.188 71.8143 373.188C70.0323 373.188 69.0243 374.484 69.0243 376.446V381ZM77.2958 376.392C77.2958 374.016 78.8258 372.054 81.3818 372.054C82.8938 372.054 84.0458 372.756 84.6038 374.034L84.7298 372.288H85.8098V380.73C85.8098 383.322 84.1538 385.014 81.5978 385.014C79.3658 385.014 77.7998 383.754 77.4578 381.648H78.6998C78.9697 383.052 80.0498 383.88 81.6158 383.88C83.3978 383.88 84.5858 382.674 84.5858 380.856V378.786C83.9918 380.01 82.7858 380.73 81.2918 380.73C78.8078 380.73 77.2958 378.768 77.2958 376.392ZM78.5378 376.374C78.5378 378.156 79.6358 379.614 81.4718 379.614C83.3618 379.614 84.4778 378.246 84.4778 376.374C84.4778 374.52 83.3978 373.152 81.4898 373.152C79.6178 373.152 78.5378 374.61 78.5378 376.374ZM90.5975 380.388C90.5975 381.504 89.7335 382.476 88.6175 382.638V381.972C89.2655 381.864 89.7335 381.396 89.7335 380.892C89.6255 380.964 89.4815 381.018 89.2655 381.018C88.7615 381.018 88.3295 380.658 88.3295 380.046C88.3295 379.416 88.7615 378.966 89.3915 378.966C90.0395 378.966 90.5975 379.488 90.5975 380.388ZM99.3466 381H98.1046V372.288H99.1846L99.3286 373.53C99.7606 372.612 100.733 372.054 101.957 372.054C103.325 372.054 104.351 372.774 104.765 373.908C105.161 372.774 106.223 372.054 107.627 372.054C109.517 372.054 110.759 373.278 110.759 375.294V381H109.553V375.546C109.553 374.052 108.725 373.17 107.393 373.17C105.935 373.17 105.071 374.268 105.071 375.618V381H103.847V375.528C103.847 374.052 103.001 373.188 101.687 373.188C100.229 373.188 99.3466 374.268 99.3466 375.6V381ZM115.759 381.216C113.905 381.216 112.807 380.172 112.807 378.642C112.807 377.04 114.031 376.032 116.065 375.87L118.945 375.636V375.348C118.945 373.638 117.919 373.098 116.641 373.098C115.129 373.098 114.229 373.782 114.229 374.952H113.095C113.095 373.188 114.535 372.054 116.677 372.054C118.693 372.054 120.169 373.062 120.169 375.366V381H119.125L118.963 379.47C118.423 380.568 117.235 381.216 115.759 381.216ZM116.047 380.208C117.883 380.208 118.945 378.93 118.945 377.04V376.572L116.371 376.77C114.733 376.914 114.067 377.634 114.067 378.606C114.067 379.668 114.859 380.208 116.047 380.208ZM123.903 381H122.661V372.288H123.741L123.921 373.8C124.497 372.684 125.649 372.054 126.909 372.054C129.303 372.054 130.293 373.476 130.293 375.672V381H129.051V375.942C129.051 373.908 128.133 373.188 126.693 373.188C124.911 373.188 123.903 374.484 123.903 376.446V381ZM135.271 381.216C133.417 381.216 132.319 380.172 132.319 378.642C132.319 377.04 133.543 376.032 135.577 375.87L138.457 375.636V375.348C138.457 373.638 137.431 373.098 136.153 373.098C134.641 373.098 133.741 373.782 133.741 374.952H132.607C132.607 373.188 134.047 372.054 136.189 372.054C138.205 372.054 139.681 373.062 139.681 375.366V381H138.637L138.475 379.47C137.935 380.568 136.747 381.216 135.271 381.216ZM135.559 380.208C137.395 380.208 138.457 378.93 138.457 377.04V376.572L135.883 376.77C134.245 376.914 133.579 377.634 133.579 378.606C133.579 379.668 134.371 380.208 135.559 380.208ZM141.579 376.392C141.579 374.016 143.109 372.054 145.665 372.054C147.177 372.054 148.329 372.756 148.887 374.034L149.013 372.288H150.093V380.73C150.093 383.322 148.437 385.014 145.881 385.014C143.649 385.014 142.083 383.754 141.741 381.648H142.983C143.253 383.052 144.333 383.88 145.899 383.88C147.681 383.88 148.869 382.674 148.869 380.856V378.786C148.275 380.01 147.069 380.73 145.575 380.73C143.091 380.73 141.579 378.768 141.579 376.392ZM142.821 376.374C142.821 378.156 143.919 379.614 145.755 379.614C147.645 379.614 148.761 378.246 148.761 376.374C148.761 374.52 147.681 373.152 145.773 373.152C143.901 373.152 142.821 374.61 142.821 376.374ZM156.339 381.216C153.783 381.216 152.073 379.38 152.073 376.644C152.073 373.926 153.765 372.054 156.249 372.054C158.607 372.054 160.209 373.728 160.209 376.194V376.806H153.279C153.369 378.93 154.485 380.154 156.357 380.154C157.779 380.154 158.697 379.542 159.021 378.39H160.209C159.741 380.226 158.391 381.216 156.339 381.216ZM156.249 373.116C154.611 373.116 153.531 374.196 153.315 375.906H158.967C158.967 374.232 157.887 373.116 156.249 373.116ZM169.185 381H167.961V373.332H166.215V372.288H167.961V369.534H169.185V372.288H170.931V373.332H169.185V381ZM173.79 380.982H172.548V367.878H173.79V373.8C174.348 372.756 175.41 372.054 176.868 372.054C179.154 372.054 180.18 373.476 180.18 375.672V381H178.938V375.942C178.938 373.908 177.984 373.188 176.634 373.188C174.762 373.188 173.79 374.574 173.79 376.248V380.982ZM186.309 381.216C183.753 381.216 182.043 379.38 182.043 376.644C182.043 373.926 183.735 372.054 186.219 372.054C188.577 372.054 190.179 373.728 190.179 376.194V376.806H183.249C183.339 378.93 184.455 380.154 186.327 380.154C187.749 380.154 188.667 379.542 188.991 378.39H190.179C189.711 380.226 188.361 381.216 186.309 381.216ZM186.219 373.116C184.581 373.116 183.501 374.196 183.285 375.906H188.937C188.937 374.232 187.857 373.116 186.219 373.116ZM200.811 381.216C198.255 381.216 196.545 379.38 196.545 376.644C196.545 373.926 198.237 372.054 200.721 372.054C203.079 372.054 204.681 373.728 204.681 376.194V376.806H197.751C197.841 378.93 198.957 380.154 200.829 380.154C202.251 380.154 203.169 379.542 203.493 378.39H204.681C204.213 380.226 202.863 381.216 200.811 381.216ZM200.721 373.116C199.083 373.116 198.003 374.196 197.787 375.906H203.439C203.439 374.232 202.359 373.116 200.721 373.116ZM207.909 381H206.667V372.288H207.747L207.927 373.8C208.503 372.684 209.655 372.054 210.915 372.054C213.309 372.054 214.299 373.476 214.299 375.672V381H213.057V375.942C213.057 373.908 212.139 373.188 210.699 373.188C208.917 373.188 207.909 374.484 207.909 376.446V381ZM218.773 381H217.549V373.332H215.803V372.288H217.549V369.534H218.773V372.288H220.519V373.332H218.773V381ZM222.748 369.894C222.244 369.894 221.83 369.48 221.83 368.976C221.83 368.472 222.244 368.04 222.748 368.04C223.252 368.04 223.684 368.472 223.684 368.976C223.684 369.48 223.252 369.894 222.748 369.894ZM222.136 381V372.288H223.378V381H222.136ZM230.522 372.18V373.296H229.838C228.236 373.296 227.21 374.376 227.21 376.032V381H225.968V372.288H227.138L227.228 373.638C227.57 372.702 228.488 372.09 229.712 372.09C229.982 372.09 230.216 372.108 230.522 372.18ZM235.493 381.216C232.937 381.216 231.227 379.38 231.227 376.644C231.227 373.926 232.919 372.054 235.403 372.054C237.761 372.054 239.363 373.728 239.363 376.194V376.806H232.433C232.523 378.93 233.639 380.154 235.511 380.154C236.933 380.154 237.851 379.542 238.175 378.39H239.363C238.895 380.226 237.545 381.216 235.493 381.216ZM235.403 373.116C233.765 373.116 232.685 374.196 232.469 375.906H238.121C238.121 374.232 237.041 373.116 235.403 373.116ZM26.592 408H25.35V394.878H26.592V408ZM29.8455 396.894C29.3415 396.894 28.9275 396.48 28.9275 395.976C28.9275 395.472 29.3415 395.04 29.8455 395.04C30.3495 395.04 30.7815 395.472 30.7815 395.976C30.7815 396.48 30.3495 396.894 29.8455 396.894ZM29.2335 408V399.288H30.4755V408H29.2335ZM32.0935 399.288H33.4255V397.596C33.4255 395.634 34.5055 394.878 35.8375 394.878C36.1435 394.878 36.5035 394.896 36.7915 394.95V396.012H36.0535C34.9555 396.012 34.6675 396.57 34.6675 397.596V399.288H36.7195V400.332H34.6675V408H33.4255V400.332H32.0935V399.288ZM41.7996 408.216C39.2436 408.216 37.5336 406.38 37.5336 403.644C37.5336 400.926 39.2256 399.054 41.7096 399.054C44.0676 399.054 45.6696 400.728 45.6696 403.194V403.806H38.7396C38.8296 405.93 39.9456 407.154 41.8176 407.154C43.2396 407.154 44.1576 406.542 44.4816 405.39H45.6696C45.2016 407.226 43.8516 408.216 41.7996 408.216ZM41.7096 400.116C40.0716 400.116 38.9916 401.196 38.7756 402.906H44.4276C44.4276 401.232 43.3476 400.116 41.7096 400.116ZM47.0434 403.662C47.0434 400.926 48.7174 399.054 51.2554 399.054C53.2714 399.054 54.7474 400.224 55.0894 402.024H53.8474C53.5234 400.818 52.4794 400.152 51.2734 400.152C49.5094 400.152 48.2674 401.502 48.2674 403.644C48.2674 405.714 49.4194 407.1 51.1834 407.1C52.4794 407.1 53.5234 406.38 53.8654 405.264H55.1254C54.7114 407.046 53.1634 408.216 51.1834 408.216C48.7174 408.216 47.0434 406.398 47.0434 403.662ZM55.9492 411.798V410.772H56.9032C57.6592 410.772 58.4152 410.718 58.8472 409.548L59.2252 408.522L55.6972 399.288H57.0112L59.8192 406.884L62.5732 399.288H63.8512L59.8552 409.998C59.3512 411.366 58.5052 411.924 57.2632 411.924C56.7412 411.924 56.3452 411.888 55.9492 411.798ZM64.393 403.662C64.393 400.926 66.067 399.054 68.605 399.054C70.621 399.054 72.097 400.224 72.439 402.024H71.197C70.873 400.818 69.829 400.152 68.623 400.152C66.859 400.152 65.617 401.502 65.617 403.644C65.617 405.714 66.769 407.1 68.533 407.1C69.829 407.1 70.873 406.38 71.215 405.264H72.475C72.061 407.046 70.513 408.216 68.533 408.216C66.067 408.216 64.393 406.398 64.393 403.662ZM75.6525 408H74.4105V394.878H75.6525V408ZM81.948 408.216C79.392 408.216 77.682 406.38 77.682 403.644C77.682 400.926 79.374 399.054 81.858 399.054C84.216 399.054 85.818 400.728 85.818 403.194V403.806H78.888C78.978 405.93 80.094 407.154 81.966 407.154C83.388 407.154 84.306 406.542 84.63 405.39H85.818C85.35 407.226 84 408.216 81.948 408.216ZM81.858 400.116C80.22 400.116 79.14 401.196 78.924 402.906H84.576C84.576 401.232 83.496 400.116 81.858 400.116ZM93.408 396.894C92.904 396.894 92.49 396.48 92.49 395.976C92.49 395.472 92.904 395.04 93.408 395.04C93.912 395.04 94.344 395.472 94.344 395.976C94.344 396.48 93.912 396.894 93.408 396.894ZM92.796 408V399.288H94.038V408H92.796ZM97.87 408H96.628V399.288H97.708L97.888 400.8C98.464 399.684 99.616 399.054 100.876 399.054C103.27 399.054 104.26 400.476 104.26 402.672V408H103.018V402.942C103.018 400.908 102.1 400.188 100.66 400.188C98.878 400.188 97.87 401.484 97.87 403.446V408ZM111.116 403.644C111.116 400.98 112.988 399.054 115.544 399.054C118.1 399.054 119.972 400.98 119.972 403.644C119.972 406.29 118.1 408.216 115.544 408.216C112.988 408.216 111.116 406.29 111.116 403.644ZM112.376 403.626C112.376 405.678 113.672 407.1 115.544 407.1C117.398 407.1 118.712 405.678 118.712 403.626C118.712 401.61 117.398 400.17 115.544 400.17C113.672 400.17 112.376 401.61 112.376 403.626ZM123.2 408H121.958V399.288H123.038L123.218 400.8C123.794 399.684 124.946 399.054 126.206 399.054C128.6 399.054 129.59 400.476 129.59 402.672V408H128.348V402.942C128.348 400.908 127.43 400.188 125.99 400.188C124.208 400.188 123.2 401.484 123.2 403.446V408ZM135.72 408.216C133.164 408.216 131.454 406.38 131.454 403.644C131.454 400.926 133.146 399.054 135.63 399.054C137.988 399.054 139.59 400.728 139.59 403.194V403.806H132.66C132.75 405.93 133.866 407.154 135.738 407.154C137.16 407.154 138.078 406.542 138.402 405.39H139.59C139.122 407.226 137.772 408.216 135.72 408.216ZM135.63 400.116C133.992 400.116 132.912 401.196 132.696 402.906H138.348C138.348 401.232 137.268 400.116 135.63 400.116ZM145.829 405.552H147.017C147.017 406.56 147.773 407.19 148.997 407.19C150.347 407.19 151.139 406.614 151.139 405.678C151.139 404.958 150.779 404.544 149.753 404.292L148.259 403.914C146.747 403.536 146.009 402.744 146.009 401.556C146.009 400.026 147.287 399.054 149.159 399.054C150.995 399.054 152.183 400.062 152.237 401.682H151.031C150.995 400.674 150.293 400.08 149.123 400.08C147.899 400.08 147.215 400.602 147.215 401.538C147.215 402.204 147.683 402.672 148.637 402.906L150.131 403.284C151.643 403.662 152.327 404.364 152.327 405.624C152.327 407.19 150.995 408.216 149.015 408.216C147.053 408.216 145.829 407.172 145.829 405.552ZM156.37 408H155.146V400.332H153.4V399.288H155.146V396.534H156.37V399.288H158.116V400.332H156.37V408ZM164.288 399.18V400.296H163.604C162.002 400.296 160.976 401.376 160.976 403.032V408H159.734V399.288H160.904L160.994 400.638C161.336 399.702 162.254 399.09 163.478 399.09C163.748 399.09 163.982 399.108 164.288 399.18ZM169.259 408.216C166.703 408.216 164.993 406.38 164.993 403.644C164.993 400.926 166.685 399.054 169.169 399.054C171.527 399.054 173.129 400.728 173.129 403.194V403.806H166.199C166.289 405.93 167.405 407.154 169.277 407.154C170.699 407.154 171.617 406.542 171.941 405.39H173.129C172.661 407.226 171.311 408.216 169.259 408.216ZM169.169 400.116C167.531 400.116 166.451 401.196 166.235 402.906H171.887C171.887 401.232 170.807 400.116 169.169 400.116ZM177.528 408.216C175.674 408.216 174.576 407.172 174.576 405.642C174.576 404.04 175.8 403.032 177.834 402.87L180.714 402.636V402.348C180.714 400.638 179.688 400.098 178.41 400.098C176.898 400.098 175.998 400.782 175.998 401.952H174.864C174.864 400.188 176.304 399.054 178.446 399.054C180.462 399.054 181.938 400.062 181.938 402.366V408H180.894L180.732 406.47C180.192 407.568 179.004 408.216 177.528 408.216ZM177.816 407.208C179.652 407.208 180.714 405.93 180.714 404.04V403.572L178.14 403.77C176.502 403.914 175.836 404.634 175.836 405.606C175.836 406.668 176.628 407.208 177.816 407.208ZM185.673 408H184.431V399.288H185.511L185.655 400.53C186.087 399.612 187.059 399.054 188.283 399.054C189.651 399.054 190.677 399.774 191.091 400.908C191.487 399.774 192.549 399.054 193.953 399.054C195.843 399.054 197.085 400.278 197.085 402.294V408H195.879V402.546C195.879 401.052 195.051 400.17 193.719 400.17C192.261 400.17 191.397 401.268 191.397 402.618V408H190.173V402.528C190.173 401.052 189.327 400.188 188.013 400.188C186.555 400.188 185.673 401.268 185.673 402.6V408ZM200.879 408H199.637V394.878H200.879V408ZM204.133 396.894C203.629 396.894 203.215 396.48 203.215 395.976C203.215 395.472 203.629 395.04 204.133 395.04C204.637 395.04 205.069 395.472 205.069 395.976C205.069 396.48 204.637 396.894 204.133 396.894ZM203.521 408V399.288H204.763V408H203.521ZM208.595 408H207.353V399.288H208.433L208.613 400.8C209.189 399.684 210.341 399.054 211.601 399.054C213.995 399.054 214.985 400.476 214.985 402.672V408H213.743V402.942C213.743 400.908 212.825 400.188 211.385 400.188C209.603 400.188 208.595 401.484 208.595 403.446V408ZM221.114 408.216C218.558 408.216 216.848 406.38 216.848 403.644C216.848 400.926 218.54 399.054 221.024 399.054C223.382 399.054 224.984 400.728 224.984 403.194V403.806H218.054C218.144 405.93 219.26 407.154 221.132 407.154C222.554 407.154 223.472 406.542 223.796 405.39H224.984C224.516 407.226 223.166 408.216 221.114 408.216ZM221.024 400.116C219.386 400.116 218.306 401.196 218.09 402.906H223.742C223.742 401.232 222.662 400.116 221.024 400.116ZM230.39 408.216C227.852 408.216 226.358 406.272 226.358 403.662C226.358 401.034 227.852 399.054 230.444 399.054C231.884 399.054 233.036 399.684 233.648 400.944V394.878H234.89V408H233.81L233.684 406.218C233.072 407.568 231.848 408.216 230.39 408.216ZM230.606 407.082C232.514 407.082 233.63 405.642 233.63 403.626C233.63 401.628 232.514 400.17 230.606 400.17C228.716 400.17 227.618 401.628 227.618 403.626C227.618 405.642 228.716 407.082 230.606 407.082ZM24.558 432.552H25.746C25.746 433.56 26.502 434.19 27.726 434.19C29.076 434.19 29.868 433.614 29.868 432.678C29.868 431.958 29.508 431.544 28.482 431.292L26.988 430.914C25.476 430.536 24.738 429.744 24.738 428.556C24.738 427.026 26.016 426.054 27.888 426.054C29.724 426.054 30.912 427.062 30.966 428.682H29.76C29.724 427.674 29.022 427.08 27.852 427.08C26.628 427.08 25.944 427.602 25.944 428.538C25.944 429.204 26.412 429.672 27.366 429.906L28.86 430.284C30.372 430.662 31.056 431.364 31.056 432.624C31.056 434.19 29.724 435.216 27.744 435.216C25.782 435.216 24.558 434.172 24.558 432.552ZM32.0429 438.798V437.772H32.9969C33.7529 437.772 34.5089 437.718 34.9409 436.548L35.3189 435.522L31.7909 426.288H33.1049L35.9129 433.884L38.6669 426.288H39.9449L35.9489 436.998C35.4449 438.366 34.5989 438.924 33.3569 438.924C32.8349 438.924 32.4389 438.888 32.0429 438.798ZM40.6068 432.552H41.7948C41.7948 433.56 42.5508 434.19 43.7748 434.19C45.1248 434.19 45.9168 433.614 45.9168 432.678C45.9168 431.958 45.5568 431.544 44.5308 431.292L43.0368 430.914C41.5248 430.536 40.7868 429.744 40.7868 428.556C40.7868 427.026 42.0648 426.054 43.9368 426.054C45.7728 426.054 46.9608 427.062 47.0148 428.682H45.8088C45.7728 427.674 45.0708 427.08 43.9008 427.08C42.6768 427.08 41.9928 427.602 41.9928 428.538C41.9928 429.204 42.4608 429.672 43.4148 429.906L44.9088 430.284C46.4208 430.662 47.1048 431.364 47.1048 432.624C47.1048 434.19 45.7728 435.216 43.7928 435.216C41.8308 435.216 40.6068 434.172 40.6068 432.552ZM51.1475 435H49.9235V427.332H48.1775V426.288H49.9235V423.534H51.1475V426.288H52.8935V427.332H51.1475V435ZM58.077 435.216C55.521 435.216 53.811 433.38 53.811 430.644C53.811 427.926 55.503 426.054 57.987 426.054C60.345 426.054 61.947 427.728 61.947 430.194V430.806H55.017C55.107 432.93 56.223 434.154 58.095 434.154C59.517 434.154 60.435 433.542 60.759 432.39H61.947C61.479 434.226 60.129 435.216 58.077 435.216ZM57.987 427.116C56.349 427.116 55.269 428.196 55.053 429.906H60.705C60.705 428.232 59.625 427.116 57.987 427.116ZM65.1747 435H63.9327V426.288H65.0127L65.1567 427.53C65.5887 426.612 66.5607 426.054 67.7847 426.054C69.1527 426.054 70.1787 426.774 70.5927 427.908C70.9887 426.774 72.0507 426.054 73.4547 426.054C75.3447 426.054 76.5867 427.278 76.5867 429.294V435H75.3807V429.546C75.3807 428.052 74.5527 427.17 73.2207 427.17C71.7627 427.17 70.8987 428.268 70.8987 429.618V435H69.6747V429.528C69.6747 428.052 68.8287 427.188 67.5147 427.188C66.0567 427.188 65.1747 428.268 65.1747 429.6V435ZM80.1471 435.198C79.5351 435.198 79.0131 434.694 79.0131 434.1C79.0131 433.488 79.5351 432.966 80.1471 432.966C80.7591 432.966 81.2811 433.488 81.2811 434.1C81.2811 434.694 80.7591 435.198 80.1471 435.198Z" fill="#1D1D21"/>
        <path d="M89.6287 75.6836C106.985 58.2788 130.963 47.3232 157.447 47.3232V64.5859C135.655 64.5859 115.926 73.4194 101.645 87.7002L89.6287 75.6836Z" fill="white"/>
        <path d="M89.6287 75.6816C72.2239 93.0378 61.2683 117.015 61.2683 143.5H78.531C78.531 121.708 87.3645 101.979 101.645 87.6982L89.6287 75.6816Z" fill="white"/>
        <path d="M89.6287 211.318C72.2239 193.962 61.2683 169.985 61.2683 143.5H78.531C78.531 165.292 87.3645 185.021 101.645 199.302L89.6287 211.318Z" fill="url(#paint0_linear_71_13254)"/>
        <path d="M89.6287 211.32C106.985 228.725 130.963 239.681 157.447 239.681V222.418C135.655 222.418 115.926 213.585 101.645 199.304L89.6287 211.32Z" fill="url(#paint1_linear_71_13254)"/>
        <path d="M225.265 211.32C207.909 228.725 183.932 239.681 157.447 239.681V222.418C179.239 222.418 198.968 213.585 213.249 199.304L225.265 211.32Z" fill="url(#paint2_linear_71_13254)"/>
        <path d="M225.265 211.318C242.67 193.962 253.626 169.985 253.626 143.5H236.363C236.363 165.292 227.53 185.021 213.249 199.302L225.265 211.318Z" fill="url(#paint3_linear_71_13254)"/>
        <path d="M225.265 75.6816C242.67 93.0378 253.626 117.015 253.626 143.5H236.363C236.363 121.708 227.53 101.979 213.249 87.6982L225.265 75.6816Z" fill="url(#paint4_linear_71_13254)"/>
        <path d="M225.265 75.6836C207.909 58.2788 183.932 47.3232 157.447 47.3232V64.5859C179.239 64.5859 198.968 73.4194 213.249 87.7002L225.265 75.6836Z" fill="url(#paint5_linear_71_13254)"/>
        <path d="M107.024 119.642H100.317V114.82H112.181V145.467H107.024V119.642ZM138.36 145.425L117.104 145.467V141.442L127.124 132.973C131.275 129.452 132.658 127.44 132.658 124.505C132.658 121.025 130.772 119.055 127.543 119.055C124.19 119.055 122.093 121.402 122.051 125.343H116.727C116.769 118.636 121.045 114.275 127.543 114.275C134.084 114.275 138.15 118.007 138.15 124.211C138.15 128.488 135.802 131.716 131.149 135.699L125.615 140.436H138.36V145.425ZM149.492 143.622C149.492 147.102 146.977 149.869 143.581 150.288V148.234C145.468 147.898 146.893 146.766 146.893 145.299C146.558 145.467 146.18 145.551 145.677 145.551C144.042 145.551 142.701 144.335 142.701 142.658C142.701 140.646 144 139.304 145.887 139.304C147.983 139.304 149.492 141.023 149.492 143.622ZM163.511 145.97C157.097 145.97 152.863 141.861 152.863 135.657H158.187C158.187 139.136 160.241 141.191 163.637 141.191C167.242 141.191 169.548 138.843 169.548 135.112C169.548 131.548 167.41 129.116 163.721 129.116C161.373 129.116 159.235 130.29 158.145 131.883L153.408 130.877L157.181 114.82H173.154V119.767H161.038L159.403 126.14C160.87 125.176 162.715 124.631 164.811 124.631C170.932 124.631 174.998 128.781 174.998 134.818C174.998 141.442 170.345 145.97 163.511 145.97ZM193.303 122.283C193.303 127.02 189.949 130.332 185.295 130.332C180.642 130.332 177.288 127.02 177.288 122.283C177.288 117.587 180.642 114.233 185.295 114.233C189.949 114.233 193.303 117.587 193.303 122.283ZM210.114 114.862L186.846 145.467H181.732L204.999 114.862H210.114ZM189.236 122.283C189.236 119.851 187.643 118.174 185.295 118.174C182.948 118.174 181.396 119.851 181.396 122.283C181.396 124.714 182.989 126.391 185.295 126.391C187.643 126.391 189.236 124.714 189.236 122.283ZM214.6 137.962C214.6 142.658 211.288 146.012 206.635 146.012C201.939 146.012 198.627 142.658 198.627 137.962C198.627 133.267 201.939 129.913 206.635 129.913C211.288 129.913 214.6 133.267 214.6 137.962ZM210.533 137.962C210.533 135.531 208.94 133.854 206.635 133.854C204.287 133.854 202.694 135.531 202.694 137.962C202.694 140.394 204.287 142.071 206.635 142.071C208.94 142.071 210.533 140.394 210.533 137.962Z" fill="url(#paint6_linear_71_13254)"/>
        <path d="M99.7102 173.869C97.0837 173.869 95.3821 172.044 95.3821 169.22C95.3821 166.421 97.1454 164.559 99.7841 164.559C101.917 164.559 103.508 165.804 103.816 167.74H102.152C101.843 166.692 100.943 166.076 99.7471 166.076C98.0825 166.076 97.0344 167.284 97.0344 169.208C97.0344 171.119 98.0949 172.352 99.7471 172.352C100.968 172.352 101.905 171.711 102.201 170.712H103.841C103.496 172.611 101.843 173.869 99.7102 173.869ZM115.33 169.208C115.33 171.945 113.53 173.869 110.941 173.869C108.364 173.869 106.588 171.957 106.588 169.208C106.588 166.47 108.376 164.547 110.953 164.547C113.53 164.547 115.33 166.458 115.33 169.208ZM113.666 169.208C113.666 167.284 112.605 166.063 110.953 166.063C109.301 166.063 108.24 167.284 108.24 169.208C108.24 171.131 109.301 172.352 110.953 172.352C112.605 172.352 113.666 171.107 113.666 169.208ZM120.203 173.721H118.649V164.707H120.215L124.444 171.094V164.707H125.998V173.721H124.444L120.203 167.333V173.721ZM132.371 173.721L128.967 164.707H130.644L132.617 169.898C132.814 170.441 132.987 170.971 133.184 171.698C133.406 170.909 133.591 170.354 133.764 169.898L135.712 164.707H137.352L133.998 173.721H132.371ZM145.924 173.721H140.326V164.707H145.924V166.162H141.904V168.48H145.505V169.874H141.904V172.266H145.924V173.721ZM151.063 173.721H149.485V164.707H152.925C154.972 164.707 156.168 165.743 156.168 167.518C156.168 168.727 155.601 169.59 154.54 170.022L156.254 173.721H154.528L152.999 170.354H151.063V173.721ZM151.063 166.113V168.961H152.925C153.924 168.961 154.516 168.431 154.516 167.518C154.516 166.618 153.924 166.113 152.925 166.113H151.063ZM159.077 167.223C159.077 165.644 160.384 164.547 162.283 164.547C164.108 164.547 165.267 165.558 165.316 167.186H163.738C163.701 166.409 163.146 165.952 162.258 165.952C161.284 165.952 160.655 166.421 160.655 167.173C160.655 167.814 161.001 168.172 161.753 168.345L163.171 168.653C164.712 168.986 165.464 169.775 165.464 171.119C165.464 172.796 164.157 173.881 162.172 173.881C160.249 173.881 158.991 172.858 158.954 171.242H160.532C160.544 172.007 161.161 172.463 162.172 172.463C163.22 172.463 163.886 172.007 163.886 171.255C163.886 170.65 163.578 170.293 162.838 170.133L161.408 169.812C159.879 169.479 159.077 168.604 159.077 167.223ZM169.519 173.721H167.879L171.134 164.707H172.749L176.005 173.721H174.34L173.612 171.637H170.246L169.519 173.721ZM171.738 167.395L170.715 170.305H173.156L172.12 167.395C172.046 167.161 171.96 166.89 171.935 166.705C171.898 166.877 171.824 167.149 171.738 167.395ZM177.388 166.162V164.707H184.244V166.162H181.605V173.721H180.027V166.162H177.388ZM188.879 164.707V173.721H187.3V164.707H188.879ZM200.951 169.208C200.951 171.945 199.15 173.869 196.561 173.869C193.984 173.869 192.208 171.957 192.208 169.208C192.208 166.47 193.996 164.547 196.573 164.547C199.15 164.547 200.951 166.458 200.951 169.208ZM199.286 169.208C199.286 167.284 198.226 166.063 196.573 166.063C194.921 166.063 193.861 167.284 193.861 169.208C193.861 171.131 194.921 172.352 196.573 172.352C198.226 172.352 199.286 171.107 199.286 169.208ZM205.823 173.721H204.269V164.707H205.835L210.065 171.094V164.707H211.618V173.721H210.065L205.823 167.333V173.721ZM124.564 193.721H118.966V184.707H124.564V186.162H120.544V188.48H124.144V189.874H120.544V192.266H124.564V193.721ZM129.653 193.721H128.124V184.707H129.653L132.563 191.883L135.473 184.707H137.027V193.721H135.498V190.946C135.498 189.134 135.498 188.604 135.584 187.962L133.291 193.721H131.836L129.555 187.975C129.641 188.517 129.653 189.368 129.653 190.49V193.721ZM144.435 190.613H142.45V193.721H140.872V184.707H144.435C146.248 184.707 147.419 185.891 147.419 187.654C147.419 189.393 146.235 190.613 144.435 190.613ZM144.127 186.113H142.45V189.208H144.102C145.187 189.208 145.767 188.628 145.767 187.642C145.767 186.655 145.175 186.113 144.127 186.113ZM152.175 184.707V192.266H155.948V193.721H150.596V184.707H152.175ZM166.872 189.208C166.872 191.945 165.072 193.869 162.482 193.869C159.905 193.869 158.129 191.957 158.129 189.208C158.129 186.47 159.917 184.547 162.494 184.547C165.072 184.547 166.872 186.458 166.872 189.208ZM165.207 189.208C165.207 187.284 164.147 186.063 162.494 186.063C160.842 186.063 159.782 187.284 159.782 189.208C159.782 191.131 160.842 192.352 162.494 192.352C164.147 192.352 165.207 191.107 165.207 189.208ZM171.674 190.17L168.629 184.707H170.392L172.167 187.987C172.303 188.234 172.389 188.431 172.488 188.653C172.599 188.431 172.648 188.283 172.809 187.987L174.572 184.707H176.286L173.253 190.17V193.721H171.674V190.17ZM184.851 193.721H179.253V184.707H184.851V186.162H180.831V188.48H184.432V189.874H180.831V192.266H184.851V193.721ZM194.01 193.721H188.412V184.707H194.01V186.162H189.99V188.48H193.591V189.874H189.99V192.266H194.01V193.721Z" fill="url(#paint7_linear_71_13254)"/>
    </g>
    <defs>
        <linearGradient id="paint0_linear_71_13254" x1="61.2683" y1="177.409" x2="101.645" y2="177.409" gradientUnits="userSpaceOnUse">
            <stop stop-color="#22A92E"/>
            <stop offset="1" stop-color="#AFD5B1"/>
        </linearGradient>
        <linearGradient id="paint1_linear_71_13254" x1="123.538" y1="239.681" x2="123.538" y2="199.304" gradientUnits="userSpaceOnUse">
            <stop stop-color="#22A92E"/>
            <stop offset="1" stop-color="#AFD5B1"/>
        </linearGradient>
        <linearGradient id="paint2_linear_71_13254" x1="191.356" y1="239.681" x2="191.356" y2="199.304" gradientUnits="userSpaceOnUse">
            <stop stop-color="#22A92E"/>
            <stop offset="1" stop-color="#AFD5B1"/>
        </linearGradient>
        <linearGradient id="paint3_linear_71_13254" x1="253.626" y1="177.409" x2="213.249" y2="177.409" gradientUnits="userSpaceOnUse">
            <stop stop-color="#22A92E"/>
            <stop offset="1" stop-color="#AFD5B1"/>
        </linearGradient>
        <linearGradient id="paint4_linear_71_13254" x1="253.626" y1="109.591" x2="213.249" y2="109.591" gradientUnits="userSpaceOnUse">
            <stop stop-color="#22A92E"/>
            <stop offset="1" stop-color="#AFD5B1"/>
        </linearGradient>
        <linearGradient id="paint5_linear_71_13254" x1="191.356" y1="47.3232" x2="191.356" y2="87.7002" gradientUnits="userSpaceOnUse">
            <stop stop-color="#22A92E"/>
            <stop offset="1" stop-color="#AFD5B1"/>
        </linearGradient>
        <linearGradient id="paint6_linear_71_13254" x1="253.269" y1="130.992" x2="61.2693" y2="130.992" gradientUnits="userSpaceOnUse">
            <stop stop-color="#22A92E"/>
            <stop offset="1" stop-color="#AFD5B1"/>
        </linearGradient>
        <linearGradient id="paint7_linear_71_13254" x1="253.269" y1="179.45" x2="61.2693" y2="179.45" gradientUnits="userSpaceOnUse">
            <stop stop-color="#22A92E"/>
            <stop offset="1" stop-color="#AFD5B1"/>
        </linearGradient>
        <clipPath id="clip0_71_13254">
            <rect width="316.743" height="469" rx="40" fill="white"/>
        </clipPath>
    </defs>
</svg>
